<?xml version="1.0" standalone="no"?>
<!DOCTYPE svg PUBLIC "-//W3C//DTD SVG 1.1//EN" "http://www.w3.org/Graphics/SVG/1.1/DTD/svg11.dtd" >
<svg xmlns="http://www.w3.org/2000/svg" xmlns:xlink="http://www.w3.org/1999/xlink" version="1.1">
<metadata>
Created by FontForge 20170731 at Mon May 10 09:34:41 2021
 By Aleksey,,,
Glow Better (c)ErgibiStd2021. All Rights Reserved
</metadata>
<defs>
<font id="GlowBetter-Script" horiz-adv-x="2354" >
  <font-face 
    font-family="Glow Better Script"
    font-weight="400"
    font-stretch="normal"
    units-per-em="2048"
    panose-1="2 0 5 0 0 0 0 0 0 0"
    ascent="1638"
    descent="-410"
    x-height="726"
    cap-height="2784"
    bbox="-861 -2299 6425.8 3748.04"
    underline-thickness="150"
    underline-position="-367"
    unicode-range="U+001D-E244"
  />
<missing-glyph horiz-adv-x="1024" 
 />
    <glyph glyph-name="ll" unicode="ll" horiz-adv-x="1018" 
d="M969 2187h2q22 0 40 -23q7 -10 7 -36q0 -68 -37.5 -210t-98.5 -291q-81 -200 -170 -331q-108 -167 -217 -218q-24 -10 -36 -12l-24 -53q-205 -456 -352.5 -855t-174.5 -607q-6 -45 -6 -75q0 -50 15 -52h6q36 0 89 46.5t124.5 147t140.5 204.5t165.5 273t167 295
t178.5 329.5t167.5 317t162.5 312.5q228 438 296 561q12 26 44 26q14 0 23 -5q28 -12 28 -43q0 -15 -7 -26q-183 -355 -514 -1110t-548 -1343q-146 -402 -200 -635q-37 -158 -37 -205q0 -19 6 -23q18 -3 29.5 -16.5t11.5 -31.5q0 -6 -1 -9q-1 -18 -16 -30.5t-34 -12.5h-5
q-2 1 -9.5 2t-11.5 3q-61 26 -61 142q0 77 30 205q52 227 205 645q125 348 375 947q-591 -1068 -808 -1068q-2 0 -6 0.5t-5 0.5q-99 15 -99 162q0 37 6 80q27 214 176 617t359 872l4 14q-24 9 -40 20q-26 15 -26 43q0 15 7 26q14 24 43 24q15 0 26 -7q16 -9 33 -12
q181 390 335 681t200 328q22 16 42 16zM891 1943q-155 -279 -353 -709q33 33 91 117q81 125 160 314q61 144 102 278z" />
    <glyph glyph-name="ff" unicode="ff" horiz-adv-x="1138" 
d="M909 1657q38 0 74 -18q33 -18 60 -53q12 -14 12 -31q0 -24 -19 -41q-16 -11 -32 -11q-24 0 -40 18q-12 19 -29 27q-14 8 -28 8q-56 0 -141 -90q-114 -117 -270 -393q-56 -98 -141 -268q217 32 361 40q80 170 181 343q128 222 247 345.5t218 123.5q13 0 20 -1
q110 -16 172 -178q3 -9 3 -18q0 -36 -32 -49q-7 -3 -16 -3q-16 0 -29.5 9.5t-18.5 24.5q-42 105 -94 113q-1 0 -4.5 0.5t-5.5 0.5q-129 0 -374 -420q-54 -91 -153 -283q31 1 92 1q165 0 297 -18q19 -4 31 -18.5t12 -33.5v-6q-3 -19 -17.5 -31.5t-31.5 -12.5q-5 0 -8 1
q-129 18 -287 18q-69 0 -138 -3q-150 -311 -286 -660q-215 -539 -369 -1049.5t-154 -606.5q26 -13 26 -43q0 -14 -7 -27q-13 -26 -42 -26q-14 0 -25 7q-22 12 -22 80q0 185 144.5 680.5t355.5 1023.5q120 305 265 611q-176 -13 -363 -48q-171 -361 -335.5 -793t-283.5 -811
q-4 -17 -16 -26.5t-28 -9.5q-9 0 -18 3q-15 4 -25 18t-10 30q0 4 2 14q110 358 268 775t324 778q-158 -31 -158 -36q-1 0 -4 -0.5t-4 -0.5q-18 0 -34 11t-20 29q0 1 -0.5 4t-0.5 5q0 18 10.5 33t29.5 18q0 1 27 7.5t83.5 18.5t122.5 24q88 184 175 341q155 280 286 414
q116 119 215 119z" />
    <glyph glyph-name="tt" unicode="tt" horiz-adv-x="1019" 
d="M1666 2183q12 0 24 -7q26 -15 26 -46q0 -14 -6 -24q-96 -166 -165 -280q198 9 409 9q604 0 1212 -76q20 -2 32.5 -17t12.5 -34v-4q-4 -21 -18.5 -33.5t-34.5 -12.5h-4q-607 76 -1209 76q-226 0 -455 -11q-221 -413 -507 -1011.5t-532 -1177.5q-541 -1283 -589 -1786
q-4 -20 -18 -32.5t-32 -12.5h-5q-20 2 -33 15t-13 32q0 1 0.5 3.5t0.5 4.5q46 509 596 1814q251 587 495 1096q-604 -973 -917 -1352q-112 -130 -177 -177q-48 -35 -85 -35q-42 0 -63 47q-11 24 -11 55q0 24 4 45q41 291 473 1192q292 615 616 1203q-689 -96 -1237 -280
q-9 -3 -17 -3q-36 0 -47 34q-3 9 -3 17q0 35 34 48l5 2q365 127 891 224q213 39 433 68q170 297 232 391q14 23 42 23q14 0 27 -8q23 -14 23 -42q0 -16 -9 -28q-85 -134 -191 -321q280 34 549 48l39 67q97 176 157 271q15 24 44 26h1zM1363 1713q-285 -18 -546 -50
q-349 -630 -650 -1266q-192 -400 -318 -710t-145 -450l-2 -15q65 49 155 159q454 546 1506 2332zM-301 -792q0 -4 1 -9l2 -5l2 -2q0 1 -1 3.5t-2 6t-2 6.5z" />
    <glyph glyph-name="st" unicode="st" horiz-adv-x="1366" 
d="M2014 2183q16 0 28 -9q23 -14 23 -42q0 -14 -8 -28q-67 -98 -194 -336q549 67 1117 67q596 0 1194 -76q19 -2 31 -16.5t12 -33.5v-5q-1 -20 -16.5 -33t-36.5 -13h-4q-598 76 -1194 76q-590 0 -1160 -73q-222 -420 -496.5 -996t-508.5 -1131q-543 -1276 -592 -1786
q-1 -20 -15 -32.5t-34 -12.5h-6q-19 1 -32 15t-13 34v6q51 523 599 1814q335 791 762 1652q-391 -575 -955 -1376l-67 -93q24 -75 24 -149v-18q0 -135 -77 -267l-2 -3q-68 -112 -177 -196q-68 -53 -140 -83t-120 -30q-18 0 -31 5q-37 13 -37 51q0 16 8 40q20 54 115.5 196.5
t324.5 467.5q-76 175 -277 340l-12 12q-55 54 -55 127q0 30 9 63q21 86 105 187q26 33 46 53q105 109 210 162t184 53q55 0 93 -24q46 -26 57 -74q4 -20 4 -30q0 -67 -64 -140q-14 -18 -37 -18q-20 0 -34 13q-16 13 -16 38q0 20 11 32q39 47 39 73q0 6 -1 8q-4 9 -9 12
q-20 10 -43 10q-60 0 -145 -46t-178 -141q-7 -7 -40 -46q-71 -86 -84 -146q-5 -23 -5 -38q0 -34 22 -56l7 -4q194 -163 279 -326l31 43q723 1031 1192 1731q-117 -18 -232 -38.5t-209.5 -40.5t-183.5 -40.5t-160 -39t-132 -36t-105.5 -31t-76.5 -24t-48 -15.5l-16 -6
q-9 -3 -17 -3q-36 0 -47 34q-3 9 -3 17q0 35 34 48l5 2q363 127 887 224q187 34 380 61q148 222 272 410q14 24 41 24zM369 -358q-290 -411 -353 -523q63 26 138 84q96 75 153 168v3q64 103 64 216v14q0 26 -2 38z" />
    <glyph glyph-name="sh" unicode="sh" horiz-adv-x="2699" 
d="M2118 2597q7 0 10 -2q62 -19 62 -92q0 -38 -19 -95q-85 -249 -613 -1018l-17 -41q-272 -615 -413 -1038q-51 -145 -83 -259q60 107 113 197t125 205t138 202.5t136 165.5t136.5 120t121.5 42q25 0 48 -9q82 -33 82 -174q0 -46 -17 -195q-18 -150 -18 -222q0 -108 32 -159
q36 -55 119 -55q211 0 762 359q11 7 26 7q29 0 43 -24q9 -12 9 -27q0 -27 -23 -42q-566 -368 -828 -368q-132 0 -194 94q-47 74 -47 214q0 70 19 237q18 148 18 191q0 63 -21 70q-13 5 -24 5q-34 0 -78 -29.5t-94.5 -87.5t-99.5 -122.5t-107 -156.5t-103 -164.5t-101 -173
t-86.5 -156t-74.5 -136.5l-15 -24q-12 -26 -44 -26q-14 0 -23 5q-39 22 -39 107q0 137 97 422q77 242 241 638q-64 -90 -192.5 -271t-192.5 -271q-88 -125 -242 -341t-209 -294q41 -102 41 -194v-10q0 -143 -79 -273q-68 -116 -179 -199q-70 -52 -141 -82.5t-118 -30.5
q-17 0 -30 5q-42 17 -42 61q0 25 14 61v5q61 157 420 667q-74 146 -258 304q-7 3 -12 10q-56 53 -56 131q0 28 8 60h3q20 88 102 187q23 25 48 51q106 110 209.5 163t184.5 53q55 0 93 -22q45 -30 55 -77l2 -5q3 -12 3 -25q0 -64 -62 -140q-17 -17 -41 -17q-18 0 -31 12
q-18 15 -18 39q0 19 13 33q38 45 38 72v5l-2 2q0 8 -10 12q-13 10 -40 10q-61 0 -146 -46t-176 -139q-7 -8 -21 -23t-20 -22q-69 -82 -86 -147v-2q-4 -15 -4 -33q0 -37 23 -60l7 -5q165 -140 258 -288q63 90 420 592q473 665 662 940q246 555 432 894q146 263 215 263h1z
M2097 2500q-2 0 -13 -25t-37.5 -79.5t-56.5 -109.5q-67 -122 -136 -266q174 285 220 420q5 14 11.5 29t9 21.5t2.5 8.5v1zM367 -300q-313 -450 -366 -581q65 20 158 92q101 76 155 167q65 106 65 221v9q0 37 -12 92z" />
    <glyph glyph-name="ss" unicode="ss" horiz-adv-x="1695" 
d="M1255 774q52 0 94 -22q44 -30 54 -77q4 -18 4 -30q0 -65 -61 -138l-5 -4q-83 -78 -403 -403q120 -117 189 -242q237 229 572 537l86 79q16 14 35 14q22 0 37 -17q13 -13 13 -32q0 -24 -18 -39l-83 -80q-229 -205 -604 -563q11 -38 14 -69q2 -14 2 -40q0 -101 -59 -191
q-58 -88 -158 -148q-71 -43 -149.5 -66.5t-136.5 -23.5q-30 0 -46 6q-37 15 -37 49q0 14 6 30q33 79 449 479q-53 116 -181 245q-219 -224 -392 -408v-7q0 -3 0.5 -10t0.5 -11q0 -134 -77 -264l-3 -2q-66 -113 -176 -195l-5 -2q-67 -53 -137 -83t-118 -30q-18 0 -31 5l-3 2
q-8 5 -12 5v3q-6 2 -9 7q-11 16 -11 33q0 12 6 22q13 41 64 108q70 87 194 223q104 117 215 235q-34 228 -311 460l-12 10q-54 51 -54 125q0 31 9 64q20 90 105 189q21 25 45 51q106 109 210.5 162t183.5 53q57 0 93 -21q47 -31 58 -77q4 -20 4 -30q0 -67 -64 -140
q-15 -17 -39 -17q-18 0 -33 12q-16 16 -16 38q0 19 12 34q38 45 38 74v5q-6 11 -10 12q-13 10 -43 10q-60 0 -144.5 -46t-177.5 -139q-8 -9 -22 -24t-19 -21q-71 -90 -86 -149q-3 -16 -3 -31q0 -39 23 -62l7 -5q264 -222 329 -449q175 184 334 348l-26 24l-12 10
q-53 53 -53 129q0 33 8 60q22 86 105 189q7 9 22.5 26t22.5 25q108 110 212 163t184 53zM1255 673q-62 0 -146.5 -46t-175.5 -139q-7 -7 -21 -22t-22 -23q-66 -84 -83 -149q-5 -20 -5 -33q0 -36 24 -60l5 -5l33 -27q265 270 406 406q37 43 37 69q0 5 -1 7q0 8 -10 12
q-14 10 -41 10zM1079 -327q-269 -260 -344 -352q88 22 177 74q83 51 126 118q42 66 42 134q0 17 -1 26zM365 -499q-54 -57 -131 -144q-156 -175 -189 -218q55 25 112 69l3 2q99 79 152 168v3q34 51 53 120zM-10 -883q-12 0 -14 -2q9 0 14 2z" />
    <glyph glyph-name="sl" unicode="sl" horiz-adv-x="1342" 
d="M1954 2187q22 0 41 -21q7 -5 12 -21q5 -20 5 -42q0 -258 -614 -1147q-198 -446 -337 -824.5t-164 -580.5q-8 -53 -8 -81q0 -44 15 -46q18 -2 30.5 -17.5t12.5 -33.5v-4q-4 -21 -18.5 -33.5t-34.5 -12.5h-4q-100 14 -100 164q0 36 6 78q38 306 327 1007
q-296 -405 -654 -868q8 -32 12 -91v-14q0 -146 -78 -271l-3 -2q-69 -115 -177 -195l-4 -2q-67 -53 -137.5 -83t-118.5 -30q-18 0 -31 5q-35 15 -35 46q0 14 7 31q25 66 458 628q-58 195 -296 393l-12 10q-54 53 -54 128q0 29 9 61q22 86 105 189q7 9 22.5 26t22.5 25
q105 110 210 163t186 53q52 0 93 -22q45 -30 55 -77q4 -20 4 -31q0 -69 -63 -139q-15 -17 -38 -17q-17 0 -32 12q-18 17 -18 40q0 18 11 32q39 46 39 71q0 6 -1 8q0 8 -9 12q-14 10 -41 10q-62 0 -146.5 -45.5t-177.5 -139.5q-7 -8 -21 -23t-20 -22q-67 -84 -83 -149
q-5 -20 -5 -33q0 -36 24 -60l4 -5q220 -181 304 -374q526 684 871 1172l26 60q188 417 360 746t223 371q22 16 40 16zM1875 1936q-74 -129 -188 -364q137 233 188 364zM379 -416q-292 -384 -335 -448q46 22 115 72l2 2q96 73 153 168l3 3q58 99 62 203z" />
    <glyph glyph-name="at1" unicode="at" horiz-adv-x="1531" 
d="M2158 2183q14 0 27 -7q21 -16 21 -45q0 -14 -7 -27l-5 -7l-2 -3q-2 -3 -13.5 -22.5t-20.5 -34.5q-88 -154 -145 -269q548 67 1117 67q598 0 1198 -76q20 -2 33 -17t13 -34v-4q-4 -21 -19 -33.5t-35 -12.5h-4q-598 76 -1194 76q-585 0 -1167 -74q-213 -418 -476 -993.5
t-490 -1132.5q-520 -1274 -559 -1786q-2 -18 -16 -31.5t-34 -13.5h-5q-21 1 -34.5 17t-13.5 38q41 515 569 1814q274 679 611 1398q-184 -295 -348.5 -547t-330.5 -492.5t-295 -395t-196 -188.5q-17 -10 -30 -10q-6 0 -8 1h-3q-14 4 -19 4q-69 32 -69 150q0 50 12 112
q26 153 119 412q56 157 141 360q-331 -463 -418 -489q-18 -7 -36 -7q-24 0 -45 16q-43 31 -43 113q0 63 22 141q46 174 151.5 358t225.5 263q58 38 134 38q64 0 167 -33q71 107 71 108q17 22 44 22q13 0 26 -8q24 -18 24 -43q0 -13 -8 -26q-59 -119 -167.5 -367t-192.5 -480
q-89 -239 -117 -395q-13 -78 -13 -113q0 -33 10 -36h4q33 0 122 105t219 293.5t270.5 403t306.5 481.5t295.5 478t267.5 440q-240 -36 -460.5 -81t-376 -88.5t-221.5 -63.5t-117 -38l-6 -2q-9 -3 -18 -3q-34 0 -47 34q-3 8 -3 16q0 36 34 49l18 6q18 6 53 17.5t84 26.5
t117 33.5t146 38.5t176 42t202.5 42.5t230.5 41.5t255 39q42 69 102.5 170t76.5 127l24 39q5 9 20.5 36t22.5 38q17 24 45 24zM468 707q-47 0 -76 -20q-105 -68 -198.5 -235t-135.5 -326q-20 -80 -20 -120v-21q91 52 540 702q-65 20 -110 20z" />
    <glyph glyph-name="att" unicode="att" horiz-adv-x="2176" 
d="M2838 2183q13 0 24 -7q25 -16 25 -45q0 -13 -6 -25q-66 -109 -165 -280q198 9 411 9q603 0 1210 -76q18 -2 31 -16t13 -31q0 -2 -0.5 -4t-0.5 -4q-1 -20 -16.5 -33t-34.5 -13h-4q-607 76 -1208 76q-227 0 -456 -11q-222 -414 -507.5 -1012.5t-530.5 -1176.5
q-543 -1276 -592 -1786q-2 -20 -15.5 -32.5t-33.5 -12.5h-6q-18 2 -31.5 16t-13.5 34v5q52 528 599 1814q197 470 492 1096q-614 -989 -917 -1352q-117 -136 -174 -177q-50 -35 -86 -35q-41 0 -65 47q-9 24 -9 61q0 25 2 39q39 281 473 1192q166 345 329 659
q-793 -1129 -988 -1189q-11 -6 -21 -6q-5 0 -8 1q-11 2 -36 12q-67 36 -78 127q-2 26 -2 41q0 57 14 132q13 76 57 201q-364 -506 -454 -534q-17 -7 -35 -7q-25 0 -46 16q-43 33 -43 113q0 44 22 141q29 110 83 228t134 228.5t162 164.5q57 38 132 38q64 0 167 -33
q71 103 71 108q17 22 45 22q14 0 27 -8q21 -16 21 -44q0 -15 -7 -25q-36 -72 -75.5 -160.5t-90 -228t-70.5 -239.5q-14 -64 -14 -109q0 -12 2 -30q3 -39 24 -51q1 0 4 -1t5 -1h4q38 0 140.5 110.5t231 279t289.5 395.5t300 431.5t279 415.5q-120 -18 -238 -38.5t-215 -40.5
t-188.5 -41t-164 -40t-135.5 -36.5t-109 -31.5t-78.5 -24.5t-48.5 -16.5l-17 -6q-9 -3 -18 -3q-16 0 -29.5 9.5t-18.5 24.5q-2 5 -2 16q0 36 33 49l5 2q361 126 881 222q205 38 417 66q229 347 251 383l9 12q14 23 42 23q14 0 27 -8q22 -16 22 -43q0 -16 -7 -27l-7 -12
l-8 -12q-60 -92 -176 -297q273 34 549 48l38 67q91 168 158 271q14 24 44 26h1zM2535 1713q-289 -18 -549 -50q-317 -572 -650 -1266q-427 -899 -463 -1160l-2 -15q58 41 157 159q458 550 1507 2332zM467 707q-47 0 -76 -20q-72 -46 -143 -146t-119 -207.5t-75 -207.5
q-19 -83 -19 -120v-21q56 32 212.5 241.5t327.5 460.5q-64 20 -108 20zM871 -792q0 -12 2 -14l1 -2q0 1 -0.5 3.5t-1.5 6t-1 6.5z" />
    <glyph glyph-name="ot" unicode="ot" horiz-adv-x="1325" 
d="M1949 2183q19 -5 22 -7l2 -3q22 -13 22 -40v-5q0 -8 -7 -22l-3 -2q-69 -112 -186 -336q549 67 1119 67q598 0 1199 -76q19 -2 31.5 -15.5t12.5 -31.5q0 -5 -1 -8q-1 -20 -16.5 -33t-34.5 -13h-4q-600 76 -1196 76q-585 0 -1165 -74q-218 -429 -481 -1002.5t-486 -1123.5
q-519 -1278 -561 -1786q-2 -18 -15.5 -31.5t-31.5 -13.5h-5q-21 1 -34.5 16t-13.5 35v4q42 524 568 1814q383 947 869 1935q-141 -182 -281.5 -342t-246 -266.5t-208 -198t-163.5 -139.5t-118 -87q36 -36 36 -100q0 -10 -2 -32q-11 -72 -61.5 -161.5t-120.5 -166.5
q-69 -78 -143 -127t-133 -49q-10 0 -15 1q-122 13 -122 197q0 30 5 78l5 31q12 90 48 192.5t85 186.5q54 92 120 146t138 54q13 0 19 -1l7 -2q44 -5 79 -36q27 -24 48 -77q0 -2 1 -7t1 -7q77 57 166.5 134.5t215.5 200.5t284 304.5t323 395.5q-112 -18 -222 -38
t-200.5 -39.5t-176 -39.5t-153 -38t-126 -34.5t-101 -30t-73 -23t-46.5 -14.5l-15 -6q-9 -3 -17 -3q-36 0 -47 34q-4 12 -4 19q0 33 32 46l17 6q18 6 51.5 17t81 25.5t113 32.5t141 37.5t170 41t195.5 42t222.5 41.5t245.5 39q168 225 294 418q18 21 47 21zM375 623
q-78 0 -171 -152q-44 -74 -76.5 -166.5t-44.5 -175.5l-3 -27q-5 -50 -5 -76q0 -84 34 -87h6q35 0 89.5 39.5t109.5 102.5q62 69 105.5 143t49.5 130q1 5 1 14q0 45 -44 51q-19 1 -31.5 15.5t-12.5 32.5q0 1 0.5 3.5t0.5 3.5q4 27 27 38q1 1 7 4.5t19 12t26 17.5
q-21 8 -28 31q-7 21 -22 31q-12 12 -26 14h-3q-3 1 -8 1z" />
    <glyph glyph-name="ott" unicode="ott" horiz-adv-x="1935" 
d="M1943 2183q17 0 28 -10q22 -13 22 -40q0 -1 -0.5 -3.5t-0.5 -3.5q1 -3 1 -9q0 -14 -8 -25q-84 -129 -191 -321q281 34 549 48l38 67q81 149 158 271q15 26 44 26q14 0 25 -7q26 -15 26 -45q0 -14 -7 -25q-21 -36 -77.5 -132.5t-87.5 -147.5q196 9 408 9q605 0 1213 -76
q19 -2 31.5 -15.5t12.5 -31.5q0 -5 -1 -8q-1 -20 -16.5 -33t-34.5 -13h-4q-607 76 -1208 76q-226 0 -455 -11q-222 -412 -508 -1010.5t-531 -1178.5q-541 -1284 -592 -1786q-1 -20 -15 -32.5t-34 -12.5h-6q-18 2 -31.5 16t-13.5 34v5q51 523 599 1814q197 470 492 1096
q-618 -996 -917 -1352q-109 -130 -174 -177q-48 -35 -85 -35q-42 0 -63 47q-11 24 -11 56q0 23 4 44q35 277 470 1192q200 416 501 990q-165 -206 -322.5 -378.5t-280 -285.5t-204 -180t-150.5 -115q33 -34 33 -98q0 -10 -2 -34q-9 -71 -58.5 -160.5t-120.5 -167.5
q-71 -79 -145 -127.5t-134 -48.5q-10 0 -15 1q-121 13 -121 204q0 36 4 71l5 31q15 94 50 196t84 183q122 200 257 200q13 0 20 -1l7 -2q42 -4 79 -36q33 -30 47 -77q3 -5 3 -14q78 58 167 135t216.5 200.5t287 306t324.5 398.5q-116 -17 -229.5 -37.5t-207.5 -40t-182 -40
t-158 -39t-130.5 -35.5t-104.5 -30.5t-75 -24t-47 -15.5l-16 -6q-9 -3 -18 -3q-34 0 -47 34q-3 9 -3 18q0 34 32 47l6 2q38 13 81.5 27.5t171.5 50.5t261.5 68t337.5 71t414 68q167 224 291 413q15 21 42 21zM2281 1713q-282 -17 -547 -50q-347 -629 -651 -1266
q-424 -890 -463 -1160v-15q56 44 155 159q458 553 1506 2332zM374 623q-83 0 -170 -152q-92 -149 -122 -342l-4 -27q-4 -37 -4 -73q0 -87 32 -90h6q36 0 90.5 39t111.5 103q60 70 103 144t50 129q1 4 1 13q0 46 -44 52q-19 1 -31 15.5t-12 33.5v6q3 26 26 38q33 20 53 34
q-21 9 -29 31q-7 19 -19 31q-11 11 -26 14h-3q-3 1 -9 1zM617 -792q0 -12 3 -14l1 -2q0 2 -4 16z" />
    <glyph glyph-name="et" unicode="et" horiz-adv-x="1738" 
d="M2347 2183h4q10 0 15 -2h4l3 -3h5v-2h4v-2h3v-3h2v-2h3l2 -3v-2l2 -2h3v-5h2v-3l3 -2v-5l2 -2v-10q0 -17 -5 -26v-2l-2 -3q-57 -88 -189 -335q553 66 1117 66q599 0 1201 -76q20 -1 32.5 -16t12.5 -34v-5q-3 -21 -18 -33.5t-35 -12.5h-4q-600 76 -1197 76
q-592 0 -1164 -73q-216 -425 -479 -999t-488 -1128q-520 -1281 -558 -1786q-2 -19 -16 -32t-34 -13h-5q-21 1 -34.5 17t-13.5 38q42 523 568 1815q216 533 469.5 1089t468.5 982q-20 -3 -60.5 -9.5t-60.5 -9.5q-171 -176 -325 -341q-176 -185 -257 -269.5t-241 -250
t-254.5 -256.5t-215.5 -204.5t-211 -184.5t-160 -112q-93 -54 -153 -54t-91 51q-35 61 -35 139q0 76 33 166q11 34 38 88q5 20 17 31q53 90 114 161q112 135 242 211q102 62 185 62q35 0 65 -12q39 -13 62 -45q18 -27 18 -60q0 -19 -8 -43q-20 -52 -72 -101
q-153 -136 -535 -252q-4 -8 -15.5 -34.5t-17.5 -41.5q-25 -67 -25 -124q0 -55 23 -92q3 -4 10 -4q26 0 95 42q94 56 227.5 169t341 320t322 325t378.5 395q32 33 48 50q32 34 110.5 117t119.5 127q-119 -21 -234.5 -45.5t-205 -46.5t-169.5 -43.5t-136.5 -38.5t-98 -30.5
t-62.5 -20.5l-21 -7q-9 -3 -17 -3q-15 0 -28.5 9.5t-18.5 24.5q-3 9 -3 17q0 34 34 48l15 5q15 5 44 15t70 22.5t98 29t122.5 34t148 37t170.5 39t194 39.5t215 38q321 332 460 448q1 1 2.5 2t2.5 2t2 1l3 2l2 2h3l2 3h7zM2148 1869q-20 -20 -61 -61.5t-63 -63.5q52 7 65 10
q12 26 59 115zM594 760q-52 0 -131 -46q-113 -67 -217 -190q-18 -21 -34 -41q267 92 380 192q38 35 45 60l3 12q-2 2 -12 7q-12 6 -34 6z" />
    <glyph glyph-name="ett" unicode="ett" horiz-adv-x="2343" 
d="M2995 2183q12 0 24 -7q24 -14 24 -43q0 -16 -7 -27q-27 -47 -81 -140t-81 -140q196 9 408 9q605 0 1213 -76q18 -2 30 -16.5t12 -33.5v-5q-1 -20 -16.5 -33t-36.5 -13h-4q-607 76 -1208 76q-227 0 -456 -11q-225 -424 -509.5 -1020.5t-526.5 -1168.5
q-543 -1276 -592 -1786q-1 -20 -15 -32.5t-34 -12.5h-6q-20 1 -32.5 15.5t-12.5 35.5v4q51 523 599 1814q197 470 492 1096q-618 -996 -917 -1352q-117 -136 -174 -177q-50 -35 -86 -35q-41 0 -64 47q-10 23 -10 62q0 10 2 38q39 275 473 1192q327 679 616 1203
q-18 -2 -52.5 -6.5t-52.5 -7.5q-169 -178 -330 -348q-200 -211 -308 -323.5t-289 -296.5t-295 -291t-239 -212.5t-208 -154.5q-89 -53 -152 -53q-60 0 -91 51q-37 64 -37 144q0 72 32 160q20 49 41 89q3 18 16 31q45 79 115 161q112 134 241 211q103 62 186 62q35 0 65 -12
q36 -13 62 -45q18 -28 18 -59q0 -22 -9 -44q-20 -54 -74 -101q-154 -138 -532 -252q-28 -60 -34 -77q-25 -67 -25 -124q0 -55 21 -91q3 -4 11 -4q25 0 96 42q79 46 201.5 149.5t232.5 207t291.5 288.5t284.5 293t305 321q61 64 239 249q-125 -22 -245.5 -46.5t-213.5 -47
t-176.5 -44.5t-142.5 -39.5t-102 -31t-65 -20.5l-22 -8q-9 -3 -17 -3q-36 0 -47 34q-3 9 -3 17q0 34 34 48l15 6q16 5 46.5 14.5t73 23t101.5 30t127 34.5t153.5 38t176.5 39.5t201 39.5t223 38q337 346 454 446q14 11 32 11q26 0 39 -18q13 -13 13 -30q0 -5 -1 -8
q1 -3 1 -9q0 -14 -8 -25q-57 -85 -191 -321q275 34 547 48l38 67q87 155 160 271q15 24 44 26h1zM2141 1862q-74 -74 -112 -113l52 7q11 21 33 59t27 47zM2692 1713q-286 -18 -549 -50q-332 -602 -649 -1266q-428 -898 -463 -1160l-3 -15q66 49 158 159q209 254 586.5 834
t919.5 1498zM593 760q-51 0 -130 -46q-115 -68 -218 -190q-3 -4 -33 -41q265 91 379 192q38 34 46 60l2 12q-2 3 -12 7q-12 6 -34 6zM1028 -792v-14l2 -2l-1 6q-1 6 -1 10z" />
    <glyph glyph-name="it" unicode="it" horiz-adv-x="1503" 
d="M2126 2187q22 0 38 -16q16 -15 16 -39t-16 -40l-10 -7q-63 -102 -174 -317q549 67 1119 67q598 0 1199 -76q18 -2 30.5 -17.5t12.5 -33.5v-4q-1 -20 -16.5 -33t-36.5 -13h-4q-600 76 -1197 76q-592 0 -1164 -73q-217 -428 -480 -1002t-487 -1125q-520 -1274 -559 -1786
q-2 -18 -16 -31.5t-34 -13.5h-5q-19 2 -32 16.5t-13 34.5v4q42 519 566 1814q222 545 476.5 1103.5t463.5 968.5q-13 -2 -35.5 -5.5t-31.5 -4.5l-131 -146q-165 -185 -256.5 -286t-249 -273t-260.5 -275.5t-224 -219.5t-210.5 -184t-152.5 -95q-48 -21 -85 -21q-68 0 -97 67
q-19 47 -19 101q0 45 14 98q29 107 105 222q17 26 46 26q17 0 31 -11q23 -17 23 -45q0 -16 -9 -29q-70 -106 -91 -190q-10 -36 -10 -69q0 -34 10 -58q2 -2 4 -2q4 0 35 12q35 15 80 45t103.5 80.5t112.5 98.5t132.5 126.5t136 137t149.5 157t147.5 158.5t156 171t148.5 164
t149 166l41 45q-99 -17 -196 -36t-177 -36.5t-155 -36t-134.5 -34.5t-111 -31t-88.5 -26.5t-63.5 -20.5t-39.5 -14l-14 -4q-9 -3 -17 -3q-35 0 -48 34q-3 8 -3 16q0 36 34 49l16 6q15 5 45.5 14.5t73.5 23t102 30t127 34.5t153.5 38t177 39.5t202 39.5t223.5 38
q271 303 415 446q16 16 39 16zM1877 1790l-35 -38l16 2zM590 1264q26 0 49 -15t23 -34q0 -18 -24 -32q-29 -18 -65 -57.5t-57 -69.5l-21 -31q-10 -23 -30 -23q-14 0 -24.5 11.5t-10.5 29.5q0 9 3 18q5 16 15.5 41t43.5 77.5t68 75.5q14 9 30 9z" />
    <glyph glyph-name="itt" unicode="itt" horiz-adv-x="2114" 
d="M2122 2187q23 0 38 -16q16 -16 16 -41q0 -13 -4 -21q-3 -7 -7 -17q-61 -89 -191 -321q272 34 546 48l38 67q87 155 160 271q16 26 45 26q14 0 25 -7q24 -14 24 -43q0 -14 -8 -27q-27 -47 -81 -140t-81 -140q196 9 408 9q605 0 1213 -76q18 -2 30.5 -17.5t12.5 -33.5v-4
q-2 -20 -17.5 -33t-35.5 -13h-4q-607 76 -1209 76q-226 0 -455 -11q-223 -419 -508 -1016.5t-528 -1172.5q-545 -1280 -592 -1786q-2 -20 -16 -32.5t-33 -12.5h-6q-21 1 -33.5 15.5t-12.5 35.5v4q28 275 189 750t411 1064q190 454 491 1096q-601 -971 -916 -1352
q-115 -134 -175 -177q-50 -35 -86 -35q-40 0 -64 47q-10 23 -10 59q0 18 3 41q37 274 472 1192q292 612 616 1203l-50 -7q-125 -140 -136 -151q-154 -173 -254.5 -284.5t-251 -275t-258.5 -273t-226 -222.5t-208 -182t-153 -96q-48 -21 -86 -21q-66 0 -98 67q-19 45 -19 100
q0 46 14 99q28 108 108 222q15 26 44 26q16 0 30 -11q25 -16 25 -44q0 -16 -11 -30q-69 -112 -91 -190q-10 -43 -10 -72q0 -32 10 -55q2 -2 5 -2q5 0 36 12q50 21 125.5 79.5t152.5 127t191 184t198.5 204t220 237t211.5 233.5t214 239l48 53q-103 -17 -203.5 -36.5
t-183.5 -38t-161 -37.5t-140 -35.5t-115.5 -32t-92 -27.5t-66 -21t-41.5 -14l-14 -5q-9 -3 -18 -3q-34 0 -47 34q-3 8 -3 16q0 36 34 49l16 6q16 5 47.5 15.5t76 24t105.5 31t131 36t158.5 39t183 40t208 40t230.5 38.5q263 293 410 439q16 16 39 16zM1857 1771l-15 -15h7z
M2458 1713q-286 -18 -547 -50q-320 -581 -649 -1266q-428 -898 -463 -1160l-2 -15q68 52 155 159q458 553 1506 2332zM589 1264q26 0 48.5 -15t22.5 -34q0 -18 -23 -32q-30 -18 -66 -57.5t-57 -69.5l-21 -31q-11 -23 -31 -23q-14 0 -25 12t-11 29q0 9 3 18q5 16 15.5 41
t44 77.5t69.5 75.5q14 9 31 9zM797 -792v-14q1 -2 2 -2l-1 6q-1 6 -1 10z" />
    <glyph glyph-name="swsh1" unicode="__&#x31;" horiz-adv-x="6033" 
d="M5770 1181q90 0 156 -21q49 -16 67 -69q18 -50 -10 -78q-26 -24 -79 -6q-56 21 -149 31t-159 10l-65 -1q-45 -7 -65.5 14.5t-6 50t56.5 38.5l8 2q7 1 20.5 4t31.5 6.5t41 6.5t47 6t52 4.5t54 1.5zM4656 1157q211 0 494 -5q21 0 35.5 -15t14.5 -35q0 -21 -15.5 -35.5
t-36.5 -14.5q-686 12 -1296.5 -9.5t-1062 -65t-845 -110.5t-657 -134t-484 -148t-341.5 -141t-214.5 -124t-116.5 -86t-36 -37q-14 -16 -34.5 -18t-36.5 11q-16 14 -17.5 34.5t12.5 36.5q0 3 28.5 31.5t106.5 82.5t195 119t315 141t444.5 148.5t605 140.5t775 119.5
t977.5 82.5t1190 31z" />
    <glyph glyph-name="swsh2" unicode="__&#x32;" horiz-adv-x="6054" 
d="M5326 1001q135 1 252 -17q241 -37 352 -157.5t76 -341.5q-4 -22 -20 -34.5t-37 -8.5q-20 4 -32 21t-8 36q49 324 -345 385q-72 11 -155.5 15.5t-188.5 -2t-196 -13t-226.5 -27.5t-229.5 -35.5t-256 -47t-254 -51t-276 -59.5t-269 -60t-283 -64q-893 -204 -1310 -279
q-901 -162 -1357 -94q-447 68 -554 356q-7 21 1 39.5t28 25.5q19 7 37.5 -2t26.5 -27q116 -313 752 -317q488 -3 1413 188q302 62 942 208q388 89 611.5 138t534 109.5t546 88t425.5 27.5z" />
    <glyph glyph-name="swsh3" unicode="__&#x33;" horiz-adv-x="5795" 
d="M5742 1181q22 0 36.5 -14t16.5 -36q0 -21 -15 -35.5t-35 -14.5q-1773 -14 -3081 -136q-532 -49 -952 -114t-768 -157t-501 -219.5t-72 -278.5q10 -18 4.5 -38t-23.5 -29q-20 -11 -39 -5t-30 24q-102 189 49.5 344.5t513.5 264t804.5 182.5t1004.5 126q471 44 1003 74
t976 42t695.5 16t412.5 4z" />
    <glyph glyph-name="swsh4" unicode="__&#x34;" horiz-adv-x="6432" 
d="M3611 1218q199 0 297 -39q134 -52 121 -163q-6 -81 -99 -183q-12 -10 -36 -34q198 46 407 80t474.5 55.5t522 18.5t544.5 -41t547 -113q20 -5 30.5 -24t3.5 -38q-6 -20 -24 -30t-38 -3q-289 83 -613.5 118.5t-605.5 30t-568 -39.5t-496 -77t-393 -95q-96 -61 -188 -100.5
t-148 -44.5q-35 0 -52 7q-73 39 -13 90q30 26 94 51q88 39 271 91q129 85 207 167q70 73 74 122q3 38 -60 62q-235 90 -1078 -65q-428 -78 -808.5 -172.5t-644.5 -180.5t-489.5 -178t-357 -160t-233 -131.5t-132 -87.5t-39.5 -33q-17 -14 -37.5 -13t-34.5 17
q-12 15 -11 36.5t16 33.5l1 1q115 100 360 230q666 353 1754 606q306 72 640 133q528 96 835 96z" />
    <glyph glyph-name="swsh5" unicode="__&#x35;" horiz-adv-x="6361" 
d="M4880 1010q1321 -2 1471 -426q8 -20 -0.5 -38.5t-27.5 -25.5t-38 1.5t-26 26.5q-72 202 -453 295t-926 83t-1201.5 -73t-1280 -161.5t-1160.5 -195.5t-844 -160t-330 -70q-20 -3 -37 8.5t-22 32.5q-4 20 7.5 37.5t30.5 22.5q1 0 36 7q145 31 285 59t505 97t695.5 125.5
t794 126t868 116.5t850 79.5t803.5 32.5z" />
    <glyph glyph-name="swsh6" unicode="__&#x36;" horiz-adv-x="4929" 
d="M3513 1215q55 0 167 -2q422 -12 705.5 -77.5t417.5 -168.5q130 -102 119 -227q-8 -117 -145 -230l-3 -2q-175 -140 -536.5 -247t-869.5 -150q-21 -2 -37 12t-17 36q-2 20 12 37t35 18q492 41 839.5 141.5t511.5 231.5l3 2q99 83 107 160q3 71 -81 139q-122 93 -390 152.5
t-673 71.5q-359 10 -756 -25.5t-723 -92t-678 -142.5t-576 -152t-463.5 -149t-294 -104t-111.5 -44q-20 -8 -39 0.5t-28 27.5q-7 20 1.5 39t27.5 28l14 5q79 31 161 62t310 107.5t448 140.5t543 142t627.5 132t670.5 91t701 37z" />
    <glyph glyph-name="swsh7" unicode="__&#x37;" horiz-adv-x="5943" 
d="M3411 1248q325 0 600 -47q360 -61 450 -201q79 -126 -57 -275q448 -7 837.5 -54.5t660.5 -136.5q20 -5 29 -24t2 -38q-5 -20 -23.5 -29.5t-38.5 -3.5q-280 93 -693 138.5t-886 47.5q-129 -95 -343 -198q-298 -140 -656 -234.5t-666 -109.5t-469 86q-73 51 -86 114
q-20 118 195 206q179 72 490 126q640 110 1499 110q32 28 48 41q116 113 71 181q-61 102 -381 156q-231 40 -509.5 44.5t-549.5 -19t-568.5 -70.5t-556.5 -103t-522.5 -123.5t-458.5 -124.5t-373.5 -114t-257 -84t-119.5 -42l-5 -2q-19 -7 -38 2t-26 29q-7 19 2 38t29 26
q7 3 110 39t303.5 99t449.5 135t564 146t629.5 134t663.5 97.5t650 37.5zM4109 625q-751 -11 -1332 -110q-301 -50 -471 -119q-139 -55 -136 -96q3 -20 45 -48q146 -91 436 -72.5t629 111.5t626 226q105 51 203 108z" />
    <glyph glyph-name="swsh8" unicode="__&#x38;" horiz-adv-x="5026" 
d="M3881 1037q663 0 1102 -130q21 -5 31 -23.5t5 -38.5q-7 -20 -25 -30.5t-37 -5.5q-248 74 -570.5 104t-646 22.5t-699.5 -46.5t-697 -89t-674 -121t-595 -126.5t-495.5 -121t-340.5 -90t-163 -46.5l-7 -2q-19 -7 -38 3t-24 30t4.5 38.5t28.5 23.5l5 1q701 206 1534 374
q1343 272 2302 274zM3428 797q185 0 333 -19q21 -4 33.5 -20t11.5 -37q-4 -20 -20 -32.5t-37 -10.5q-133 17 -303.5 18t-346 -12.5t-359.5 -35t-358.5 -50t-327.5 -55.5t-282.5 -54t-208 -44t-117.5 -26l-17 -4q-20 -5 -37.5 5.5t-21.5 30.5q-5 21 5.5 39t32.5 23l8 2
q649 150 1262 227q432 55 750 55z" />
    <glyph glyph-name="swsh9" unicode="__&#x39;" horiz-adv-x="5428" 
d="M3803 1229q522 1 800 -88q194 -62 231 -167q38 -116 -122 -225q-236 -163 -887 -294q586 -70 1558 -258q21 -3 32.5 -20t8.5 -39q-4 -21 -21.5 -32.5t-38.5 -6.5q-1263 245 -1903 292q-107 -15 -261 -36q-112 -13 -160 5q-43 17 -43 62q5 34 36 55q54 32 152 29h12
q91 0 259 -12q461 71 762.5 159t436.5 180q98 65 84 110q-18 55 -167 102q-165 53 -431.5 73.5t-669 0.5t-869.5 -88q-1467 -211 -1944 -501q-192 -117 -195 -228q-1 -36 13 -52q11 -18 6 -38.5t-23 -33.5q-16 -11 -36 -6t-33 23l-12 27q-35 105 59 221q213 265 1012 471
q474 122 1139 217q675 98 1215 98z" />
    <glyph glyph-name="swsh10" unicode="__&#x31;&#x30;" horiz-adv-x="5529" 
d="M3571 805q1036 0 1908 -53q21 -2 35 -18t12 -37q-1 -20 -16.5 -34t-35.5 -12q-1169 71 -2598 46q-1208 -20 -2821 -120q-20 -2 -35.5 12t-16.5 34q-2 21 12 37t35 18q1641 100 2824 121q353 6 697 6z" />
    <glyph glyph-name="ya" unicode="ya" horiz-adv-x="2177" 
d="M1743 907q17 0 29 -8q16 -11 20 -31t-6 -38q-55 -112 -165 -363t-195 -483q-89 -249 -115 -396q-27 -138 -2 -148q68 -14 320 251q130 135 289.5 332.5t248 316t116.5 159.5q10 18 30.5 22t38.5 -8q18 -10 22 -30.5t-8 -38.5q-20 -32 -116 -161t-256 -326t-291 -335
q-292 -306 -413 -283q-5 1 -19 7q-99 40 -60 259q31 162 122 412q51 142 140 360q-334 -459 -420 -489q-45 -15 -81 9q-43 34 -43 113q0 50 24 144q1 5 5.5 19.5t6.5 23.5q-318 -230 -575 -611q-103 -279 -172 -444q-101 -242 -157 -316q-77 -96 -106 -79t-11 136
q13 83 67 211q105 266 286 537q57 156 88 245q84 239 203 563q-53 -64 -112 -127q-316 -341 -415 -247q-34 30 -38.5 99t26.5 184q50 179 195 441q9 18 29 24t38 -5q19 -9 25 -29t-3 -38q-139 -255 -189 -422q-44 -153 -14 -180q24 -24 272 243q102 109 286 333l22 28
q14 16 34.5 18t36.5 -10q14 -11 18 -28.5t-3 -31.5q-116 -288 -296 -794q239 285 525 461q60 135 139.5 248t165.5 169q46 29 103.5 33.5t98 -4t97.5 -27.5q18 26 37.5 55t27.5 41t9 12q13 22 40 22zM1460 709q-44 0 -75 -21q-76 -49 -148 -153t-124 -228q-1 -1 -2 -4.5
t-3 -4.5q-35 -81 -59 -170q-15 -60 -19 -118v-21q56 30 214.5 242.5t324.5 456.5v1v-1q-67 21 -109 21z" />
    <glyph glyph-name="ga" unicode="ga" horiz-adv-x="2136" 
d="M1702 907q17 0 29 -8q18 -10 22 -30.5t-8 -38.5q-55 -112 -165 -363t-195 -483q-89 -249 -115 -396q-27 -138 -2 -148q68 -13 320 251q129 135 289 332t249 316.5t116 159.5q10 18 30.5 22t38.5 -8q18 -10 21.5 -30.5t-7.5 -38.5q-22 -34 -117 -161.5t-255 -325
t-291 -335.5q-293 -306 -413 -283q-12 3 -19 7q-99 40 -60 259q31 162 122 412q56 157 141 360q-140 -195 -256 -333.5t-164 -155.5q-47 -15 -82 9q-43 34 -43 113q0 50 24 144q6 25 31 101q-284 -154 -542 -461l-12 -26q-252 -580 -353 -793q-104 -224 -167 -290
q-77 -79 -106.5 -56t-12.5 137q14 91 83 264q75 189 198.5 405t281.5 410q155 357 232 527q-340 -362 -432 -393q-75 -27 -122 31q-27 30 -34.5 86t5.5 120q31 142 115 247q43 54 96.5 93t122 63.5t154.5 24t181 -29.5l52 62q15 15 35 16t37 -13q27 -26 12 -58
q-96 -208 -246 -553q227 216 480 326q58 124 133 225.5t155 155.5q46 29 103.5 33.5t98 -4t97.5 -27.5l74 108q12 22 40 22zM1419 709q-44 0 -75 -21q-71 -45 -138.5 -139.5t-119.5 -209.5q-4 -6 -4 -10q-47 -97 -74 -201q-17 -68 -17 -118v-21q95 51 537 699v1v-1
q-67 21 -109 21zM452 541q-184 0 -296 -140q-75 -96 -93 -204q-19 -92 4 -125h12q89 35 475 458q-50 11 -102 11zM91 -663q-97 -176 -165 -343q-25 -66 -26 -70q8 16 45 94t146 319z" />
    <glyph glyph-name="ja" unicode="ja" horiz-adv-x="1639" 
d="M313 1441q22 0 40.5 -10.5t22.5 -27.5q8 -36 -4.5 -93t-29.5 -96l-16 -39q-12 -20 -33.5 -21t-33.5 15t-2 37q1 5 3 14t6.5 34t7 47.5t2.5 49.5t-5 45q-6 22 7 33.5t35 11.5zM1209 907q15 0 26 -8q18 -10 23 -30.5t-6 -38.5q-59 -119 -167.5 -367t-192.5 -479
q-89 -242 -117 -396q-24 -139 -3 -148q70 -13 320 251q130 136 289 331.5t250 318t115 158.5q11 18 32.5 22t37.5 -8q18 -11 22 -31t-8 -38q-22 -35 -116 -161.5t-255 -324.5t-293 -336q-287 -306 -413 -283q-3 1 -9 3.5t-10 3.5q-101 42 -57 259q26 156 119 412
q56 157 141 360q-328 -458 -418 -489q-49 -15 -81 9q-43 31 -43 113q0 63 22 144q11 32 21 72q-245 -127 -527 -429q-39 -84 -172 -345q-155 -290 -285.5 -477t-206.5 -204q-38 -10 -64 17q-7 10 -10 16q-19 46 22 142q39 90 112 215q97 160 232.5 342.5t285.5 345.5
q127 265 218 492t104 309q4 19 20.5 32t36.5 11q22 -4 34.5 -20.5t8.5 -36.5q-17 -129 -217 -581q253 226 461 305q60 133 139.5 245.5t163.5 169.5q46 29 104 33.5t99 -4t98 -27.5l71 108q16 22 43 22zM924 709q-44 0 -75 -21q-76 -49 -148 -154t-124 -229q-2 -3 -3 -6
t-2 -4q-42 -106 -57 -167q-19 -76 -19 -118v-21q90 49 539 699v1v-1q-71 21 -111 21zM-380 -556q-136 -182 -227 -335q-57 -101 -98 -182q107 116 325 517z" />
    <glyph glyph-name="Gl" unicode="Gl" horiz-adv-x="3427" 
d="M1383 -1475q62 0 145 74.5t168 226.5q189 336 420 849q14 30 37 84.5t31 71.5q1046 1381 1588 1949q-178 -324 -377 -759.5t-353.5 -874.5t-154.5 -637q0 -78 29 -122.5t80 -44.5q21 0 34.5 16t13.5 36q0 18 -12 31t-31 17q-4 0 -7.5 9t-6 25t-2.5 34q0 105 59.5 318
t166.5 492q183 484 425.5 999.5t360.5 682.5q10 8 26 22t28.5 25t22.5 19q20 15 20 40q0 17 -10 31q-16 18 -39 18q-18 0 -32 -11q-450 -359 -1678 -1952q80 196 109 298q2 10 2 15q0 20 -14 35t-35 15q-17 0 -31 -11q-92 -77 -248 -182.5t-365.5 -223.5t-422 -217.5
t-431.5 -165t-379 -65.5q-217 0 -318 120q-100 134 -100 318q0 174 86.5 387t233 427.5t344 438t416.5 422.5t454 376t452 304.5t414.5 202t339.5 74.5q295 0 295 -336q0 -276 -198 -757q-139 -178 -251.5 -403.5t-125.5 -313.5q-7 -41 -7 -73q0 -52 23 -52q29 0 97 87
q45 55 155 274.5t197 433.5q112 135 205 201q22 12 22 41q0 21 -15 35t-35 14q-9 0 -18 -3t-18.5 -10t-15.5 -12t-17.5 -15.5t-15.5 -14.5q117 350 117 575q0 219 -104 324.5t-283 105.5q-213 0 -518.5 -138t-640 -376.5t-657.5 -544.5q-219 -209 -402 -425.5t-325 -434.5
t-221.5 -431t-79.5 -391q0 -222 119 -371q129 -157 396 -157q155 0 358 55t397.5 139.5t394 191.5t353.5 204t272 183q-78 -209 -198 -486q-500 -665 -684 -925q-133 -183 -133 -309q0 -57 30.5 -89.5t72.5 -32.5zM1385 -1376l-3 1q-3 11 -3 22q0 91 114 252l413 564
q-179 -382 -297 -590q-47 -84 -97 -144t-81 -82.5t-46 -22.5z" />
    <glyph glyph-name=".notdef" horiz-adv-x="1024" 
 />
    <glyph glyph-name=".null" horiz-adv-x="0" 
 />
    <glyph glyph-name=".null" horiz-adv-x="0" 
 />
    <glyph glyph-name="nonmarkingreturn" horiz-adv-x="508" 
 />
    <glyph glyph-name="space" unicode=" " horiz-adv-x="695" 
 />
    <glyph glyph-name="space" unicode="&#xa0;" horiz-adv-x="695" 
 />
    <glyph glyph-name="exclam" unicode="!" horiz-adv-x="716" 
d="M499 2306q20 -1 34 -11.5t15 -25.5v-2q0 -33 -22.5 -322t-54.5 -679t-64 -775t-54.5 -653t-22.5 -269q-1 -15 -15.5 -24.5t-33.5 -9.5h-3q-21 1 -34.5 12.5t-13.5 26.5v2q0 1 22.5 268.5t54.5 651.5t64 772.5t54.5 677t22.5 320.5v5q0 14 14 24.5t33 10.5h4zM259 -665
q26 0 43 -25t17 -61v-5q-4 -36 -24.5 -62.5t-46.5 -26.5q-25 0 -42.5 24t-17.5 58v7q2 38 22.5 64.5t48.5 26.5z" />
    <glyph glyph-name="quotedbl" unicode="&#x22;" horiz-adv-x="780" 
d="M352 1208q10 0 22 -5q29 -14 29 -45q0 -10 -5 -23l-110 -230q-14 -29 -47 -29q-10 0 -22 5q-27 14 -27 45q0 10 5 22l110 231q13 29 45 29zM557 1208q10 0 22 -5q29 -14 29 -45q0 -10 -5 -23l-110 -230q-15 -29 -47 -29q-10 0 -22 5q-28 13 -28 45q0 12 6 22l110 231
q14 29 45 29z" />
    <glyph glyph-name="numbersign" unicode="#" horiz-adv-x="2134" 
d="M1164 1937q8 0 17 -3q34 -10 34 -46q0 -8 -3 -17l-260 -784h420q232 682 236 700q1 18 15 30t33 12q6 0 9 -1q18 -3 30 -16.5t12 -31.5q0 -6 -1 -9q-3 -28 -229 -684h439q22 0 37.5 -15t15.5 -37q0 -20 -15.5 -35.5t-37.5 -15.5h-475q-71 -208 -191 -551h513
q20 0 35 -15.5t15 -37.5q0 -20 -15 -35t-35 -15h-549q-207 -589 -207 -597q-14 -34 -48 -34q-8 0 -17 3q-34 13 -34 48q0 8 3 17q0 1 23 66.5t77 221t96 275.5h-408l-387 -1160q-13 -34 -46 -34q-9 0 -18 3q-16 4 -25.5 17t-9.5 29q0 9 3 16l378 1129h-358q-21 0 -36 15
t-15 35q0 22 14.5 37.5t36.5 15.5h391l184 551h-408q-21 0 -36 15t-15 36q0 22 14.5 37t36.5 15h441l272 816q14 34 48 34zM918 984l-186 -551h411q27 77 92.5 265t100.5 286h-418z" />
    <glyph glyph-name="dollar" unicode="$" horiz-adv-x="2383" 
d="M2176 2574q8 0 17 -3q36 -11 36 -47q0 -8 -3 -17l-36 -106q58 16 103 19q27 3 52 3q39 0 67 -8h5q41 -11 72 -28q107 -60 126 -216q3 -32 3 -65q0 -110 -32 -235q-45 -194 -141.5 -413.5t-189.5 -377.5q-13 -26 -42 -26q-14 0 -25 7q-26 15 -26 46q0 13 6 24
q89 154 183 365.5t137 396.5q30 123 30 214q0 27 -3 52q-13 106 -77 139q-13 10 -45 19h-2q-25 5 -51 5q-11 0 -35 -2q-71 -8 -153 -36l-817 -2465q112 -24 184 -33q157 -22 194 -101q14 -27 14 -58q0 -44 -29 -93q-38 -63 -129 -127q-166 -125 -432 -187l-112 -340
q-13 -37 -47 -37q-8 0 -17 3q-34 13 -34 48q0 8 3 17l95 285q-99 -15 -205 -15q-124 0 -244 22q-18 3 -29.5 17.5t-11.5 32.5q0 7 1 10q3 18 17 30t33 12q6 0 9 -1q102 -22 220 -22q120 0 246 24l145 444q-320 96 -587 259q-185 115 -299.5 246t-129.5 264q-2 22 -2 34
q0 45 14 101q33 142 163.5 330t314.5 377t407 374q257 213 517 379.5t467 245.5l59 180q13 34 46 34zM2030 2233q-189 -82 -419 -233.5t-459 -341.5q-333 -276 -569.5 -554t-283.5 -474q-10 -40 -10 -78q0 -4 0.5 -11t0.5 -10q12 -108 114.5 -220.5t267.5 -215.5
q263 -163 568 -249zM1305 -276l-130 -391q199 55 335 156q70 49 100 98q15 23 15 40q0 7 -3 13q-17 32 -115 45q-72 8 -202 39z" />
    <glyph glyph-name="percent" unicode="%" horiz-adv-x="1634" 
d="M1414 2288h12v-2h9l3 -2h4v-3h3l2 -2q5 -5 7 -5v-2h3q0 -2 1 -3t1 -2h3q0 -5 2 -5q5 -18 5 -19v-22h-3v-2l-1176 -3229q-14 -34 -48 -34q-8 0 -17 3q-34 13 -34 48q0 8 3 17l1122 3080q-639 -459 -793 -588q-72 -61 -72 -74l1 -1v-1q22 15 40 22q8 4 20 4q34 0 45 -31
q1 -1 2 -6t3 -8q101 -40 150 -156q23 -60 26 -118q0 -71 -19 -119q-64 -161 -243 -161q-50 0 -91 24q-66 36 -86 127q-4 24 -4 57q0 48 11 101q22 97 74 180q-9 18 -9 38q0 168 521 550q197 145 498 335q2 0 3 1t2 1q11 5 19 7zM488 1334q-59 -70 -81 -179q-11 -47 -11 -83
q0 -18 3 -35q8 -43 34 -57q15 -10 43 -10q58 0 95.5 26t52.5 68q14 36 14 79q-2 34 -19 84q-19 44 -53 73t-78 34zM886 -272q17 0 30.5 -10t17.5 -26h2q103 -34 151 -129q26 -50 26 -101v-12q0 -44 -19 -88q-29 -59 -90 -94.5t-151 -35.5q-97 0 -146 60q-31 40 -36 110
q0 55 22 115q28 85 95 154q14 30 41 33q19 13 43 22q10 2 14 2zM863 -396q-45 -41 -75 -120q-16 -39 -16 -79q0 -34 14 -51q21 -21 67 -21q58 0 96.5 20t53.5 52q10 23 10 46v9q0 27 -14 57q-42 80 -136 87z" />
    <glyph glyph-name="ampersand" unicode="&#x26;" horiz-adv-x="2432" 
d="M1912 2495q8 0 16 -3q16 -4 26 -18t10 -30q0 -6 -2 -14l-120 -372q175 0 316 -67q28 -12 28 -44q0 -13 -5 -23q-15 -29 -45 -29q-10 0 -22 5q-121 57 -258 57q-15 0 -45 -2l-169 -532q95 -12 286 -12h3q19 0 33 -14t14 -34q0 -38 -33 -50q-178 -63 -406 -211l-494 -1558
q183 68 349 158q333 179 532 398q172 191 172 352q0 32 -5 53q-47 211 -442 328q-36 14 -36 48q0 8 3 17q4 16 18 26t31 10q5 0 13 -2q453 -140 511 -403q9 -39 9 -79q0 -196 -200 -417q-202 -229 -559 -420q-222 -120 -434 -187l-184 -580q-13 -35 -50 -35q-4 0 -14 2
q-34 11 -34 47q0 8 3 17l164 518q-171 -42 -309 -42q-230 0 -335 114q-34 37 -53 86q-17 49 -17 103q0 179 165 437q189 294 540 621q270 253 570 453l58 177q-190 42 -273 125q-62 66 -62 149q0 42 17 88q46 114 179 204q162 111 363 139l131 412q10 34 46 34zM1699 1941
q-158 -35 -270 -115q-108 -75 -140 -158q-12 -26 -12 -51q0 -44 35 -76q66 -71 230 -101zM1611 1327l-24 -77q72 42 119 68q-68 4 -95 9zM1405 1011q-233 -168 -453 -372q-339 -314 -523 -601q-150 -231 -150 -376q0 -40 12 -73q13 -35 31 -52q79 -88 262 -88q149 0 342 56z
" />
    <glyph glyph-name="quotesingle" unicode="'" horiz-adv-x="574" 
d="M352 1208q10 0 22 -5q29 -14 29 -45q0 -10 -5 -23l-110 -230q-14 -29 -47 -29q-10 0 -22 5q-27 14 -27 45q0 10 5 22l110 231q13 29 45 29z" />
    <glyph glyph-name="parenleft" unicode="(" horiz-adv-x="828" 
d="M1171 2540q15 0 26 -7q22 -17 22 -45q0 -16 -7 -27q-229 -345 -436 -879t-323 -1096q-114 -543 -114 -997q0 -427 102 -724q3 -9 3 -17q0 -35 -34 -48q-9 -3 -17 -3q-34 0 -48 34q-107 315 -107 756q0 458 114 1020q121 572 331 1115.5t443 896.5q16 21 45 21z" />
    <glyph glyph-name="parenright" unicode=")" horiz-adv-x="956" 
d="M599 2541q15 0 28.5 -9.5t18.5 -24.5q107 -311 107 -757q0 -466 -114 -1020q-118 -569 -329 -1112t-444 -899q-17 -22 -45 -22q-14 0 -27 8q-22 17 -22 45q0 14 8 27q229 345 435.5 879t323.5 1096q114 543 114 997q0 427 -102 724q-3 9 -3 17q0 34 34 48q8 3 17 3z" />
    <glyph glyph-name="asterisk" unicode="*" horiz-adv-x="785" 
d="M403 1615q21 0 36.5 -14.5t15.5 -33.5q1 -2 1 -17q0 -7 -0.5 -37.5t-0.5 -53.5l29 34q14 17 37 17q19 0 32 -13q18 -15 18 -39q0 -19 -13 -33l-34 -38h46q21 0 35.5 -14t14.5 -36t-14.5 -36.5t-35.5 -14.5h-65l53 -62q14 -16 14 -35q0 -22 -17 -37q-14 -13 -33 -13
q-23 0 -38 18l-36 41l-3 -87q0 -20 -15.5 -35t-36.5 -15q-20 2 -34 16t-14 34v75l-45 -53q-14 -17 -37 -17q-20 0 -35 12q-15 15 -15 37q0 21 13 35l71 84h-62q-20 0 -35 14.5t-15 35.5q0 22 15.5 36.5t37.5 14.5h45q-8 10 -17 20.5t-13.5 16.5t-5.5 8q-10 17 -10 31
q0 25 22 39q14 10 30 10q26 0 39 -22q3 -3 10.5 -12.5t13.5 -16.5q3 55 3 101q0 22 14 37.5t34 17.5z" />
    <glyph glyph-name="plus" unicode="+" horiz-adv-x="1059" 
d="M543 747q22 0 36 -14t14 -36l-2 -321h253q20 0 35 -15.5t15 -35.5q0 -22 -15 -37.5t-35 -15.5h-255l-3 -321q0 -21 -15.5 -35.5t-36.5 -14.5q-20 0 -35 15t-15 35l4 321h-253q-21 0 -35.5 15.5t-14.5 37.5q0 21 14.5 36t35.5 15h253l5 321q0 22 14.5 36t35.5 14z" />
    <glyph glyph-name="comma" unicode="," horiz-adv-x="649" 
d="M236 -213q7 0 11 -1q17 -3 28.5 -16t11.5 -29q0 -5 -2 -13q-15 -94 -52 -165q-58 -110 -165 -149q-10 -2 -15 -2q-38 0 -49 33q-3 9 -3 17q0 16 9.5 29.5t24.5 18.5q70 25 107 101q31 56 46 137q3 16 16 27.5t30 11.5h2z" />
    <glyph glyph-name="hyphen" unicode="-" horiz-adv-x="940" 
d="M235 376h490q20 0 35 -15.5t15 -35.5q0 -22 -15 -37.5t-35 -15.5h-490q-20 0 -35 15.5t-15 37.5q0 20 15 35.5t35 15.5z" />
    <glyph glyph-name="hyphen" unicode="&#xad;" horiz-adv-x="940" 
d="M235 376h490q20 0 35 -15.5t15 -35.5q0 -22 -15 -37.5t-35 -15.5h-490q-20 0 -35 15.5t-15 37.5q0 20 15 35.5t35 15.5z" />
    <glyph glyph-name="period" unicode="." horiz-adv-x="496" 
d="M137 -241q27 0 45 -24t18 -57q0 -2 -0.5 -6t-0.5 -6q-1 -39 -23 -66t-51 -27q-27 0 -45 23t-18 58q0 2 0.5 6t0.5 6q2 38 24 65.5t50 27.5z" />
    <glyph glyph-name="slash" unicode="/" horiz-adv-x="828" 
d="M1185 2263q8 0 17 -3q32 -13 32 -49q0 -9 -3 -18l-1170 -3153q-13 -32 -48 -32q-7 0 -19 4q-32 12 -32 48q0 8 3 16l1173 3153q5 15 18.5 24.5t28.5 9.5z" />
    <glyph glyph-name="zero" unicode="0" horiz-adv-x="1482" 
d="M1144 2006q12 0 36 -2q132 -14 203.5 -123.5t86.5 -294.5q4 -41 4 -96q0 -180 -47 -410q-53 -269 -170 -564q-78 -196 -174.5 -365.5t-208 -303.5t-237.5 -210.5t-249 -76.5q-34 0 -68 6q-138 24 -213.5 132t-92.5 283q-5 45 -5 112q0 178 46 375q50 249 174 545
q67 159 148 304.5t174.5 271.5t190 218.5t200.5 145.5t202 53zM1143 1905h-1q-104 0 -219 -76t-221.5 -206.5t-203.5 -296.5t-178 -354q-115 -281 -167 -525q-43 -202 -43 -355q0 -61 5 -101q12 -139 68 -224.5t156 -102.5q28 -5 52 -5q105 0 215 72.5t209 198.5t187 284
t162 341q112 283 165 547q43 213 43 390q0 45 -3 87q-11 144 -60 229t-138 95q-18 2 -28 2z" />
    <glyph glyph-name="one" unicode="1" horiz-adv-x="956" 
d="M880 2186q11 0 19 -4q29 -14 29 -46q0 -10 -5 -22q-124 -272 -367.5 -861.5t-413.5 -1053.5q-236 -635 -236 -704q0 -7 2 -8q28 -12 28 -44q0 -14 -5 -24q-15 -29 -46 -29q-10 0 -20 5q-30 15 -30 83q0 184 211 757q219 592 543 1356q-225 -296 -328 -317q-1 0 -4 -0.5
t-5 -0.5q-18 0 -33 11t-18 29q0 1 -0.5 4t-0.5 5q0 19 11 33.5t29 17.5q45 9 121 91t151.5 189.5t149 223t117.5 190.5t53 93q18 26 48 26z" />
    <glyph glyph-name="two" unicode="2" horiz-adv-x="1886" 
d="M1304 2186q279 0 389 -204q3 -5 21 -43q22 -60 22 -139q0 -206 -141.5 -501t-377.5 -617q-187 -258 -406.5 -496t-424.5 -407q85 8 166 8q346 0 634 -140q29 -14 29 -44q0 -10 -5 -23q-14 -29 -46 -29q-9 0 -21 5q-270 131 -598 131q-159 0 -324 -32q-73 -48 -117 -72
q-56 -30 -115 -53q-139 -51 -191 -51q-100 0 -100 37q0 32 76 88q45 32 160 77q125 45 246 70q219 152 476.5 419.5t479.5 571.5q227 311 364 589t137 462q0 63 -18 113q-3 4 -8 13.5t-7 14.5q-80 151 -302 151q-112 0 -243 -38q-164 -49 -332.5 -145.5t-305.5 -221.5
q-142 -128 -229 -268.5t-96 -273.5q-1 -10 -1 -29q0 -274 355 -451q27 -14 27 -45q0 -10 -5 -22q-14 -29 -47 -29q-10 0 -20 5q-411 205 -411 536q0 14 2 42q10 154 105.5 311t252.5 301q146 132 325 234t354 152q146 43 271 43z" />
    <glyph glyph-name="three" unicode="3" horiz-adv-x="1707" 
d="M1508 2170q204 0 297 -113q21 -28 35 -63q18 -46 18 -104q0 -220 -249 -563q-133 -185 -319.5 -376t-388.5 -356q-195 -159 -370 -264h28q318 0 440 -93q77 -62 77 -150q0 -50 -26 -107q-58 -119 -223 -245q-138 -101 -304 -166t-307 -65q-109 0 -184 42q-26 15 -26 45
q0 14 6 24q16 26 45 26q14 0 25 -7q58 -32 142 -32q120 0 269 60.5t275 154.5q143 109 188 206q17 32 17 62q0 43 -36 70q-95 76 -376 76q-119 0 -262 -13q-4 -1 -11 -1q-34 0 -44 32q-3 9 -3 18q0 34 32 47q241 95 564 357q197 160 378.5 347t311.5 368q231 317 231 497
q0 42 -13 74q-5 12 -19 36q-64 78 -215 78q-119 0 -274.5 -47.5t-318.5 -130.5q-330 -169 -538 -392q-199 -216 -199 -384q0 -18 3 -38q28 -197 364 -312q16 -5 25.5 -19.5t9.5 -31.5q0 -4 -2 -14q-5 -15 -18.5 -24.5t-29.5 -9.5q-9 0 -16 3q-204 68 -310 169t-123 225
q-4 23 -4 52q0 208 226 454q221 232 567 413q359 183 635 185z" />
    <glyph glyph-name="four" unicode="4" horiz-adv-x="2064" 
d="M2008 2186q12 0 21 -4q29 -14 29 -48q0 -10 -3 -20q-98 -210 -304.5 -706t-379.5 -947q143 -17 270 -38q18 -3 30 -16.5t12 -32.5q0 -6 -1 -9q-3 -17 -17.5 -29.5t-31.5 -12.5q-5 0 -8 1q-78 13 -289 41q-8 -20 -21 -53.5t-23 -60.5t-19 -52q-233 -638 -233 -704
q0 -6 2 -8q29 -14 29 -45q0 -10 -5 -23q-14 -29 -47 -29q-10 0 -20 5q-30 15 -30 83q0 184 211 757l50 142q-230 23 -422 23q-264 0 -447 -42q-183 -163 -232 -173q-16 -4 -34 -4q-35 0 -59 21q-26 20 -26 51t26 64q33 42 112 79q82 36 179 58q80 74 187.5 180t221.5 223
t238 246.5t243 255.5t231 245.5t206 221.5l164.5 178.5t111.5 121.5l41 44q15 16 37 16zM1840 1879q-896 -966 -1346 -1396q142 16 315 16q221 0 460 -26q236 625 571 1406z" />
    <glyph glyph-name="five" unicode="5" horiz-adv-x="1491" 
d="M545 2039q9 0 14 -1q36 -14 36 -49q0 -9 -3 -16l-20 -62l1201 100h5q19 0 33.5 -13.5t16.5 -31.5v-4q0 -20 -13 -35t-33 -17l-1243 -103l-470 -1447q223 41 384 41q208 0 309 -65q101 -63 101 -171q0 -35 -8 -64q-28 -122 -160 -254l-2 -3q-143 -137 -350.5 -229.5
t-415.5 -92.5q-95 0 -178 20q-17 3 -28 17.5t-11 32.5q0 7 1 10q10 40 49 40q3 0 13 -2q77 -18 156 -18q187 0 374.5 85t317.5 212l2 2q112 105 134 202q4 16 4 35q0 61 -54 92q-83 52 -255 52q-182 0 -448 -57q-3 -1 -10 -1q-18 0 -32 11.5t-17 30.5q-2 8 -2 12q0 6 2 12
l485 1488l-234 -20h-4q-21 0 -35.5 12.5t-15.5 33.5v5q0 20 13.5 34t31.5 16l278 23l33 102q10 35 48 35z" />
    <glyph glyph-name="six" unicode="6" horiz-adv-x="1338" 
d="M1221 2012q62 -1 119 -25q68 -28 113 -103q37 -71 40 -173v-21q0 -235 -167 -624q-14 -29 -45 -29q-10 0 -22 5q-31 11 -31 44q0 10 5 20q160 370 160 584v19q-3 80 -29 127q-26 43 -64 60q-36 14 -93 14q-207 -7 -455 -217.5t-458 -533.5q-174 -263 -282 -556
q-98 -280 -98 -498v-28q11 -279 189 -408q115 265 274 514q149 228 280 345q140 125 259 125q29 0 54 -7q37 -8 69 -29q69 -45 69 -150q0 -98 -59 -234q-49 -111 -131 -230q-83 -120 -180 -216l-2 -5q-121 -121 -247.5 -192.5t-244.5 -71.5q-46 0 -91 12q-24 -59 -46 -135
q-4 -18 -17.5 -29t-29.5 -11q-4 0 -12 2q-19 4 -30 18t-11 31q0 5 2 13q13 51 53 154q-237 158 -248 502v30q0 244 105 534q100 281 289 575q222 342 492.5 565t503.5 232q3 0 8.5 0.5t8.5 0.5zM915 551q-81 0 -191 -97q-130 -121 -263 -327q-157 -246 -268 -501
q27 -6 55 -6q96 0 204 63.5t212 170.5l3 2q86 87 167 204q69 99 122 214q54 122 54 193q0 48 -26 64q-15 12 -38 16q-13 4 -31 4z" />
    <glyph glyph-name="seven" unicode="7" horiz-adv-x="1325" 
d="M1484 1982q32 0 48 -31q4 -12 4 -18q0 -34 -30 -47q-106 -46 -236 -183.5t-261 -334t-254.5 -414t-240.5 -455.5q-188 -384 -306 -698q-95 -253 -95 -319v-7q12 -13 12 -32q0 -14 -5 -24q-14 -29 -45 -29q-10 0 -22 5q-20 11 -31 34q-6 15 -6 41q0 107 97 367
q134 351 310 706q137 279 280.5 527t308 471.5t303.5 340.5q-1042 -9 -1186 -39q-3 -1 -9 -1q-18 0 -32.5 12.5t-17.5 29.5q-1 3 -1 10q0 19 11 33t30 17q87 17 463 26.5t577.5 10.5t333.5 1z" />
    <glyph glyph-name="eight" unicode="8" horiz-adv-x="1427" 
d="M1267 2340q16 0 29 -10q21 -15 21 -41q0 -17 -10 -28l-121 -180q45 5 81 5q122 0 205 -46l12 -7q80 -46 80 -148q0 -125 -123 -337q-110 -186 -308 -434q107 -119 115 -303v-24q0 -198 -105 -424q-71 -153 -172 -286q-166 -226 -395 -369.5t-435 -170.5q-43 -5 -75 -5
q-96 0 -173 34q-117 52 -156 173q-16 54 -16 115q0 219 184 537q65 113 164.5 265.5t182.5 272.5t231 331q-158 34 -215 62q-80 44 -80 108q0 33 20 70l7 14q66 113 221 235t341 209q136 63 268 99q36 51 179 261q16 22 43 22zM1262 1986q-74 0 -155 -18
q-108 -157 -402 -569l-50 -69q208 -46 323 -101q57 -31 81 -48q193 244 294 417q113 193 113 282q0 47 -32 66l-7 5q-69 35 -165 35zM951 1922q-41 -15 -131 -55q-174 -82 -317 -193t-199 -210l-7 -12q-3 -6 -3 -12q0 -15 22 -26q47 -28 232 -63l76 106q207 293 327 465z
M593 1238q-438 -616 -600 -897q-173 -296 -173 -482q0 -47 13 -89q24 -77 100 -113q57 -23 130 -23q35 0 66 4q187 24 397 157t363 342q98 126 163 269q95 206 95 380v23q-6 137 -79 225q-42 -54 -83 -100q-13 -18 -36 -18q-19 0 -33 13q-18 17 -18 40q0 18 10 32
q24 25 86 101q-8 7 -59 36q-110 50 -342 100z" />
    <glyph glyph-name="nine" unicode="9" horiz-adv-x="1351" 
d="M1052 2009q42 0 77 -7q135 -27 218 -137q99 -134 99 -374q0 -158 -47 -361q-12 -64 -40 -153v-3q-77 -239 -212.5 -481.5t-304.5 -444.5q-194 -230 -400 -369.5t-388 -146.5h-16q-70 0 -118 24q-72 28 -115 103q-39 74 -43 176v16q0 235 168 627q12 30 47 30q8 0 20 -4
q29 -14 29 -49q0 -9 -3 -18q-160 -372 -160 -588v-12q3 -74 31 -130q29 -44 64 -60q42 -14 94 -14q159 5 345.5 134.5t366.5 345.5q235 279 389 617q-130 -125 -265.5 -199t-262.5 -94q-56 -7 -93 -7q-97 0 -175 33q-122 51 -184 173q-49 96 -49 231q0 166 76 367
q103 274 283.5 468.5t375.5 267.5q99 39 193 39zM1054 1908q-78 0 -161 -34q-175 -66 -339 -244.5t-259 -431.5q-71 -187 -71 -332q0 -105 38 -184q46 -88 134 -125q62 -27 133 -27q36 0 79 8q160 24 333.5 145.5t321.5 329.5q24 68 38 139q45 190 45 340q0 203 -81 313
q-58 79 -155 98q-23 5 -56 5z" />
    <glyph glyph-name="colon" unicode=":" horiz-adv-x="576" 
d="M295 181q28 0 46.5 -25t18.5 -63v-5q-4 -38 -25.5 -64.5t-48.5 -26.5q-28 0 -46.5 25t-18.5 61v5q4 40 25 66.5t49 26.5zM212 -212q28 0 46.5 -25t18.5 -63v-5q-4 -38 -25.5 -64.5t-48.5 -26.5q-28 0 -46.5 25t-18.5 61v5q4 40 25 66.5t49 26.5z" />
    <glyph glyph-name="semicolon" unicode=";" horiz-adv-x="701" 
d="M336 181q28 0 46.5 -25t18.5 -63v-5q-4 -38 -25.5 -64.5t-48.5 -26.5q-28 0 -46.5 25t-18.5 61v5q4 40 25 66.5t49 26.5zM251 -213q8 0 11 -1q19 -3 30.5 -17t11.5 -32q0 -6 -1 -9q-15 -94 -52 -165q-60 -110 -165 -149q-10 -2 -15 -2q-37 0 -50 33q-3 9 -3 17
q0 16 9.5 29.5t24.5 18.5q70 26 108 101q31 56 45 137q3 16 15.5 27.5t28.5 11.5h2z" />
    <glyph glyph-name="semicolon" unicode="&#x37e;" horiz-adv-x="701" 
d="M336 181q28 0 46.5 -25t18.5 -63v-5q-4 -38 -25.5 -64.5t-48.5 -26.5q-28 0 -46.5 25t-18.5 61v5q4 40 25 66.5t49 26.5zM251 -213q8 0 11 -1q19 -3 30.5 -17t11.5 -32q0 -6 -1 -9q-15 -94 -52 -165q-60 -110 -165 -149q-10 -2 -15 -2q-37 0 -50 33q-3 9 -3 17
q0 16 9.5 29.5t24.5 18.5q70 26 108 101q31 56 45 137q3 16 15.5 27.5t28.5 11.5h2z" />
    <glyph glyph-name="less" unicode="&#x3c;" horiz-adv-x="861" 
d="M639 589q31 0 45 -29q5 -12 5 -22q0 -31 -29 -45q-53 -26 -131 -65q-126 -60 -173 -85.5t-52 -38.5q0 -1 7.5 -7.5t25 -22.5t34.5 -33q64 -58 122 -120q14 -16 14 -35q0 -21 -17 -36q-16 -14 -34 -14q-21 0 -37 16q-41 46 -115 115q-39 37 -56.5 55t-31.5 41.5t-14 44.5
q0 17 7 34q14 37 67 69.5t190 99.5l6 3l5 2.5t6 2.5l134 65q9 5 22 5z" />
    <glyph glyph-name="equal" unicode="=" horiz-adv-x="947" 
d="M238 447h487q21 0 35.5 -15t14.5 -35q0 -22 -14.5 -37.5t-35.5 -15.5h-487q-22 0 -37.5 15.5t-15.5 37.5q0 20 15.5 35t37.5 15zM243 141h487q21 0 36.5 -15.5t15.5 -37.5q0 -20 -15.5 -35t-36.5 -15h-487q-21 0 -36 15t-15 35q0 22 14.5 37.5t36.5 15.5z" />
    <glyph glyph-name="greater" unicode="&#x3e;" horiz-adv-x="863" 
d="M426 590q23 0 38 -15q52 -58 114 -116q39 -36 56 -54t31 -41t14 -44q0 -19 -8 -38q-14 -37 -68.5 -69.5t-205.5 -105.5l-131 -65q-13 -5 -23 -5q-30 0 -44 27q-6 12 -6 24q0 29 27 45q30 15 74.5 36.5t59.5 28.5q217 105 224 122q0 1 -7 7.5t-25.5 23.5t-36.5 34
q-71 67 -119 120q-14 14 -14 35q0 22 16 37q13 13 34 13z" />
    <glyph glyph-name="question" unicode="?" horiz-adv-x="1737" 
d="M1507 2183q280 0 390 -204q38 -70 38 -156q0 -56 -17.5 -121.5t-41.5 -124t-73 -140t-86 -138t-109 -153t-113 -149t-125 -159.5q-267 -340 -377 -502q-269 -395 -292 -655q-2 -27 -2 -52q0 -15 2 -47v-4q0 -20 -13 -34.5t-32 -16.5h-4q-20 0 -34.5 13t-16.5 33
q-2 18 -2 55q0 82 22 173t54.5 173.5t90 184t108.5 180.5t130.5 187.5t135.5 181t143 183.5q5 7 8 10q94 120 140 179.5t123.5 164t116.5 168.5t83 144.5t62.5 144.5t18.5 119q0 62 -26 110q-83 151 -305 151q-107 0 -240 -38q-165 -49 -332.5 -145t-306.5 -222
q-141 -127 -227.5 -267t-97.5 -275q-1 -9 -1 -28q0 -273 354 -451q29 -14 29 -47q0 -10 -5 -20q-16 -29 -48 -29q-9 0 -21 5q-409 206 -409 541q0 25 1 37q10 154 106 311.5t252 299.5q147 133 325.5 234.5t352.5 151.5q144 43 271 43zM641 -665q26 0 43 -25t17 -61v-5
q-4 -36 -24.5 -62.5t-46.5 -26.5q-25 0 -42.5 24t-17.5 58v7q2 38 22.5 64.5t48.5 26.5z" />
    <glyph glyph-name="at" unicode="@" horiz-adv-x="1753" 
d="M1283 2003q12 0 38 -2q60 -8 110 -31q162 -84 219 -343q30 -129 30 -304q0 -124 -13 -248q-27 -259 -106.5 -533.5t-196.5 -508.5q-140 -278 -220 -343q-43 -36 -76 -36q-54 0 -74 96q-9 41 -9 103q0 63 9 141q26 294 131 770q-289 -535 -382 -568q-17 -7 -34 -7
q-27 0 -49 16q-44 31 -55 115q-4 38 -4 64q0 44 6 90q12 109 46.5 224.5t95 222.5t132.5 159q52 39 130 39q65 0 169 -34q50 100 50 103q14 27 46 27q11 0 23 -5q26 -14 26 -45q0 -10 -2 -15q-42 -128 -123.5 -519.5t-105.5 -645.5q-9 -90 -9 -132q0 -48 7 -77
q65 70 181 302q113 223 190 489t104 520q13 128 13 227q0 157 -28 291q-50 213 -167 274q-34 18 -74 21q-20 2 -29 2q-109 0 -226.5 -85.5t-224 -231t-201 -328.5t-169.5 -388q-131 -372 -157 -692q-5 -54 -5 -125q0 -240 84 -357q70 -103 208 -103q55 0 119 16q10 2 14 2
q17 0 30 -10.5t18 -27.5q2 -8 2 -12q0 -17 -11 -31.5t-27 -18.5q-77 -20 -149 -20q-186 0 -288 145q-102 147 -102 430q0 65 4 121q28 330 167 719q78 217 181.5 412t222 349t252 245t259.5 92zM1010 1018q-43 0 -69 -19q-90 -66 -153 -223.5t-81 -313.5q-6 -42 -6 -77
q0 -21 4 -53q3 -30 9 -38q80 39 418 700q-74 24 -122 24z" />
    <glyph glyph-name="A" unicode="A" horiz-adv-x="2850" 
d="M2940 2878q28 0 51 -15q47 -34 47 -168q0 -113 -36 -308t-83.5 -388.5t-134 -491t-146 -492t-159.5 -516.5q324 26 517 32h4q20 0 33.5 -13.5t15.5 -34.5q0 -21 -14 -36t-34 -17q-259 -11 -553 -36q-153 -489 -234 -770.5t-93 -389.5q-3 -18 -17 -31t-32 -13q-2 0 -5 0.5
t-4 0.5q-18 2 -30.5 15.5t-12.5 32.5v7q19 182 318 1138q-577 -50 -1097 -134q-251 -442 -467 -826l-212 -377q-14 -119 -60 -245q-77 -210 -230 -387q-111 -123 -176 -123q-41 0 -41 55q0 7 2 25q3 35 55 108q82 121 352 595q3 32 3 62q0 374 -367 647q-49 35 -69 84
q-9 22 -9 46q0 90 140 165q136 75 402 142q293 71 615 122q820 1444 1255 2051q349 484 506 484zM2920 2783q-86 -1 -402 -449q-410 -567 -1213 -1971q516 77 1067 127q131 421 209 677.5t178 606.5t149 576.5t49 337.5q0 74 -23 90q-7 5 -14 5zM1114 230
q-310 -53 -524 -108q-264 -70 -380 -132q-88 -46 -88 -77q0 -3 2 -9q7 -16 36 -39q353 -263 402 -614l124 221q237 422 428 758zM162 -1631q-5 -10 -5 -12q-1 -5 -1 -9v-1z" />
    <glyph glyph-name="B" unicode="B" horiz-adv-x="3378" 
d="M3368 2937q424 -2 590 -163q56 -56 82 -132q14 -46 14 -105q0 -162 -115 -361q-136 -244 -430 -548q-365 -376 -875 -744.5t-983 -600.5q204 27 356 27q262 0 397 -77q52 -30 86 -67q483 223 1028 372q10 2 14 2q38 0 48 -38q2 -10 2 -14q0 -16 -10.5 -29t-26.5 -17
q-537 -151 -1002 -363q14 -44 14 -91q0 -73 -31 -161q-83 -227 -342 -480q-226 -226 -497 -383t-453 -157q-68 0 -114 23q-39 17 -58 56q-17 28 -17 71q0 77 60 181q90 152 280 326q388 357 1007 656q-15 12 -38 24q-118 67 -352 67q-171 0 -420 -39q-156 -331 -247 -595
q-14 -34 -48 -34q-8 0 -17 3q-34 13 -34 49q0 8 3 16q82 238 222 540q-128 -23 -284 -60q-8 -2 -12 -2q-16 0 -29.5 10.5t-18.5 25.5q-3 7 -3 15q0 16 10.5 30t26.5 20q184 57 406 161q125 251 273.5 512t230 392.5t87.5 137.5q14 24 43 24q15 0 26 -7q24 -18 24 -43
q0 -15 -9 -27q-20 -30 -79 -125t-194.5 -330t-251.5 -460q449 232 919.5 578t810.5 697q286 296 414 524q102 182 102 310q0 40 -11 76q-15 50 -55 92q-146 143 -524 143q-406 0 -968.5 -157t-1078.5 -411q-607 -299 -921 -615q-288 -290 -288 -536q0 -53 13 -101
q43 -176 249 -335t590 -291q16 -6 26 -20.5t10 -30.5q0 -6 -2 -14q-13 -34 -47 -34q-9 0 -18 3q-800 276 -906 698q-16 61 -16 126q0 292 317 607q334 334 950 634q522 255 1093.5 412t997.5 157h4zM2447 34q-619 -297 -992 -644q-178 -164 -261 -303q-49 -84 -49 -128
q0 -15 6 -25q3 -9 12 -12q34 -17 85 -17q156 0 403 150t461 364q247 239 318 444q24 61 24 117q0 30 -7 54z" />
    <glyph glyph-name="C" unicode="C" 
d="M2601 2786q70 0 130 -20q130 -43 177 -184q19 -61 19 -145q0 -95 -26 -211q-16 -66 -36 -127q103 74 184 86q4 1 11 1q17 0 30.5 -11.5t16.5 -30.5q1 -3 1 -9q0 -18 -11.5 -31.5t-30.5 -16.5q-123 -24 -272 -187q-117 -278 -292 -582q-141 -247 -201 -312
q-73 -79 -105 -79q-23 0 -23 42q0 37 20 109q19 74 86 212q80 165 192.5 343.5t231.5 311.5q64 155 100 305q24 107 24 185q0 66 -17 115q-27 91 -112 120q-44 15 -97 15h-18q-171 -6 -385 -114t-434.5 -291t-441.5 -420.5t-422 -509.5q-369 -500 -577 -975
q-214 -485 -214 -832q0 -6 0.5 -18.5t0.5 -19.5q13 -314 216 -470q79 -58 186 -58q213 0 562 242q256 180 593 491.5t785 772.5q15 16 36 16t35 -14q15 -15 15 -37q0 -23 -15 -35q-446 -461 -787.5 -777t-603.5 -501q-376 -261 -623 -261q-137 0 -243 79q-245 183 -256 550
q-1 14 -1 43q0 368 221 869q217 489 588 995q207 281 437 526t460.5 433.5t456.5 299.5t409 117h20z" />
    <glyph glyph-name="D" unicode="D" horiz-adv-x="3935" 
d="M2919 2693h6q412 0 621 -208q170 -164 200 -446q5 -58 5 -107q0 -467 -339 -1104q-113 -217 -273 -453q295 74 547 117.5t405 47.5q20 0 35 -14.5t15 -35.5t-14.5 -36t-35.5 -15q-160 -3 -437.5 -54t-602.5 -138q-257 -355 -529 -634q-314 -320 -618.5 -517.5
t-550.5 -221.5q-48 -4 -70 -4q-133 0 -227 54q-63 35 -100 91q-38 55 -46 125q-1 8 -1 25q0 99 54 191q93 166 389 345q283 768 744 1689q17 27 47 27q10 0 23 -5q26 -15 26 -46q0 -14 -5 -24q-4 -2 -107 -210.5t-278 -599t-314 -754.5q274 146 637 282q391 148 863 276
q197 276 335 540q328 615 328 1055q0 44 -5 96q-27 247 -170 386q-186 182 -557 182q-356 0 -816 -160.5t-906 -424.5q-306 -182 -562.5 -388.5t-427.5 -411.5q-264 -322 -264 -568q0 -90 37 -167q148 -315 870 -417q19 -2 32 -16.5t13 -33.5q0 -2 -0.5 -4t-0.5 -4
q-4 -18 -18.5 -30.5t-33.5 -12.5h-6q-778 112 -947 475q-47 97 -47 209q0 282 289 634q177 213 441 426t575 398q454 269 925.5 431t846.5 163zM2893 204q-390 -112 -734 -240q-438 -164 -725 -331q-112 -307 -182 -550q-4 -16 -18 -27t-31 -11q-5 0 -13 2q-35 12 -35 49
q0 5 2 15q59 207 139 435q-180 -125 -247 -240q-39 -75 -39 -135q0 -13 1 -19q3 -45 28 -79q29 -41 67 -60q65 -41 176 -41q30 0 61 3q228 23 518 213t589 497q242 252 443 519z" />
    <glyph glyph-name="E" unicode="E" 
d="M2555 2787q89 0 157 -35q224 -117 224 -415q0 -76 -16 -169q105 77 203 94q3 1 10 1q19 0 33 -11.5t17 -30.5q1 -3 1 -8q0 -18 -12.5 -32t-31.5 -17q-74 -14 -160 -77q-64 -48 -101 -91q-53 -174 -155 -373q-66 -128 -117 -201q-55 -86 -84 -106q-22 -17 -40 -17
q-21 0 -39 24q-11 16 -14 36q-1 5 -1 16q0 52 36.5 151.5t98.5 209.5q111 190 227 315q47 157 47 283q0 238 -172 329q-47 22 -112 22q-24 0 -50 -3q-216 -24 -549.5 -216.5t-687.5 -484.5q-354 -289 -643.5 -606t-424.5 -575q-89 -170 -89 -290q0 -10 2 -30
q26 -234 360 -234q139 0 326.5 40.5t354.5 97t318.5 116t236 97.5t90.5 42q9 5 22 5q27 0 43 -24q7 -11 7 -27q0 -29 -24 -43q-3 -2 -29 -20t-47 -33q-156 -112 -363 -283t-381 -349q-364 -377 -364 -575q0 -48 22 -85l7 -10q7 -11 36 -40q45 -36 116 -36q54 0 114 19
q140 41 349 190q154 110 330.5 269.5t328.5 319.5t270 295t199 239q15 20 41 20q18 0 31 -12q18 -13 18 -38q0 -18 -11 -32q-82 -105 -202.5 -243t-275 -301t-333.5 -325t-336 -274q-217 -156 -381 -207q-77 -22 -141 -22q-104 0 -179 58q-25 19 -58 60l-7 15l-2 2
q-35 60 -35 133q0 250 391 653q198 204 505 451q-616 -233 -989 -233q-424 0 -458 312q-2 14 -2 42q0 144 100 338q139 266 436 593t657 619q366 300 713 498.5t578 224.5q28 4 61 4z" />
    <glyph glyph-name="F" unicode="F" horiz-adv-x="2897" 
d="M2664 2783q102 0 176 -29q157 -61 157 -298q0 -246 -172 -691q-188 -486 -586 -1230q328 43 644 43q101 0 181 -4q20 0 34 -14t14 -34v-5q0 -19 -15.5 -33.5t-36.5 -14.5q-77 4 -176 4q-330 0 -704 -52q-115 -216 -247 -451q63 -100 63 -231q-2 -162 -99.5 -351
t-247.5 -369q-127 -151 -256.5 -254t-183.5 -103q-7 0 -10 1q-46 14 -46 60q0 15 6 36q21 70 122.5 257.5t302.5 542.5q20 35 225 399q-158 158 -603 165q-62 0 -86 19l-5 3q-29 22 -29 47q0 39 77 80q68 33 180 70q330 106 772 173q428 791 617 1282q171 440 171 656
q0 165 -99 204q-67 26 -155 26q-227 0 -569 -154.5t-701.5 -409.5t-655.5 -550q-371 -375 -526 -694q-95 -198 -95 -360q0 -117 52 -214q177 -331 950 -384q20 -2 33.5 -16t13.5 -32v-5q-2 -20 -16 -34t-34 -14h-5q-826 58 -1033 437q-63 117 -63 258q0 186 106 407
q162 338 546 723q304 302 677.5 562.5t732.5 418t602 157.5zM2055 406q-388 -60 -684 -156q-6 -2 -71 -24q390 -21 562 -171q103 186 193 351zM1874 -132q-71 -123 -201 -356q-336 -588 -395 -722q120 93 292 300q140 167 232 339.5t93 315.5q0 65 -21 123z" />
    <glyph glyph-name="G" unicode="G" horiz-adv-x="3066" 
d="M1358 -1475q62 0 145 74.5t168 226.5q131 228 326 646q341 322 722 624.5t496 348.5q31 11 31 45q0 20 -15 35t-36 15q-9 0 -18 -3q-106 -41 -412 -277t-662 -554q242 543 316 786l3 15q0 20 -15 35t-36 15q-18 0 -32 -11q-111 -97 -342 -243q-179 -115 -368 -217.5
t-392 -194t-398.5 -145.5t-344.5 -54q-218 0 -319 120q-15 21 -19 31q-78 124 -78 287q0 174 86.5 387t233 427.5t344 438t416.5 422.5t453.5 376t451.5 304.5t414.5 202t339.5 74.5q295 0 295 -336q0 -275 -197 -757q-140 -178 -252 -403t-126 -314q-7 -51 -7 -73
q0 -52 23 -52q30 0 98 87q45 55 154 273.5t197 434.5q102 128 206 201q22 13 22 41q0 21 -15 35t-36 14q-11 0 -22.5 -5.5t-19.5 -12t-22 -18.5t-23 -19q119 344 119 571q0 221 -105 327.5t-283 106.5q-212 0 -517 -138t-639.5 -376.5t-658.5 -544.5q-219 -209 -402 -425.5
t-325 -434.5t-221.5 -431t-79.5 -391q0 -221 120 -371q128 -157 395 -157q159 0 362.5 55.5t414 149.5t403 198t376.5 221q108 70 220 149q-100 -265 -272 -649q-18 -41 -85 -189q-354 -336 -526 -573q-133 -184 -133 -309q0 -57 30.5 -89.5t72.5 -32.5zM1360 -1376l-2 1
q-3 11 -3 22q0 90 113 252q106 148 321 368q-100 -209 -205 -394q-46 -83 -96.5 -143.5t-81.5 -83t-46 -22.5z" />
    <glyph glyph-name="H" unicode="H" horiz-adv-x="2946" 
d="M3551 3023q6 0 14 -2q34 -14 34 -48q0 -8 -3 -17l-631 -1910q89 3 177 3q21 0 35.5 -15t14.5 -35q0 -22 -14 -36t-36 -14q-72 -1 -211 -5l-880 -2661q-5 -16 -18.5 -26t-29.5 -10q-4 0 -14 2q-16 6 -26 19.5t-10 28.5q0 9 3 17l868 2626q-514 -25 -1103 -112l-538 -1520
q-5 -15 -18.5 -24.5t-29.5 -9.5q-9 0 -16 3q-34 13 -34 48q0 8 3 17l519 1468q-262 -41 -531 -94t-460 -97.5t-354.5 -86t-236 -61.5t-83.5 -24q-10 -2 -14 -2q-38 0 -48 38q-3 7 -3 16q0 16 10 28.5t26 17.5l45 13q46 12 131.5 35t200.5 52t268.5 64t319 70t368 72
t400.5 67l539 1524q13 34 48 34q8 0 17 -3q15 -5 24.5 -18.5t9.5 -28.5q0 -8 -3 -17l-522 -1474q583 85 1099 107l643 1945q11 34 49 36h1z" />
    <glyph glyph-name="I" unicode="I" horiz-adv-x="1784" 
d="M1626 2784q94 0 173 -30q245 -90 245 -526q0 -604 -492 -1957q-83 -230 -344 -905q-222 -580 -261 -689q-4 -15 -16.5 -24.5t-28.5 -9.5q-8 0 -17 3q-15 5 -24.5 18.5t-9.5 29.5q0 8 3 16q82 234 261 692q253 660 342 905q146 401 248 723t175.5 654.5t73.5 549.5
q0 356 -191 427q-67 24 -140 24q-120 0 -257 -61t-271.5 -169t-264.5 -252t-246 -313q-263 -388 -380 -778q-75 -248 -75 -456q0 -140 36 -260q62 -208 242 -335t488 -147q20 -2 34 -17t14 -35v-4q-2 -18 -16.5 -31.5t-33.5 -13.5h-5q-345 22 -547 167.5t-274 384.5
q-39 130 -39 288q0 221 78 488q120 404 394 807q254 369 558 602t568 234z" />
    <glyph glyph-name="J" unicode="J" horiz-adv-x="3123" 
d="M2608 2775q78 0 138 -21q59 -21 110 -60q192 -152 192 -566q0 -77 -8 -171q-37 -462 -266 -1126q-126 -354 -282 -699q232 158 439 267.5t341 143.5q8 2 12 2q17 0 31.5 -11t18.5 -27q1 -4 1 -11q0 -43 -39 -52q-148 -37 -389.5 -172.5t-502.5 -324.5
q-282 -580 -560 -932q-192 -240 -327 -273q-23 -5 -41 -5q-40 0 -69 21q-41 34 -46 99q0 2 -0.5 8t-0.5 9q0 141 149 357q125 180 336 381t463 388l17 14q206 427 354 850q223 652 260 1103q8 94 8 168q0 354 -153 480q-46 32 -79 43q-53 19 -125 19q-216 0 -555 -159.5
t-701 -423.5t-654 -564q-350 -359 -495 -673q-87 -190 -87 -343q0 -118 51 -211q176 -329 951 -382q20 -2 34 -17.5t14 -35.5q-2 -20 -16 -34t-34 -14h-5q-829 58 -1033 435q-63 116 -63 259q0 179 97 387q146 323 514 701q300 308 675.5 577.5t732 432.5t588.5 163h4z
M2222 -195q-431 -344 -629 -631q-131 -193 -131 -299v-11q0 -21 7 -24q1 -1 8 -1q10 0 16 1q47 11 117.5 71t154.5 167q214 269 457 727z" />
    <glyph glyph-name="K" unicode="K" horiz-adv-x="1673" 
d="M949 2872q6 0 14 -2q36 -13 36 -49q0 -4 -2 -14l-525 -1748q134 146 286 288q433 409 975.5 789.5t918.5 553.5q12 5 21 5q31 0 46 -29q5 -12 5 -22q0 -35 -32 -46q-366 -168 -900.5 -544t-964.5 -781q-256 -241 -426 -449l-236 -787q71 -60 214 -60q134 0 328.5 54
t371.5 127.5t343.5 153.5t256.5 128t100 55q11 6 24 6q30 0 45 -26q7 -11 7 -25q0 -29 -26 -44q-11 -7 -101 -55t-260.5 -128.5t-352.5 -154t-389 -127.5t-357 -54q-144 0 -234 50l-346 -1152q-4 -16 -18 -26t-30 -10q-6 0 -14 2q-36 14 -36 47q0 8 3 16l358 1195
q-47 64 -57 157q-2 14 -2 43q0 264 317 660l589 1967q12 34 49 36h1zM220 571q-127 -210 -127 -358q0 -13 2 -35q2 -12 2 -16z" />
    <glyph glyph-name="L" unicode="L" horiz-adv-x="1419" 
d="M1520 2777q100 0 172 -42q178 -99 178 -426q0 -6 -0.5 -19.5t-0.5 -20.5q-13 -302 -162 -763q-125 -388 -328.5 -842t-419 -843.5t-407.5 -661.5q378 123 767 161q153 15 313 15q436 0 790 -123q15 -5 24.5 -18.5t9.5 -29.5q0 -8 -3 -17q-13 -34 -49 -34q-8 0 -16 3
q-337 118 -754 118q-156 0 -305 -15q-454 -43 -885 -204q-92 -120 -170 -182q-95 -77 -169 -77h-5q-40 3 -63 34q-13 17 -13 42q0 15 4 30q7 29 37.5 62.5t81.5 64.5q86 51 240 113q185 239 415 640.5t453 890t356 904.5q145 448 155 737q1 17 1 48q0 255 -125 327
q-50 28 -121 28q-56 0 -121 -16q-192 -46 -407 -231.5t-399.5 -449.5t-312.5 -556q-147 -338 -172 -627q-5 -62 -5 -110q0 -231 96 -380q140 -218 488 -242q21 -2 34.5 -18t13.5 -37q-2 -20 -17 -33t-34 -13h-4q-399 27 -567 288q-111 173 -111 433q0 61 6 122
q23 299 181 658q98 227 236.5 444t294.5 392.5t328 298t328 159.5q78 18 143 18zM200 -1098q-16 -8 -41 -26q21 9 41 26z" />
    <glyph glyph-name="M" unicode="M" horiz-adv-x="3521" 
d="M1810 2755q158 0 188 -226q7 -48 7 -114q0 -141 -35.5 -352t-87.5 -425.5t-133.5 -490.5t-150.5 -490t-162.5 -485t-145 -414.5t-121.5 -336.5q183 407 318 682q228 467 353 720.5t302.5 592.5t272.5 488q108 167 172 167q14 0 28 -8q43 -29 43 -150q0 -97 -30.5 -272
t-60 -306t-90.5 -384q-184 -760 -187 -920q15 23 33 53t42 74.5t43.5 81.5t52.5 102t53.5 105t62 122.5t62.5 124.5q354 705 538 1031q400 705 605 782q20 7 38 7q51 0 72 -60q8 -20 8 -63q0 -58 -14.5 -145t-50.5 -226.5t-65.5 -248t-93.5 -316t-97.5 -315.5t-111.5 -355
q-149 -463 -235.5 -743.5t-177 -621t-113.5 -525.5q-12 -88 -12 -143q0 -68 21 -70q19 -4 31 -18.5t12 -33.5v-6q-1 -19 -14.5 -31.5t-31.5 -12.5q-6 0 -9 1q-107 13 -107 202q0 55 9 124q14 116 56 297t81 327t125 429t124 404t143 452q110 346 167 528.5t130 429.5
t105 390.5t32 214.5q0 18 -1 25q-38 -19 -82.5 -59.5t-96.5 -108t-101 -135.5t-112 -174.5t-112 -188.5t-119.5 -214t-115 -215.5t-118 -228.5t-110 -217t-107.5 -215q-171 -340 -263 -512.5t-137 -221.5q-30 -32 -57 -32q-21 0 -41 20q-30 29 -30 125q0 91 30.5 264.5
t58.5 297t90 384.5q142 604 172 775q21 122 21 178q0 43 -12 50h-1l-1 1q-3 0 -7.5 -16t-17.5 -48t-32 -62q-73 -114 -175 -301.5t-252 -485.5t-233.5 -468t-262.5 -536q-127 -261 -204 -415.5t-164.5 -321t-140.5 -242.5t-79 -76q-3 0 -5 1q-29 9 -29 59q0 58 36 159
q6 23 71 200q73 200 118.5 327.5t143.5 409t164.5 488t151.5 490.5t137 496.5t89 424.5t37 351q0 58 -6 106q-21 138 -99 138q-2 0 -5.5 -0.5t-5.5 -0.5q-158 -22 -364 -152t-407 -322t-390 -431.5t-319 -475.5q-159 -292 -196 -514q-13 -71 -13 -140q0 -142 63 -235
q124 -183 494 -183q8 0 22 0.5t22 0.5h3q21 0 35.5 -14.5t14.5 -33.5q0 -22 -14.5 -37.5t-36.5 -15.5q-17 -1 -50 -1q-420 0 -574 229q-82 120 -82 294q0 74 15 155q45 242 208 543q135 245 332 493t408 447t429 333.5t386 157.5q18 3 36 3zM1030 -881q-17 -12 -17 -14t5 -3
v-1q1 0 12 18z" />
    <glyph glyph-name="N" unicode="N" horiz-adv-x="2916" 
d="M1742 2756q148 -1 173 -237q5 -53 5 -105q0 -609 -531 -2388q195 434 411 855q710 1364 1210 1564q52 21 94 21q86 0 121 -91q18 -45 18 -119q0 -85 -21 -203.5t-68.5 -292.5t-86.5 -303t-112 -364q-64 -206 -102 -329.5t-95.5 -320.5t-91.5 -338t-69 -305t-51.5 -302.5
t-16.5 -254.5q0 -130 22 -228q1 -3 1 -10q0 -18 -11 -33t-28 -19q-3 -1 -10 -1q-18 0 -32.5 11t-17.5 28q-25 109 -25 251q0 121 16 263t52.5 311t69.5 308t92.5 343.5t95.5 322.5t103 334q97 309 147 477.5t95 361t45 290.5q0 53 -12 86q-9 23 -39 23q-17 0 -47 -11
q-465 -190 -1155 -1518q-381 -728 -816 -1796q-11 -31 -47 -31q-5 0 -15 2q-15 6 -25 20.5t-10 30.5q0 4 2 14l19 53q355 1103 543 1810q277 1041 277 1469q0 50 -5 102q-14 147 -76 147h-5q-87 -9 -224 -101.5t-295 -246.5t-320 -343.5t-313.5 -410t-260.5 -428.5
q-161 -306 -201 -540q-13 -72 -13 -144q0 -151 68 -246q125 -180 491 -180q87 0 166 8h4q21 0 35.5 -12.5t15.5 -33.5v-5q0 -18 -13.5 -33.5t-31.5 -16.5q-96 -8 -170 -8q-425 0 -581 224q-84 122 -84 302q0 77 15 161q39 245 210 569q112 216 270.5 445t328.5 424.5
t337.5 355t313.5 255t240 105.5q14 2 21 2z" />
    <glyph glyph-name="O" unicode="O" horiz-adv-x="3002" 
d="M2152 2634q214 -5 349 -101.5t196 -267.5q52 -146 52 -339q0 -129 -23 -279q-52 -336 -213 -749q-152 -383 -351 -732q324 92 593.5 202.5t401.5 203.5q12 9 27 9q24 0 42 -21q9 -13 9 -29q0 -26 -21 -44q-147 -103 -454.5 -226t-671.5 -220q-173 -288 -352.5 -512.5
t-355 -360.5t-309.5 -141h-16q-67 0 -120 22q-187 82 -210 396l-1 3q-5 58 -5 111q0 139 25 309q-63 3 -125 14q-380 58 -528 269q-67 99 -82 221q-9 62 -9 149q9 312 201 665.5t502 669.5q303 308 650.5 517t645.5 252q68 9 153 9zM2117 2532q-46 0 -104 -8
q-283 -39 -614.5 -240t-623.5 -500q-194 -198 -341 -408.5t-238 -435t-96 -421.5q0 -57 7 -132q14 -99 67 -176q125 -178 460 -228q64 -11 124 -14q3 19 7.5 41t10 48.5t8.5 42.5q81 394 232 804t270 591q16 21 43 21q15 0 29 -9q21 -14 21 -40q0 -16 -9 -30
q-114 -172 -260.5 -571t-227.5 -788q-3 -19 -10 -57.5t-11 -57.5q21 -1 64 -1q192 0 460 35q324 47 643 132q230 392 392 807q153 393 206 727q22 149 22 269q0 172 -44 298q-104 293 -454 300q-11 1 -33 1zM1954 7q-302 -74 -555 -110q-251 -35 -477 -35q-52 0 -78 1
q-23 -164 -23 -301q0 -62 4 -107q19 -258 148 -312q40 -15 84 -15h12q168 7 406 249t479 630z" />
    <glyph glyph-name="P" unicode="P" horiz-adv-x="2893" 
d="M3356 2937q424 -2 590 -163q57 -54 79 -132q17 -52 17 -122q0 -253 -232 -630q-260 -430 -751 -939q-429 -441 -904.5 -796.5t-862.5 -506.5q-155 -342 -251 -623q-13 -33 -50 -33q-5 0 -15 2q-15 5 -24.5 18.5t-9.5 29.5q0 8 3 17q89 255 217 543q-4 -1 -11 -1
q-36 0 -46 36q-2 10 -2 14q0 36 36 49q36 11 79 27q106 229 236 480t229.5 429t212 367t153 254t82.5 130q3 4 4 6l1 2q14 22 42 22q16 0 27 -7q24 -18 24 -43q0 -15 -9 -27l-5 -8q-51 -81 -113 -181.5t-194 -324t-279.5 -500.5t-273.5 -543q366 165 802 500t830 740
q480 493 737 920q217 359 217 577q0 51 -12 93q-22 59 -55 89q-146 143 -523 143q-405 0 -967.5 -157t-1079.5 -411q-601 -296 -921 -615q-287 -289 -287 -538q0 -50 12 -99q43 -176 249 -335t593 -291q34 -13 34 -49q0 -9 -3 -16q-13 -34 -47 -34q-9 0 -18 3
q-802 276 -906 698q-15 61 -15 125q0 292 316 608q171 169 414.5 330.5t535.5 303.5q521 255 1093 412t998 157h4z" />
    <glyph glyph-name="Q" unicode="Q" horiz-adv-x="2693" 
d="M2346 2637q169 -2 306 -55q257 -100 337 -387q33 -120 33 -266q0 -275 -111 -637q-154 -491 -476 -1035q-344 -572 -704 -914q27 1 81 1q212 0 417 -28q20 -3 32 -16.5t12 -32.5q0 -6 -1 -9q-1 -19 -15 -31.5t-33 -12.5q-6 0 -9 1q-192 27 -404 27q-101 0 -200 -6
q-247 -202 -429 -209h-16q-83 0 -149 29q-60 27 -106 81q-277 -62 -548.5 -154.5t-402.5 -150t-134 -62.5q-13 -5 -23 -5q-30 0 -44 29q-5 9 -5 22q0 34 29 46q6 6 132.5 61.5t395.5 148.5t544 156q-41 94 -54 234q-3 45 -3 94q0 118 18 252q-114 -215 -139 -228
q-11 -7 -25 -7q-29 0 -44 26q-7 11 -7 25q0 29 26 45q30 17 229 422q-179 -47 -332 -55q-17 -1 -50 -1q-285 0 -397 169q-50 75 -60 168q-7 48 -7 103q0 180 81 392q108 277 335.5 571.5t520.5 545.5q303 257 625.5 428t611.5 213q81 12 162 12zM2343 2535q-68 0 -145 -11
q-274 -38 -583.5 -203t-600.5 -414q-287 -245 -507.5 -528t-322.5 -548q-74 -203 -74 -363q0 -38 5 -81q9 -69 45 -125q82 -126 318 -126q27 0 41 1q164 7 376 72q96 377 251.5 749.5t276.5 537.5q45 61 67 70q37 20 57 20q33 0 33 -48q0 -42 -28 -126q-19 -64 -115 -300
q-161 -375 -394 -855q44 15 88 34q337 130 666 328.5t501 369.5q15 15 36 15q22 0 36 -15q14 -14 14 -35q0 -22 -16 -37q-178 -176 -516.5 -381.5t-684.5 -341.5q-31 -12 -186 -67h-3l-9 -41q-70 -314 -70 -534q0 -42 3 -83q13 -139 55 -219q323 68 624 87
q185 159 385.5 414t382.5 559q315 531 463 1013q109 346 109 604q0 138 -30 241q-63 236 -275 320q-122 47 -273 47zM1347 1160q-77 -157 -139 -320q13 29 63 143t73 170zM1429 -778q-189 -19 -395 -60q7 -4 23 -12q44 -22 106 -22h16q109 4 250 94z" />
    <glyph glyph-name="R" unicode="R" horiz-adv-x="2616" 
d="M3111 2621q501 0 692 -188q61 -58 72 -144q2 -13 2 -39q0 -257 -382 -689q-356 -403 -955 -874q-340 -268 -691.5 -500.5t-647.5 -385.5q78 4 125 7q171 11 343 11q594 0 993 -119q96 -32 149 -53q32 -14 32 -48q0 -7 -4 -19q-12 -31 -46 -31q-10 0 -18 4q-74 29 -141 48
q-383 116 -967 116q-159 0 -337 -10q-94 -5 -217 -14q-166 -359 -273 -668q-11 -33 -49 -33q-5 0 -15 2q-35 12 -35 48q0 8 3 17q101 290 253 623q-42 -4 -61 -6q-220 -92 -346 -92q-19 0 -27 1q-19 1 -32.5 15.5t-13.5 33.5v3q0 12 3 17q11 31 47 31q96 43 328 80
q82 33 178 80q62 131 131.5 268t134 257.5t130.5 239t123.5 218t110.5 189t95 157.5t72.5 118t47.5 76l17 27q17 22 45 22q14 0 25 -7q24 -18 24 -44q0 -13 -8 -26l-15 -24q-15 -24 -43 -69t-66.5 -106.5t-86.5 -142.5t-101.5 -172t-114 -199t-121 -219t-126 -237.5
t-125.5 -248.5q280 151 609 372t647 472q594 470 942 862q356 405 356 614q0 22 -2 32q-3 50 -40 87q-170 166 -618 166q-399 0 -916.5 -129t-986.5 -342q-537 -241 -832 -517q-285 -263 -285 -502q0 -25 3 -50q45 -328 653 -591q14 -5 22.5 -17.5t8.5 -27.5q0 -10 -5 -20
q-13 -32 -47 -32q-6 0 -18 4q-662 286 -712 670q-5 38 -5 68q0 283 316 573q304 282 858 535q470 213 994 342t939 130h8z" />
    <glyph glyph-name="S" unicode="S" horiz-adv-x="2898" 
d="M2612 2766q45 0 84 -9q235 -56 235 -364q0 -119 -35 -273q84 56 161 56q35 0 69 -12q16 -6 26 -20.5t10 -31.5q0 -5 -2 -13q-13 -34 -48 -34q-8 0 -17 3q-18 6 -37 6q-59 0 -130 -54q-35 -26 -79 -70q-77 -247 -225 -552q-74 -151 -142.5 -264t-92.5 -130
q-18 -15 -36 -15q-21 0 -38 24q-11 17 -11 52q0 62 35 169q68 211 208 464q112 190 211 302q22 74 36 132q35 148 35 257q0 230 -157 269q-25 6 -59 6q-25 0 -54 -3q-235 -26 -621.5 -251.5t-781.5 -553.5q-404 -333 -693 -673t-348 -580q-11 -50 -11 -92q0 -11 2 -31
q26 -224 392 -396q397 -185 1109 -274q68 -7 113 -29q262 203 513.5 369.5t476.5 277.5t344 112h5q19 0 32.5 -14.5t13.5 -33.5q0 -22 -14.5 -37.5t-36.5 -15.5q-107 -1 -317.5 -106t-447.5 -263t-490 -353q12 -17 26 -51q8 -30 8 -60q0 -92 -65 -209q-77 -129 -220 -274
q-146 -146 -309 -243.5t-271 -97.5q-45 0 -73 17q-32 26 -41 55q-2 7 -2 21q0 85 129 239q132 155 354 348q127 114 289 243q-18 4 -28 4q-737 96 -1139 284q-419 191 -452 475q-2 26 -2 40q0 52 14 119q62 257 359 608.5t715 697.5q409 339 808.5 571t647.5 258q31 4 65 4z
M2586 1556q-20 -38 -70 -146l17 33q47 98 53 113zM1720 -348q-167 -132 -318 -264q-219 -195 -345 -339q-105 -126 -105 -164v-2q14 -6 33 -6q78 0 218.5 92.5t272.5 225.5q128 125 203 253q53 90 53 154q0 16 -5 33q-1 4 -4 11z" />
    <glyph glyph-name="T" unicode="T" horiz-adv-x="1152" 
d="M1784 2687q12 0 20 -5q30 -14 30 -48q0 -11 -4 -19q-26 -56 -117 -264q912 89 1600 115q21 0 35.5 -13.5t16.5 -34.5q0 -22 -14 -37.5t-33 -15.5q-776 -33 -1650 -120q-200 -474 -417.5 -1048t-386.5 -1084q-138 -419 -198 -641q-1 -24 -3.5 -92.5t-4.5 -102.5
q-13 -283 -47 -456q-36 -193 -102 -193q-17 0 -37 15q-25 18 -36 70q-7 37 -7 77q0 208 136 691v78q0 177 -10 351t-34.5 368.5t-62.5 372t-98.5 353.5t-138 320.5t-184.5 267t-235 199.5q-51 34 -69 70q-11 24 -11 44q0 86 174 153q165 63 463 118q462 84 1239 163
q115 265 139 317q15 31 47 31zM1553 2233q-702 -70 -1174 -158q-301 -53 -448 -113q-107 -40 -107 -56v-2q1 -5 31 -26q122 -74 227 -185.5t183.5 -243t142.5 -290.5t107.5 -321t74.5 -341.5t47.5 -346.5t23.5 -340q41 135 107 334q337 1017 785 2089zM534 -1261v-5
q0 -1 0.5 -2.5t0.5 -2.5q0 -2 -1 -3l-1 -2l1 -1v-1q4 -3 5 -3t1 2q0 5 -6 18z" />
    <glyph glyph-name="U" unicode="U" horiz-adv-x="3280" 
d="M3956 3023q12 0 20 -4q32 -14 32 -47q0 -9 -5 -21l-1438 -4027q-11 -32 -46 -32q-9 0 -18 3q-15 4 -24.5 18t-9.5 30q0 8 3 17l1081 3024q-281 -575 -540.5 -1038.5t-473.5 -779t-389 -522t-324 -324.5q-204 -162 -354 -162q-4 0 -10 0.5t-9 0.5q-160 12 -225 181
q-40 98 -40 245q0 236 100 506q406 1085 567 1732q103 427 103 629q0 203 -100 203q-8 0 -13 -1q-160 -23 -372 -155t-420 -326t-403.5 -436.5t-330.5 -480.5q-159 -281 -205 -509q-15 -75 -15 -143q0 -136 63 -227q121 -176 484 -176q7 0 21.5 0.5t22.5 0.5h3q20 0 34 -14
t16 -34q0 -22 -14.5 -37.5t-35.5 -15.5q-17 -1 -51 -1q-411 0 -564 219q-79 116 -79 282q0 77 17 165q45 243 215 540q140 247 344.5 498t422 452t440.5 337t393 159q19 3 36 3q185 0 185 -320q0 -232 -99 -636q-155 -630 -569 -1744q-96 -255 -96 -471q0 -122 33 -206
q43 -110 139 -118h10q120 0 294 140q138 109 296 292t362.5 483t428 689t496.5 934t564 1194q14 31 47 31z" />
    <glyph glyph-name="V" unicode="V" horiz-adv-x="2752" 
d="M4080 2958q14 0 25 -7q24 -13 24 -43q0 -15 -7 -26q-1177 -2014 -1863 -2928q-329 -439 -559.5 -644.5t-387.5 -214.5q-7 -1 -21 -1q-43 0 -84 15h-3q-91 36 -138 135q-45 84 -53 218q-2 36 -2 57q0 234 100 505q405 1081 567 1731q104 418 104 629q0 203 -99 203
q-10 0 -15 -1q-271 -36 -612.5 -261.5t-597.5 -535.5q-243 -295 -320 -562q-37 -125 -37 -239q0 -155 68 -282q137 -262 540 -408q34 -13 34 -48q0 -8 -3 -17q-11 -34 -47 -34q-8 0 -17 3q-441 163 -598 456q-78 152 -78 329q0 129 40 269q90 293 339 598
q265 322 625.5 557.5t649.5 275.5q18 3 34 3q187 0 187 -321q0 -232 -99 -638q-156 -628 -569 -1741q-96 -252 -96 -470q0 -17 2 -51q8 -114 41 -180q36 -67 86 -84l3 -2q32 -8 53 -8h11q133 8 346 204t527 615q664 889 1856 2918q15 26 44 26z" />
    <glyph glyph-name="W" unicode="W" horiz-adv-x="3898" 
d="M4933 2958q13 0 22 -4q28 -18 28 -48q0 -10 -5 -22q-536 -1106 -897 -1806.5t-621 -1127.5q-276 -452 -477.5 -653.5t-371.5 -201.5q-40 0 -73 9t-66.5 36.5t-56 72t-37 121.5t-14.5 180q0 44 3 97q32 567 416 1859q-197 -362 -397 -645t-364.5 -452.5t-312.5 -262.5
q-162 -100 -281 -100h-10q-139 0 -201 120q-42 78 -42 196q0 126 49 291q143 486 235.5 841.5t135.5 623.5q32 203 32 329q0 244 -115 244q-12 0 -18 -1q-138 -22 -316.5 -161.5t-347.5 -342.5t-323.5 -449t-255.5 -479q-125 -292 -139 -487q-2 -34 -2 -49q0 -164 88 -227
q58 -43 160 -43q136 0 345 76q9 3 19 3q34 0 45 -32q4 -12 4 -19q0 -34 -32 -45q-220 -82 -381 -82q-135 0 -220 60q-128 95 -128 309q0 18 2 56q16 221 148 519q83 194 204 398t263 390t289 337t295 249t269 117q21 4 45 4q201 0 201 -356q0 -140 -31 -335
q-43 -272 -137 -629.5t-238 -847.5q-45 -158 -45 -266q0 -90 30 -144q37 -68 115 -68h6q93 0 228 87q130 80 277.5 229.5t314.5 373t353 546t366 710.5q15 29 47 29q10 0 20 -5q31 -16 31 -49q0 -4 -2 -14q-553 -1728 -593 -2413q-3 -54 -3 -99q0 -94 12 -158t34 -95.5
t46 -44t54 -12.5q142 0 323 190t440 617q259 425 620 1126t894 1802q14 28 43 28h2z" />
    <glyph glyph-name="X" unicode="X" horiz-adv-x="2707" 
d="M3890 3023q19 0 31 -12q20 -13 20 -38q0 -17 -11 -31l-1552 -2008q65 -472 134 -1287q5 -64 14.5 -174t12.5 -148v-6q0 -18 -13 -33t-33 -16h-3q-19 0 -33.5 13t-18.5 33q-2 28 -12 143.5t-14 180.5q-62 720 -120 1184l-1478 -1914q-14 -18 -39 -18q-19 0 -32 10
q-20 15 -20 41q0 16 10 29l1543 1993q-211 1544 -584 1696q-71 28 -150 28q-216 0 -469.5 -193t-475.5 -505q-280 -397 -407 -812q-80 -265 -80 -490q0 -149 35 -271q64 -218 247.5 -351t498.5 -153q21 -2 34.5 -18t13.5 -38q-2 -18 -16.5 -31.5t-33.5 -13.5h-5
q-352 24 -557.5 175t-277.5 401q-40 138 -40 301q0 242 86 520q133 435 420 838q236 333 511 537.5t519 204.5q97 0 185 -36q411 -165 629 -1678l1492 1928q14 19 36 19h3z" />
    <glyph glyph-name="Y" unicode="Y" horiz-adv-x="3477" 
d="M3793 3023q12 0 21 -4q29 -14 29 -49q0 -6 -2 -16q-37 -118 -372.5 -960.5t-680.5 -1676.5q-108 -259 -344 -824q104 109 227 228q323 317 590.5 549.5t356.5 267.5q8 3 17 3q35 0 48 -32q3 -9 3 -18q0 -35 -32 -49q-80 -31 -337.5 -256t-575.5 -537q-214 -211 -409 -418
q-228 -526 -311 -674q-69 -126 -139 -200t-127 -96q-25 -11 -51 -11q-31 0 -54 16q-47 28 -50 89q-1 6 -1 17q0 131 135 317q171 239 512 598q184 428 449 1068q350 850 538 1324q-254 -502 -488.5 -908.5t-429 -687.5t-355.5 -467.5t-298 -295.5q-204 -162 -356 -162
q-3 0 -9.5 0.5t-9.5 0.5q-156 12 -225 181q-40 98 -40 243q0 239 102 508q5 15 34 89q53 136 82 211t104.5 278t124 347.5t115.5 357t107 372.5t69 328t29 286q0 142 -41 217q-33 56 -103 56q-80 0 -205 -71q-218 -122 -460.5 -372.5t-446.5 -558.5t-318 -598
q-110 -294 -110 -493v-19q8 -220 153 -317q117 -78 318 -78q121 0 273 28q2 0 4.5 0.5t3.5 0.5q19 0 33.5 -12t18.5 -30q1 -3 1 -9q0 -19 -12.5 -33.5t-29.5 -17.5q-155 -29 -288 -29q-238 0 -379 96q-185 128 -196 399v26q0 228 117 524q118 300 329 618.5t461 576.5
t477 387q154 87 262 87q122 0 186 -113q49 -86 49 -255q0 -126 -29 -300.5t-69 -339t-107 -380.5t-116.5 -362.5t-124.5 -350.5t-104.5 -280.5t-82.5 -212.5l-36 -89q-95 -256 -95 -471q0 -122 33 -206q46 -111 139 -118h10q122 0 296 140q137 109 295 292t362 483
t427.5 689t497 934t565.5 1194q11 31 46 31zM2121 -999q-206 -231 -306 -370q-115 -163 -115 -258v-8l3 -12q0 -1 2 -1q1 0 5.5 1.5t6.5 1.5q96 40 215 250q62 109 189 396z" />
    <glyph glyph-name="Z" unicode="Z" horiz-adv-x="2543" 
d="M2428 2990h6q212 0 376.5 -55t261.5 -164q42 -50 62 -105q21 -60 21 -129q0 -249 -253 -618q-279 -411 -803 -879q-515 -465 -1028 -754q165 26 296 26q139 0 232 -31q177 -58 196 -216q3 -15 3 -48q437 298 875 519q12 5 21 5q32 0 46 -30q5 -12 5 -22q0 -31 -27 -45
q-469 -235 -947 -569q-18 -49 -50 -118q-113 -216 -347.5 -458t-446.5 -380q-99 -66 -172 -66q-13 0 -19 1q-48 5 -70 36q-22 30 -22 64q0 3 0.5 7t0.5 6v3q9 86 103 187q140 151 368.5 345t506.5 392l62 46q12 44 12 81q0 12 -2 32q-11 93 -127 132q-80 26 -204 26
q-268 0 -710 -120q-8 -2 -12 -2q-35 0 -47 33q-3 9 -3 18q0 16 9.5 29.5t24.5 17.5q295 106 671.5 356t734.5 571q501 446 787 860q236 349 236 560q0 54 -16 98q-15 40 -43 72q-163 185 -565 185q-186 0 -404 -43q-492 -101 -944 -368q-490 -284 -749 -670
q-226 -338 -226 -702q0 -227 92 -458q4 -8 4 -20q0 -32 -30 -47q-9 -3 -18 -3q-38 0 -49 32q-100 249 -100 498q0 388 243 755q270 401 782 704q476 280 976 377q225 46 420 46zM1604 -245q-506 -370 -782 -668q-72 -74 -77 -127v-5h3q1 0 4 -0.5t5 -0.5q41 0 115 49
q191 125 403 339t329 413z" />
    <glyph glyph-name="bracketleft" unicode="[" horiz-adv-x="1172" 
d="M1488 2500q19 0 32.5 -14.5t15.5 -34.5q0 -21 -14.5 -36.5t-35.5 -15.5l-497 -10l-869 -3540l640 9q22 0 36 -14t14 -36q0 -20 -14 -35.5t-33 -15.5l-666 -9q-15 -28 -45 -28q-10 0 -15 2q-22 3 -31 24h-24q-21 0 -35.5 14.5t-16.5 35.5q0 21 15 35.5t35 14.5l38 3
l883 3602q5 18 19.5 28.5t30.5 10.5l533 9l2 1h2z" />
    <glyph glyph-name="backslash" unicode="\" horiz-adv-x="1634" 
d="M240 2263q15 0 28.5 -9.5t18.5 -24.5l1172 -3153q3 -9 3 -17q0 -36 -34 -47q-12 -4 -18 -4q-15 0 -28 8.5t-18 23.5l-1170 3153q-3 9 -3 18q0 36 32 49q7 3 17 3z" />
    <glyph glyph-name="bracketright" unicode="]" horiz-adv-x="1070" 
d="M1048 2500q7 0 10 -1q21 -6 33 -26h24q22 0 36 -14.5t14 -35.5t-14.5 -36t-35.5 -15h-36l-885 -3605q-4 -16 -18 -27t-32 -11l-530 -10q-22 0 -37.5 14.5t-15.5 35.5t14.5 36t35.5 15l495 9l868 3541l-637 -10q-22 0 -37 14.5t-15 36.5q0 21 15 35.5t35 14.5l666 10
q14 29 45 29h2z" />
    <glyph glyph-name="asciicircum" unicode="^" horiz-adv-x="821" 
d="M451 739q40 0 69 -45.5t81 -170.5l43 -106q5 -10 5 -20q0 -33 -32 -44q-12 -5 -21 -5q-30 0 -45 31l-43 105q-19 44 -33.5 84t-19 55t-7.5 15q-1 0 -7 -11t-21 -39.5t-32 -57.5q-41 -75 -102 -170q-15 -24 -44 -24q-15 0 -26 7q-23 14 -23 41q0 16 9 29q25 41 60.5 100.5
t39.5 66.5q62 107 86 132q27 27 57 27h6z" />
    <glyph glyph-name="underscore" unicode="_" horiz-adv-x="994" 
d="M235 -375h487q22 0 36 -14t14 -36t-14 -36t-36 -14h-487q-21 0 -35.5 14t-14.5 36t14.5 36t35.5 14z" />
    <glyph glyph-name="grave" unicode="`" horiz-adv-x="673" 
d="M243 1644q17 0 31 -12l210 -173q18 -17 18 -40q0 -16 -11 -32q-17 -18 -40 -18q-16 0 -32 11l-210 175q-17 15 -17 39q0 18 12 33q15 17 39 17z" />
    <glyph glyph-name="a" unicode="a" horiz-adv-x="1190" 
d="M755 907q15 0 28 -9q22 -14 22 -42q0 -14 -8 -25q-221 -462 -361 -850q-93 -262 -117 -393q-11 -72 -11 -102q0 -37 12 -43q1 0 3 -0.5t3 -0.5q79 0 313 246q129 138 287 331.5t253 320.5t113 157q16 24 46 24q15 0 26 -7q21 -17 21 -45q0 -14 -7 -27
q-27 -40 -118 -161.5t-254 -322t-295 -339.5q-261 -276 -392 -276q-8 0 -20 2q-15 4 -17 5q-71 28 -71 150q0 45 10 104q35 179 122 413q67 186 141 360q-337 -464 -421 -489q-17 -7 -35 -7q-25 0 -46 16q-43 29 -43 111q0 62 22 144q46 174 152 358t228 263q56 38 130 38
q71 0 168 -35l72 108q17 23 44 23zM471 709q-46 0 -75 -20q-72 -46 -143 -146.5t-119.5 -208.5t-74.5 -209q-19 -71 -19 -117v-22q55 32 212.5 243t327.5 460q-64 20 -109 20z" />
    <glyph glyph-name="b" unicode="b" horiz-adv-x="1366" 
d="M1165 2888q10 0 20 -5q29 -14 29 -45q0 -10 -5 -22q-157 -335 -438.5 -974t-481.5 -1143q-107 -262 -227 -588q98 153 221.5 308.5t239.5 260.5q107 94 184 129q63 30 116 30q36 0 66 -13q33 -14 62 -43q42 -49 42 -111q0 -46 -23 -98q-36 -89 -139 -204q391 145 648 145
q4 0 14 -0.5t15 -0.5q21 0 35.5 -15.5t14.5 -37.5q-2 -19 -16.5 -33.5t-33.5 -14.5h-3q-5 0 -14.5 0.5t-14.5 0.5q-175 0 -401 -69t-454 -174q-47 -38 -100 -77q-112 -83 -211 -136t-142 -53q-13 0 -18 4l-4 5q-15 13 -20 31q-2 8 -2 13q0 11 5 21q12 33 69 74q50 40 156 99
q110 58 212 105q91 79 151 139q123 124 160 216q14 33 14 58q0 29 -16 46q-16 14 -24 16q-14 6 -29 6q-30 0 -72 -20q-71 -33 -158 -113q-166 -149 -340.5 -394.5t-225.5 -368.5l-5 -5q-12 -27 -43 -27q-12 0 -24 6q-23 13 -23 68q0 189 265 853q203 511 489.5 1163.5
t432.5 958.5q14 29 47 29z" />
    <glyph glyph-name="c" unicode="c" horiz-adv-x="1181" 
d="M612 833q12 0 34 -2q25 -4 50 -19q29 -17 38 -58q2 -6 2 -19q0 -23 -12 -48q-14 -35 -57 -75q-16 -14 -36 -14q-25 0 -40 19q-15 15 -15 36q0 22 17 41l29 29h-10q-37 0 -88 -19q-147 -65 -292 -221q-146 -163 -167 -288q-3 -13 -3 -26q0 -21 8 -39q19 -47 93 -47
q98 0 296 83q122 51 418 202q322 164 450 208q8 4 19 4q16 0 30 -10t20 -27q3 -9 3 -18q0 -39 -36 -52q-25 -9 -51.5 -19t-61.5 -25.5t-55.5 -25t-67 -32.5t-61.5 -30t-71.5 -35.5t-66.5 -33.5q-257 -134 -426 -207q-218 -90 -345 -90q-141 0 -188 112q-16 36 -16 81
q0 14 4 44q12 79 64 169.5t130 175.5q165 178 330 247q70 29 131 29z" />
    <glyph glyph-name="d" unicode="d" horiz-adv-x="992" 
d="M1527 2331q12 0 25 -5q30 -16 30 -50q0 -14 -6 -24v-3q-23 -48 -112.5 -254.5t-241 -565t-310 -774t-301.5 -827t-234.5 -780.5t-91.5 -581q0 -201 84 -255q26 -17 26 -47q0 -16 -7 -27q-17 -27 -48 -27q-17 0 -29 8q-121 73 -121 347q0 210 68.5 528t188 687.5t246 714
t276.5 713.5q-128 -223 -254 -425q18 -17 18 -41q0 -19 -11 -33q-18 -21 -44 -21q-12 0 -20 4q-326 -508 -469 -557q-18 -6 -35 -6q-34 0 -63 21q-41 28 -57 101q-5 35 -5 73q0 27 3 56q16 123 78 249t161 200q72 53 169 53q22 0 46 -3q69 -6 143 -40q110 179 237.5 405
t231.5 421.5t191.5 364.5t138.5 269l50 100q16 31 49 31zM446 674q-68 0 -111 -33q-81 -61 -131 -165t-62 -207q-4 -38 -4 -53q0 -19 4 -45q6 -27 12 -31l1 1q0 1 1 1q124 41 413 504q-38 19 -95 26q-20 2 -28 2z" />
    <glyph glyph-name="e" unicode="e" horiz-adv-x="1377" 
d="M601 863q37 0 64 -11q34 -12 60 -45q18 -28 18 -59q0 -23 -9 -47q-14 -44 -71 -98q-146 -134 -533 -255q-23 -37 -34 -74q-27 -73 -27 -129q0 -50 22 -87q29 -50 114 -50q66 0 159.5 26t230 85t217.5 97.5t247 119.5q346 170 457 207q7 3 16 3q16 0 29.5 -9.5t18.5 -24.5
q2 -10 2 -15q0 -17 -9.5 -31t-25.5 -19q-143 -51 -442 -202q-166 -81 -251.5 -121t-225 -99t-243 -85.5t-184.5 -26.5q-142 0 -196 92q-36 62 -36 143q0 78 32 162q27 66 40 89q5 19 17 29q41 75 115 163q115 139 241 211q104 61 187 61zM596 762q-57 -2 -132 -46
q-114 -70 -215 -190q-21 -25 -33 -43q263 92 380 194q34 35 45 60q2 3 2 7t-2 5q0 4 -12 7q-15 6 -33 6z" />
    <glyph glyph-name="f" unicode="f" horiz-adv-x="685" 
d="M912 1660q11 0 17 -1q112 -16 175 -180q3 -8 3 -16q0 -15 -9 -29t-23 -20q-9 -3 -19 -3q-36 0 -48 32q-38 107 -91 115q-1 0 -4.5 0.5t-5.5 0.5q-131 0 -375 -421q-74 -129 -160 -300q111 18 212 18t187 -20q18 -3 29 -18t11 -34q0 -2 -0.5 -4t-0.5 -4q-5 -18 -19 -29
t-32 -11q-8 0 -12 1q-73 18 -166 18q-123 0 -264 -31q-133 -279 -275 -632q-216 -539 -374.5 -1025.5t-158.5 -604.5q0 -24 8 -29q27 -15 27 -44q0 -13 -6 -25q-6 -10 -28 -20.5t-43 -10.5q-62 0 -62 90q0 8 2 32q20 199 174 671.5t366 1003.5q119 298 242 562
q-42 -12 -82 -25t-59 -21l-18 -7q-9 -3 -19 -3q-36 0 -47 32q-4 12 -4 19q0 34 32 45q0 1 31 13t93.5 31.5t129.5 35.5q103 215 198 376q273 471 467 472h1z" />
    <glyph glyph-name="g" unicode="g" horiz-adv-x="848" 
d="M727 693q17 0 33 -13q17 -15 17 -38q0 -10 -5 -22q-163 -354 -378 -852l-95 -219q345 200 773 200q228 0 479 -58q17 -3 28 -18t11 -33q0 -6 -1 -9q-4 -18 -19 -29t-34 -11q-2 0 -5 0.5t-4 0.5q-236 55 -453 55q-485 0 -849 -268q-111 -246 -184 -406
q-154 -321 -256 -403q-55 -43 -91 -43q-60 0 -60 100q0 40 10 89q15 82 64 189.5t127 218.5q128 182 308 320q91 213 158 364q215 490 249 564q-339 -360 -435 -396q-20 -8 -43 -8q-47 0 -79 40q-35 44 -35 129q0 34 8 79q26 137 115 248q144 179 371 179q85 0 181 -28
l55 60q16 18 39 18zM453 540q-179 0 -295 -141q-73 -91 -94 -202q-5 -29 -5 -62q0 -46 13 -63q1 -1 3 -1q4 0 6 1q89 31 476 456q-56 12 -104 12zM41 -784q-81 -90 -125 -152q-137 -193 -174 -367q-1 -8 -6.5 -19t-10 -19.5t-4.5 -9.5t1 -1q0 1 1 1q84 69 227 367
q15 34 91 200z" />
    <glyph glyph-name="h" unicode="h" horiz-adv-x="1718" 
d="M1134 2601q7 0 11 -1h2q4 -2 10 -6.5t9 -5.5q16 -16 16 -58q0 -57 -28 -142q-40 -130 -136 -326q-203 -415 -466 -720q-270 -616 -409 -1030q-51 -145 -83 -259q60 107 113 197.5t125 205t138.5 202.5t136.5 166t136.5 120t121.5 42q25 0 48 -9q81 -32 81 -177
q0 -54 -16 -192q-18 -150 -18 -223q0 -108 32 -159q36 -55 119 -55q213 0 763 357q13 9 29 9q26 0 43 -23q7 -11 7 -26q0 -29 -24 -44q-566 -368 -828 -368q-133 0 -195 95q-48 77 -48 216q0 70 19 233q19 142 19 195q0 61 -19 69q-11 4 -24 4q-39 0 -91.5 -41
t-105.5 -102.5t-118.5 -156t-118 -178.5t-117 -195.5t-103 -181.5t-87.5 -159q-5 -9 -7 -13l-14 -24q-12 -27 -43 -27q-12 0 -24 6q-39 22 -39 106q0 136 97 424q99 300 306 792q-38 -35 -75 -65q-14 -11 -31 -11q-24 0 -40 18q-11 16 -11 33q0 26 20 39q137 115 249 245
q262 594 452 941q148 263 215 263h1zM1020 2314l-14 -24q-118 -223 -241 -482q74 119 162 297q36 72 93 209z" />
    <glyph glyph-name="i" unicode="i" horiz-adv-x="1149" 
d="M589 1430q25 0 47 -14.5t22 -32.5q0 -17 -23 -31q-30 -18 -65.5 -58.5t-56.5 -70.5t-21 -32q-12 -23 -32 -23q-14 0 -25 12t-11 30q0 8 3 17q2 6 5.5 15.5t16.5 37t27 51t36 49.5t45 41q13 9 32 9zM211 649q15 0 32 -10q24 -18 24 -47q0 -16 -9 -30q-71 -102 -93 -190
q-9 -34 -9 -66q0 -31 11 -61q29 -70 135 -70q145 0 484 147q29 12 165 72q210 97 315 134q9 3 19 3q39 0 53 -36q3 -9 3 -17q0 -17 -10 -32t-26 -21q-104 -38 -311 -132q-111 -51 -165 -72q-362 -155 -532 -155q-173 0 -230 136q-21 45 -21 103q0 48 13 96q29 110 108 223
q15 25 44 25z" />
    <glyph glyph-name="j" unicode="j" horiz-adv-x="351" 
d="M313 1441q22 0 41.5 -11t23.5 -28q2 -8 2 -27q0 -36 -14 -85.5t-28 -81.5l-13 -32q-12 -22 -35 -22q-15 0 -26 10.5t-11 26.5q0 8 3 17q21 77 21 141q0 24 -5 46q-2 10 -2 13q0 33 43 33zM197 692h9q19 -4 31 -19t12 -35v-4q-17 -108 -153 -429.5t-304 -650.5
q383 200 854 200q154 0 315 -22q19 -3 31.5 -18t12.5 -32q0 -5 -1 -8q-2 -19 -16 -31.5t-33 -12.5q-6 0 -9 1q-155 22 -304 22q-529 0 -941 -267q-143 -266 -262.5 -433.5t-191.5 -183.5q-13 -3 -27 -3q-38 0 -56 30l-5 7q-12 19 -12 50q0 49 28 108q47 105 137 214
q134 160 313 281l24 43q179 340 331 690t168 459q4 20 17 32t32 12zM-504 -777q-43 -40 -105 -113q-85 -102 -125 -190q-11 -26 -16 -40q82 62 246 343z" />
    <glyph glyph-name="k" unicode="k" horiz-adv-x="1280" 
d="M1139 2602q15 0 26 -7q24 -18 24 -44q0 -15 -9 -28q-53 -82 -141 -243q-152 -276 -344 -677t-349 -775q-252 -595 -299 -818q124 213 165 278q8 39 74 118q139 219 248 358q105 135 175 189q68 54 120 54q31 0 57 -20q12 -7 26 -31q7 -11 7 -27q0 -20 -10.5 -44
t-36.5 -55.5t-47.5 -55.5t-66.5 -66t-69 -64t-78 -70q-201 -180 -232 -211q-19 -29 -57 -91q12 -5 69 -12q26 -2 43 -2q97 0 234 26q315 61 739 235q9 3 18 3q35 0 49 -32q3 -8 3 -17q0 -35 -32 -48q-433 -180 -758 -240q-152 -28 -258 -28q-18 0 -48 2q-71 8 -112 29
q-36 -58 -203 -351v-2q-16 -25 -43 -25q-12 0 -24 6l-7 4q-34 22 -34 102q0 239 294 945q160 378 353 781.5t345 679.5q85 161 146 250q14 24 43 24zM822 908q-7 0 -49 -34q-54 -44 -131 -137q184 163 184 168l-2 3h-2z" />
    <glyph glyph-name="l" unicode="l" horiz-adv-x="347" 
d="M965 2191q22 0 42 -26q7 -11 7 -35q0 -67 -37.5 -209t-98.5 -291q-73 -178 -170 -334q-114 -170 -217 -216q-4 -1 -11.5 -4t-13.5 -5t-11 -3l-24 -52q-207 -464 -354 -861t-174 -603q-6 -48 -6 -78q0 -47 13 -50q20 -3 32.5 -17t12.5 -34v-6q-3 -19 -17.5 -31t-33.5 -12
h-6q-100 14 -100 166q0 31 5 76q28 216 178.5 623t358.5 867l5 12q-24 8 -41 20q-26 14 -26 43q0 15 7 26q16 26 45 26q14 0 25 -7q21 -12 33 -12q180 391 333.5 681.5t201.5 326.5q22 19 42 19zM888 1944q-157 -280 -354 -708q49 54 88 118q77 117 163 314q48 121 103 276z
" />
    <glyph glyph-name="m" unicode="m" horiz-adv-x="1650" 
d="M619 999q44 0 81 -34q67 -57 67 -197q0 -58 -13 -139.5t-25 -131.5t-36 -146q-12 -49 -28 -102.5t-25.5 -84t-9.5 -36.5q0 -3 1 -3q3 0 100 106q50 55 81 86t82 74.5t101 64.5t100 22h4q38 0 71.5 -18t52 -37t46.5 -55q21 -27 35 -42t40.5 -29.5t57.5 -14.5
q119 0 350 206q13 13 32 13q24 0 40 -18q11 -16 11 -34q0 -23 -16 -38q-269 -240 -425 -240q-35 0 -65 10.5t-56.5 33.5t-41.5 40t-41 50q-2 3 -8.5 11t-9 11t-8.5 10t-8.5 9.5l-8 8t-9 8t-8.5 6t-9.5 5t-9.5 2.5t-10 1h-4q-35 -1 -72.5 -19t-80.5 -56t-68 -63.5t-71 -74.5
q-43 -48 -67.5 -72.5t-57 -46t-58.5 -21.5q-12 0 -22 3q-51 18 -51 99q0 61 46 249q72 290 72 397q0 87 -34 116q-7 7 -19 7q-39 0 -117 -91q-193 -226 -509 -921l-26 -55q-13 -32 -47 -32q-7 0 -15 3q-16 5 -26 19.5t-10 31.5q0 4 2 14l70 200q71 201 172.5 473t166.5 414
q15 31 46 31q9 0 21 -5q29 -14 29 -45q0 -10 -5 -22q-43 -95 -120 -293q91 158 175 252q109 130 198 130z" />
    <glyph glyph-name="n" unicode="n" horiz-adv-x="1165" 
d="M249 822q9 0 17 -3q32 -13 32 -47q0 -9 -3 -18q-79 -226 -93 -266q215 316 379 316q30 0 60 -12q84 -33 84 -192q0 -52 -12 -168q-10 -120 -10 -170q0 -87 24 -115q12 -14 36 -14q111 0 500 347q14 14 33 14q22 0 38 -16q12 -15 12 -35q0 -22 -16 -37
q-407 -366 -583 -366q-61 0 -96 40q-48 56 -48 192q0 54 10 170q12 124 12 172q0 76 -22 85q-13 6 -30 6q-23 0 -49 -11.5t-54.5 -37.5t-54 -51t-57.5 -69.5t-54.5 -74.5t-55.5 -84t-49.5 -80t-47 -81t-38.5 -69t-33 -60q-17 -29 -34 -63q-14 -23 -44 -23q-11 0 -16 2
q-15 4 -25 18t-10 30q0 4 2 14l42 126q42 126 104 307t103 292q12 32 47 32z" />
    <glyph glyph-name="o" unicode="o" horiz-adv-x="1204" 
d="M374 726q13 0 20 -1l7 -2q31 -6 41 -12q60 -25 86 -99q15 -38 15 -91q0 -23 -3 -48q3 -3 6 -7.5t6 -9.5t5 -7q116 -54 263 -54q231 0 506 133q10 5 20 5q32 0 47 -29q5 -12 5 -22q0 -32 -29 -47q-294 -141 -545 -141q-136 0 -255 42q-12 -72 -61.5 -158.5t-118.5 -162.5
q-69 -79 -143 -127.5t-133 -48.5q-10 0 -15 1q-122 13 -122 195q0 30 5 78l2 34q33 209 134 379q120 200 257 200zM378 625q-85 0 -173 -152q-44 -75 -76.5 -167.5t-44.5 -175.5l-3 -26q-6 -46 -6 -79q0 -82 32 -85h5q73 0 203 142q46 51 103 139q-3 2 -7 3t-5 2
q-30 14 -30 47q0 11 4 20q32 65 45 118q-8 6 -15 11.5t-9.5 7.5t-3.5 2q-15 18 -15 38v6q3 19 16.5 31.5t32.5 12.5q6 0 9 -1h2q0 39 -10 60q-10 30 -31 41q-2 0 -6.5 1t-7.5 1l-2 2q-2 1 -7 1z" />
    <glyph glyph-name="p" unicode="p" horiz-adv-x="1421" 
d="M834 824q21 0 42 -8q27 -10 50 -33q39 -46 39 -109q0 -54 -27 -112q-43 -97 -162 -226q468 184 754 184q6 0 16.5 -0.5t15.5 -0.5q21 0 34.5 -14t13.5 -35v-4q0 -20 -15.5 -34t-37.5 -14q-5 0 -15 0.5t-15 0.5q-188 0 -456 -85t-523 -204q-18 -15 -51 -40.5t-39 -29.5
q-90 -67 -169 -108t-123 -45q-179 -308 -309.5 -606.5t-161.5 -488.5q0 -9 -7 -19q-15 -26 -44 -26q-14 0 -25 7q-12 6 -12 50l-12 3q7 53 26 120q36 193 160 593q105 332 226 685t197 548q16 31 48 31q11 0 19 -4q32 -12 32 -46q0 -10 -3 -19q-140 -352 -361 -1032
q164 316 366 612q172 251 303 379q132 129 226 130zM832 724q-47 0 -154 -102q-129 -129 -290 -365q-64 -92 -95 -144q35 20 67 36q18 10 39.5 20.5t50 24.5t44.5 22q97 79 172 154q141 143 181 235q17 43 17 68q0 24 -14 43q-3 2 -8 7q-3 1 -10 1z" />
    <glyph glyph-name="q" unicode="q" horiz-adv-x="1368" 
d="M846 1023q16 0 27 -7q22 -16 22 -43q0 -16 -7 -27q-34 -53 -123.5 -271.5t-192.5 -496.5q209 141 462 237.5t468 96.5q22 0 36 -14.5t14 -36.5t-14 -36t-36 -14q-208 0 -459 -100.5t-452 -242.5q-33 -23 -79 -60q-52 -147 -93 -274l3 -5q34 -68 34 -169q0 -74 -20 -164
q-18 -83 -48 -158t-60 -114q-19 -27 -40 -38q-23 -10 -41 -10h-9q-60 13 -60 110q0 36 5 66q18 106 69 285q4 12 55 180l-10 7q-32 26 -40 63q-4 12 -4 29q0 68 73 153q41 49 100 99q97 267 161 429q-272 -380 -349 -403q-22 -7 -44 -7q-39 0 -69 24q-39 32 -55 101
q-7 29 -7 70q0 29 3 59q12 123 73.5 242t169.5 190q54 37 144 37q80 0 203 -34q35 53 71 108t54.5 84t20.5 31v2q17 22 44 22zM452 710q-54 0 -88 -21q-87 -57 -137.5 -156.5t-60.5 -200.5q-3 -20 -3 -40q0 -31 5 -59q8 -33 22 -43q1 -1 5 -1q6 0 9 1q75 24 392 497
q-86 23 -144 23zM355 -470l-5 -19q-47 -156 -65 -257q32 74 53 163q12 46 17 113z" />
    <glyph glyph-name="r" unicode="r" horiz-adv-x="857" 
d="M244 783q8 0 17 -3q32 -14 32 -49q0 -9 -3 -18q-53 -137 -115 -312q143 192 274 192q32 0 69 -11.5t61.5 -24t66.5 -36.5q34 -19 54.5 -29t54 -20t63.5 -10q78 0 160 62q14 10 33 10q25 0 39 -20q10 -13 10 -30q0 -25 -20 -40q-116 -89 -224 -89q-39 0 -81 13t-68.5 26
t-70.5 38q-88 51 -136 51q-40 0 -81 -24.5t-93 -82.5t-115 -166t-137 -265q-13 -28 -44 -28q-5 0 -13 2q-38 10 -38 48q0 4 2 14q38 148 102 340t109 310l44 118q13 34 48 34z" />
    <glyph glyph-name="s" unicode="s" horiz-adv-x="992" 
d="M553 776q57 0 93 -24q42 -25 57 -75q3 -13 3 -27q0 -69 -62 -143q-15 -18 -39 -18q-19 0 -33 13q-18 14 -18 37q0 21 13 35q39 42 39 73q0 1 -0.5 3t-0.5 3q-4 10 -9 12q-14 10 -43 10q-61 0 -146.5 -46.5t-176.5 -140.5q-31 -33 -40 -46q-70 -82 -86 -146q-5 -20 -5 -34
q0 -36 24 -60l7 -5q243 -203 315 -410q192 218 377.5 418t260.5 271q17 14 36 14q21 0 36 -17q13 -13 13 -34q0 -23 -15 -38q-79 -74 -279.5 -289.5t-399.5 -442.5q5 -48 5 -55v-10q0 -146 -79 -276q-67 -111 -179 -199q-70 -52 -141.5 -82.5t-118.5 -30.5q-17 0 -30 5
q-4 0 -9 5l-7 5q-1 1 -2.5 2t-2.5 2.5t-2 2.5q-11 13 -11 31q0 9 3 17q8 44 55 110q66 94 170 216q87 106 241 286q-46 207 -301 422l-12 10q-55 52 -55 129q0 27 8 61q24 91 105 187q25 29 47 53q106 110 210 163t185 53zM376 -446q-117 -136 -174 -206q-88 -105 -165 -211
l-4 -5l3 1q48 20 125 78q94 71 153 170q52 86 62 173z" />
    <glyph glyph-name="t" unicode="t" horiz-adv-x="342" 
d="M968 2186q14 0 28 -9q22 -13 22 -40q0 -15 -8 -29q-68 -110 -188 -337q555 66 1118 66q598 0 1202 -75q20 -1 32.5 -16t12.5 -34v-5q-3 -21 -18 -33.5t-35 -12.5h-4q-592 75 -1195 75q-594 0 -1168 -73q-215 -420 -479 -996t-490 -1132q-520 -1283 -559 -1788
q-1 -21 -15.5 -33.5t-35.5 -12.5h-4q-19 2 -32 16t-13 32v5q37 510 566 1819q218 535 472 1091.5t469 981.5q-214 -30 -418 -70t-341.5 -74.5t-246.5 -66t-159 -48.5t-53 -19q-7 -3 -16 -3q-16 0 -29.5 9t-19.5 23q-3 9 -3 17q0 17 9.5 31t25.5 19l5 2q361 126 883 223
q206 38 419 66q149 290 225 408q15 23 38 23h3z" />
    <glyph glyph-name="u" unicode="u" horiz-adv-x="922" 
d="M774 828q18 0 33 -12q18 -15 18 -38q0 -8 -3 -17l-5 -12q-2 -4 -15.5 -41.5t-19.5 -55.5t-21 -61t-24 -69.5t-23 -69.5t-22.5 -72t-19 -66.5t-16 -64.5t-9.5 -53t-4 -44q0 -31 11 -39q2 -2 7 -2q56 0 364 389q14 19 39 19q18 0 32 -12q18 -15 18 -38q0 -18 -10 -32
q-328 -418 -467 -418q-27 0 -45 15q-36 28 -36 115q0 123 77 375q-131 -174 -160 -214q-38 -52 -54.5 -75t-48.5 -65.5t-48 -61.5t-42 -48.5t-43 -42.5t-38.5 -28.5t-40 -21t-37.5 -5.5q-23 0 -40 7q-71 24 -79 125q0 3 -0.5 9.5t-0.5 10.5q0 62 22 153q54 212 189 470
q14 27 46 27q11 0 23 -5q27 -17 27 -47q0 -10 -5 -23q-130 -242 -182 -446q-19 -81 -19 -129v-13q5 -33 12 -36h7q33 0 92.5 70t177.5 233q207 285 344 444q18 16 39 16z" />
    <glyph glyph-name="v" unicode="v" horiz-adv-x="1015" 
d="M728 828h3q16 0 28 -12q19 -13 19 -38q0 -4 -2 -14q0 -3 -1 -9.5t-1.5 -11.5t-0.5 -9q0 -7 1 -11q9 -51 81 -103q69 -46 162 -72q63 -17 109 -17q11 0 25 2q3 1 9 1q18 0 32 -11.5t17 -30.5q0 -2 0.5 -4t0.5 -4q0 -18 -11.5 -32t-30.5 -17q-22 -5 -44 -5q-58 0 -133 22
q-109 26 -194 86q-76 52 -105 113q-63 -85 -150 -211q-180 -253 -306 -399q-25 -31 -58 -36q-4 -1 -12 -1q-45 0 -66 49l-3 5q-16 38 -21 86q-5 43 -5 90q0 219 74 431q13 34 47 34q9 0 18 -3q15 -5 24.5 -18.5t9.5 -29.5q0 -8 -3 -16q-69 -194 -69 -401q0 -31 4 -75
q0 -14 5 -26q129 154 277 370q18 24 66.5 91.5t86 118t77.5 99.5q15 19 40 19z" />
    <glyph glyph-name="w" unicode="w" horiz-adv-x="1365" 
d="M1074 755q17 0 30 -11q9 -5 15 -19q47 -95 157 -151q91 -46 178 -46q30 0 47 5q8 2 12 2q18 0 31.5 -11t16.5 -29q2 -8 2 -12q0 -17 -10.5 -30t-27.5 -18q-32 -8 -69 -8q-111 0 -225 56q-103 53 -160 129l-31 -50q-45 -69 -70.5 -107.5t-76 -112t-87.5 -119t-81 -96.5
t-81.5 -78.5t-67.5 -33.5q-14 -2 -22 -2q-73 0 -90 100q-17 102 -17 197v24l2 36q-173 -255 -262 -266q-5 -1 -16 -1q-76 0 -92 121q-4 50 -4 77q0 47 6 98q17 114 48 209q13 36 47 36q9 0 18 -3q34 -10 34 -46q0 -9 -3 -16q-32 -106 -43 -192q-6 -47 -6 -90q0 -33 3 -61v-7
q0 -8 -2 -15l-2 -8q0 -2 2 -2q19 3 50.5 35.5t73.5 92.5t70.5 102.5t70.5 108.5q42 67 60 91q15 20 40 20q16 0 29 -10q22 -14 22 -41q0 -8 -3 -17q-38 -123 -43 -257v-26q0 -93 15 -171v-4q0 -3 -1 -6t-2 -5l-1 -2q0 1 1 1q84 15 395 501q14 21 31.5 47.5t29 43.5t18.5 27
q14 20 41 20z" />
    <glyph glyph-name="x" unicode="x" horiz-adv-x="1388" 
d="M801 934q23 0 38 -17q13 -14 13 -34q0 -25 -18 -38q-7 -3 -78 -67.5t-199 -197t-230 -264.5q135 -155 325 -155q111 0 254 53q80 29 188 83t166.5 87t206.5 118l36 22q13 7 28 7q33 0 46 -27q8 -12 8 -28q0 -32 -27 -46l-38 -22q-190 -112 -322.5 -182.5t-253.5 -114.5
q-174 -64 -308 -64q-222 0 -378 174q-173 -245 -220 -444q-3 -18 -16.5 -29t-30.5 -11q-5 0 -13 2q-18 4 -29 17.5t-11 30.5q0 4 2 12q54 228 254 504q-85 123 -153 312q-4 9 -4 21q0 37 35 48q9 4 21 4q36 0 50 -35q56 -151 123 -255q101 128 229.5 261.5t179.5 179.5
t93 82l1 1q15 12 32 12z" />
    <glyph glyph-name="y" unicode="y" horiz-adv-x="856" 
d="M288 815q13 0 25 -6q26 -15 26 -44q0 -14 -7 -25q-143 -263 -186 -420q-28 -88 -28 -140q0 -32 11 -43q2 -2 6 -2q42 0 266 245q158 167 287 336l24 26q16 19 38 19q18 0 31 -12q20 -14 20 -38q0 -10 -5 -22q-129 -318 -316 -849q-70 -197 -90 -255q254 127 568 127
q307 0 660 -122q35 -12 35 -49q0 -11 -2 -16q-5 -15 -18.5 -24.5t-28.5 -9.5q-8 0 -17 3q-340 117 -627 117q-356 0 -625 -175q-86 -221 -118 -297q-138 -331 -243 -413q-53 -41 -90 -41q-32 0 -49.5 29.5t-17.5 83.5q0 39 11 96q17 94 74.5 208.5t152.5 221.5
q96 108 196 177q26 70 74 204.5t60 167.5q100 286 203 564q-69 -79 -112 -125q-247 -269 -364 -269q-32 0 -52 20q-39 37 -39 121q0 72 27 164q52 182 196 440q15 27 44 27zM177 -693q-8 -8 -46 -51q-83 -94 -135.5 -195.5t-69.5 -185.5q-3 -13 -6.5 -30.5t-5.5 -26.5
t-2 -10q84 64 212 372q17 35 53 127z" />
    <glyph glyph-name="z" unicode="z" horiz-adv-x="1082" 
d="M607 899q73 0 73 -30q0 -42 -136 -137q-243 -174 -363 -307q-129 -145 -129 -239q0 -28 12 -54q17 -37 78 -37q60 0 174 40.5t207 83.5t255 122q310 148 423 187q9 4 20 4q16 0 30 -10t20 -27q4 -12 4 -19q0 -37 -36 -51q-112 -39 -413 -185q-128 -62 -197 -93.5
t-173 -75t-181.5 -62.5t-138.5 -19q-127 0 -170 94q-23 47 -23 101q0 141 159 315q27 30 57.5 59t53 49t59.5 48t53.5 40t60 42.5t55.5 39.5q9 6 9 8t-4 2q-21 0 -137 -35t-221 -70l-106 -35q-5 -2 -16 -2q-17 0 -32 10.5t-21 27.5q-2 8 -2 13q0 19 11 34.5t29 20.5
q8 4 126 38t283 71.5t247 37.5z" />
    <glyph glyph-name="braceleft" unicode="{" horiz-adv-x="1045" 
d="M1330 2591q32 0 60 -8q16 -4 27 -18.5t11 -31.5q0 -4 -2 -12q-5 -17 -18.5 -27.5t-30.5 -10.5q-5 0 -13 2q-15 4 -32 4q-109 0 -211 -218q-66 -140 -175 -498l-17 -57v-1l-1 -2q-114 -375 -182 -536q-138 -328 -305 -410q-18 -9 -37 -15q79 -136 79 -387q0 -186 -60 -598
q-57 -389 -57 -552q0 -158 40.5 -252t136.5 -114q19 -5 30 -19.5t11 -31.5q0 -6 -1 -9q-4 -19 -18.5 -30.5t-32.5 -11.5q-6 0 -9 1q-73 15 -124 55.5t-79.5 103t-41 136.5t-12.5 169q0 79 10 188.5t18 171.5t29 209q59 417 59 589q0 273 -102 379q-17 17 -17 39
q0 21 15 35.5t35 14.5q45 0 86.5 19t79.5 62.5t69.5 87t66 121t58 134t56.5 156.5t51 158.5t51 167.5q43 142 67 217t65.5 192.5t76 180.5t81 130.5t98.5 97t110 29.5h1z" />
    <glyph glyph-name="bar" unicode="|" horiz-adv-x="541" 
d="M318 2799q20 0 34.5 -13.5t16.5 -34.5v-27q0 -98 -8.5 -513t-21 -939.5t-25 -1033t-21 -857.5t-8.5 -350q0 -21 -15 -36t-35 -15q-21 0 -35.5 15.5t-14.5 37.5q0 1 8.5 349t20.5 855.5t24.5 1030t21 937t8.5 512.5v31q0 20 13 34.5t33 16.5h4z" />
    <glyph glyph-name="braceright" unicode="}" horiz-adv-x="1019" 
d="M447 2590h4q84 0 142.5 -35.5t91 -103t47 -152t15.5 -195.5q0 -143 -28 -475q-28 -322 -28 -469q0 -355 128 -446q13 -10 22 -32q0 -2 0.5 -4.5t0.5 -3.5q0 -19 -11.5 -34t-30.5 -18q-47 -10 -89.5 -37t-80 -77t-68 -99t-61 -131.5t-52 -142t-49 -163.5t-43 -164.5
t-42.5 -172.5q-90 -370 -145 -522q-105 -294 -247 -367q-52 -27 -112 -27h-11q-20 0 -34 15.5t-14 37.5q2 19 15.5 33.5t33.5 14.5h10q126 0 225 225q66 151 159 522l23 92q94 388 154 558q125 355 299 460q13 8 26 15q-107 139 -107 475q0 150 28 472q29 319 29 465
q-1 89 -10.5 156t-31.5 120.5t-61.5 81.5t-96.5 28q-22 0 -36 14t-14 36q0 21 14.5 35.5t35.5 14.5z" />
    <glyph glyph-name="asciitilde" unicode="~" horiz-adv-x="1095" 
d="M241 566q21 0 35 -13q23 -23 76 -36q27 -6 66 -6q63 0 142 18q107 27 182 27q4 0 12 -0.5t11 -0.5q96 -2 146 -50q13 -14 13 -34q0 -22 -16 -38q-16 -14 -35 -14q-21 0 -36 16q-14 16 -77 20h-14q-63 0 -165 -24q-87 -21 -159 -21q-44 0 -91 9q-76 15 -124 60
q-17 15 -17 36q0 19 14 36q15 15 37 15z" />
    <glyph glyph-name="exclamdown" unicode="&#xa1;" horiz-adv-x="715" 
d="M237 -845q-20 2 -34 12.5t-15 25.5q-1 23 21 309.5t54.5 678.5t65 780t55 659.5t22.5 272.5q1 15 16.5 25t35.5 9q21 -1 35 -13t13 -28q0 -1 -22.5 -271.5t-55 -658t-65 -778.5t-54.5 -676.5t-21 -308.5q1 -15 -13 -26t-34 -12h-4zM477 2126q-27 0 -44.5 27t-15.5 65
q4 36 24.5 62t46.5 26q27 0 44.5 -26t15.5 -62q-2 -38 -22.5 -65t-48.5 -27z" />
    <glyph glyph-name="cent" unicode="&#xa2;" horiz-adv-x="2623" 
d="M1923 2574q9 0 16 -3q35 -12 35 -47q0 -8 -3 -17l-82 -243q156 70 287 77q68 0 119 -17q106 -37 141 -151q16 -51 16 -112q0 -73 -21 -163q-63 -282 -305 -700q-16 -26 -45 -26q-14 0 -25 7q-25 16 -25 45q0 12 6 24q240 413 296 671q19 79 19 140q0 50 -12 86
q-22 66 -78 84q-26 10 -63 10q-3 0 -10 -0.5t-11 -0.5q-140 -3 -332 -105l-835 -2532l2 3q367 258 1055 968q14 14 36 14q23 0 36 -14q14 -13 14 -35t-14 -37q-353 -362 -611.5 -601t-457.5 -377q-50 -38 -113 -74l-188 -568q-10 -37 -46 -37q-9 0 -16 3q-16 6 -26 20.5
t-10 31.5q0 5 2 13l155 470q-135 -62 -242 -62q-109 0 -192 62q-192 143 -203 429q0 5 -0.5 15t-0.5 16q0 285 173 676q158 362 451 762q220 298 468 540.5t480 377.5l112 343q5 15 18.5 24.5t29.5 9.5zM1713 2049q-201 -137 -413.5 -353.5t-403.5 -476.5
q-268 -358 -441 -743q-163 -366 -163 -643v-18q11 -242 163 -353q57 -42 134 -42q116 0 286 97z" />
    <glyph glyph-name="sterling" unicode="&#xa3;" horiz-adv-x="2365" 
d="M1905 2434q54 0 103 -18q138 -49 229 -235q69 -137 105 -330.5t36 -412.5q0 -195 -28 -381q-4 -20 -17.5 -32.5t-32.5 -12.5q-2 0 -4 0.5t-4 0.5q-19 4 -31 19.5t-12 34.5v4q28 181 28 372q0 204 -33.5 385t-96.5 307q-73 149 -174 187q-33 11 -67 11q-83 0 -177 -63
q-176 -117 -388 -443t-452 -885q-17 -38 -96 -226h423q21 0 36.5 -14.5t15.5 -35.5t-15.5 -35.5t-36.5 -14.5h-461q-54 -134 -162 -430q-70 -187 -97 -257.5t-75.5 -188t-85.5 -189.5q318 37 893 37q48 0 96.5 -0.5t90 -0.5t82 -1t74 -1.5t63 -1t52 -1.5t39 -1t25.5 -1h8
q21 -1 35.5 -17t14.5 -36q-2 -22 -16.5 -36t-36.5 -14l-30 1q-30 1 -83.5 2.5t-123.5 3.5t-158 4t-179 3.5t-194 2.5t-196 1q-311 0 -492 -11q-22 -39 -38 -57q-80 -114 -159 -114q-42 0 -82 30q-57 42 -57 76q0 72 248 113q58 97 122 256t164 434q26 68 75.5 201t72.5 193
h-296q-21 0 -36.5 14.5t-15.5 35.5t15.5 35.5t36.5 14.5h337q80 198 110 264q479 1111 878 1373q122 81 231 81zM170 -528q-100 -13 -100 -33q0 -6 10 -12q11 -8 21 -8q26 0 69 53z" />
    <glyph glyph-name="currency" unicode="&#xa4;" horiz-adv-x="1305" 
d="M406 1383q35 0 46 -32l122 -333q181 250 353 250q16 0 24 -1q108 -13 152 -122l167 218q15 20 40 20q17 0 30 -10q20 -14 20 -39q0 -17 -11 -33l-215 -285v-10q3 -30 3 -61q0 -98 -26 -231q-34 -165 -98 -322q-50 -131 -120 -247l148 -407q3 -7 3 -17q0 -35 -34 -48
q-8 -3 -15 -3q-16 0 -30 9.5t-19 24.5l-124 341q-153 -200 -314 -200q-20 0 -40 3q-95 17 -145 98l-194 -256q-17 -20 -42 -20q-16 0 -29 10q-20 18 -20 43q0 16 10 29l234 307q-2 8 -7 48q-3 32 -3 64q0 103 24 219q31 140 101 309q53 126 107 214l-148 402q-3 9 -3 17
q0 35 34 48q11 3 19 3zM923 1167q-141 0 -309 -262l100 -273l313 412q-20 116 -88 123h-16zM1032 884l-277 -365l93 -249q38 73 72 158q61 154 90 305q17 75 22 151zM550 790q-22 -43 -60 -129q-65 -153 -93 -293q-24 -115 -24 -187l270 355zM683 423l-291 -385
q28 -79 93 -89q13 -3 28 -3q129 0 268 209z" />
    <glyph glyph-name="yen" unicode="&#xa5;" horiz-adv-x="1498" 
d="M688 2320q10 0 22 -5q26 -12 26 -44q0 -14 -5 -23q-273 -528 -369 -873q-52 -188 -52 -294q0 -83 32 -109q8 -7 22 -7q129 0 661 650q224 272 480 616l45 60q16 19 40 19q16 0 29 -10q20 -14 20 -39q0 -9 -3 -18q-240 -622 -522 -1448h250q21 0 35.5 -15t14.5 -35
q0 -22 -14 -36.5t-36 -14.5h-286l-60 -182l-10 -24h356q21 0 35.5 -15t14.5 -35q0 -22 -14.5 -37.5t-35.5 -15.5h-389q-281 -826 -468 -1292q-14 -32 -49 -32q-9 0 -18 3q-32 13 -32 47q0 6 4 18q176 435 456 1256h-571q-20 0 -35 15.5t-15 37.5q0 20 15.5 35t34.5 15h604
l22 58l50 148h-676q-20 0 -35 15t-15 36q0 19 15.5 34.5t34.5 15.5h709q245 712 408 1151q-113 -151 -310 -396q-557 -677 -766 -677q-36 0 -60 20q-65 55 -65 200q0 124 51 308q101 357 379 892q14 27 45 27z" />
    <glyph glyph-name="brokenbar" unicode="&#xa6;" horiz-adv-x="514" 
d="M291 2786q20 0 34.5 -13.5t16.5 -34.5q1 -11 1 -61q0 -79 -3 -245.5t-7 -348.5t-8 -351.5t-7 -282.5t-3 -114q0 -21 -15 -36t-35 -15q-21 0 -35.5 15.5t-14.5 37.5q0 1 3 113t6.5 280t7.5 348.5t7 346t3 244.5q0 51 -1 62v4q0 20 13 34.5t33 16.5h4zM261 472
q20 0 34.5 -13.5t16.5 -34.5q1 -11 1 -61q0 -79 -3 -245.5t-7 -348.5t-8 -351.5t-7 -282.5t-3 -114q0 -21 -15 -36t-35 -15q-21 0 -35.5 15.5t-14.5 37.5q0 1 3 113t6.5 280t7.5 348.5t7 346t3 244.5q0 51 -1 62v4q0 20 13 34.5t33 16.5h4z" />
    <glyph glyph-name="section" unicode="&#xa7;" horiz-adv-x="2548" 
d="M2677 2418q38 0 67 -7h3q30 -7 62 -24q105 -64 119 -209q2 -32 2 -49q0 -106 -33 -241q-42 -177 -128 -375t-165 -334q-12 -27 -41 -27q-13 0 -26 8q-26 13 -26 42q0 14 7 25q78 139 159.5 328t121.5 357q31 124 31 211q0 15 -2 43q-11 97 -69 132q-13 9 -36 15h-2
q-19 3 -41 3t-34 -1q-174 -17 -479 -204q-8 -5 -12 -7q-257 -157 -535 -391q-299 -253 -511.5 -508.5t-254.5 -435.5q-11 -36 -11 -74q0 -3 0.5 -10t0.5 -10q21 -193 339 -397q169 -108 375.5 -185t383.5 -101q120 -13 163 -74q26 -34 26 -73q0 -26 -10 -49
q-19 -57 -76 -111q-88 -84 -244.5 -153t-335.5 -93h-7q-5 -3 -27 -20q-118 -88 -298.5 -147t-375.5 -59q-111 0 -218 22q-19 3 -30.5 17t-11.5 33q0 7 1 10q4 17 19 28t32 11q6 0 9 -1q96 -19 196 -19q178 0 343.5 54t274.5 133q65 47 91 91q12 21 12 36q0 6 -1 9
q-15 29 -100 39q-187 25 -404 105.5t-395 193.5q-167 107 -270 228t-115 245q-2 12 -2 38q0 46 12 96q47 195 263 464t517 533q297 257 586.5 431.5t471.5 194.5q21 4 46 4t42 -4q321 190 509 211q28 2 42 2zM1928 2078q-173 -58 -408.5 -213.5t-471.5 -362.5
q-290 -252 -497.5 -507.5t-252.5 -436.5q-9 -47 -9 -73q0 -9 2 -25q10 -100 101 -203t238 -195q169 -108 374.5 -184.5t381.5 -100.5q140 -17 179 -96q12 -27 12 -55q0 -30 -16 -68q131 30 241 85t174 117q42 39 52 69q2 10 2 14q0 9 -4 13q-22 29 -98 36
q-188 25 -404 105.5t-393 193.5q-167 106 -270 227.5t-117 247.5q-2 20 -2 31q0 43 14 96q48 197 269 465t531 532q189 160 372 288z" />
    <glyph glyph-name="dieresis" unicode="&#xa8;" horiz-adv-x="725" 
d="M264 1263q26 0 44.5 -23.5t18.5 -58.5q0 -2 -0.5 -6t-0.5 -6q-2 -38 -24 -65.5t-50 -27.5q-26 0 -44.5 24t-18.5 58q0 1 0.5 5t0.5 6q1 39 23 66.5t51 27.5zM496 1263q27 0 44.5 -25t17.5 -63v-6q-2 -38 -24 -65.5t-50 -27.5q-26 0 -44.5 24t-18.5 58q0 1 0.5 5t0.5 6
q1 40 23 67t51 27z" />
    <glyph glyph-name="copyright" unicode="&#xa9;" horiz-adv-x="1167" 
d="M766 1355q4 0 11 -0.5t10 -0.5q92 -9 143 -82t62 -194q15 -117 -12 -266q-27 -152 -78 -285q-41 -102 -92.5 -186.5t-113.5 -149t-135.5 -94.5t-148.5 -18q-95 14 -148.5 83t-68.5 180v3q-15 112 12 259q28 144 83 273q85 207 212.5 342.5t263.5 135.5zM765 1254
q-103 0 -206 -118.5t-176 -297.5q-56 -132 -76 -254q-26 -130 -12 -227v-3q20 -160 131 -177q108 -17 209 94t171 292q52 136 74 266q22 137 12 240q-17 174 -115 184q-2 0 -6 0.5t-6 0.5zM679 1042h3q28 -3 43 -12q39 -18 62 -62q18 -51 14 -91q-3 -57 -31 -115
q-9 -18 -28 -25.5t-39 1.5q-18 9 -25 29t1 38q22 43 22 77q0 29 -7 43q-5 11 -12 14h-5q-40 4 -102 -93q-76 -125 -96 -269q-14 -87 9 -127q8 -11 15 -14q10 -4 24 0q40 11 83 69q13 18 33 21.5t36 -9.5q18 -13 21.5 -33t-9.5 -36q-61 -88 -136 -108q-45 -15 -88 0
q-43 18 -67 62q-39 66 -21 187q11 76 41 159.5t71 149.5q89 145 188 144z" />
    <glyph glyph-name="ordfeminine" unicode="&#xaa;" horiz-adv-x="1040" 
d="M664 1465q15 0 29 -8q21 -13 21 -42q0 -14 -4 -23q-25 -48 -89.5 -195t-113.5 -282q-51 -133 -64 -218q-3 -14 -7.5 -28.5t-7 -22t-2.5 -9.5q33 3 157 137q72 76 162 186.5t137.5 174t66.5 89.5q14 24 42 24q15 0 27 -9q23 -14 23 -41q0 -16 -9 -29q-9 -16 -64 -89.5
t-146 -185t-165 -190.5q-157 -166 -240 -166q-9 0 -13 1q-13 4 -14 5q-54 21 -54 106q0 30 6 64q16 86 69 235l20 50q-109 -137 -148 -151q-12 -4 -26 -4q-24 0 -39 14q-33 19 -33 79q0 39 12 86q26 101 88 209t134 155q37 24 86 24q35 0 85 -14l32 46q16 22 42 22z
M504 1309q-19 0 -30 -8q-56 -37 -107 -127.5t-72 -174.5l-5 -19q62 71 241 326q-13 3 -27 3z" />
    <glyph glyph-name="guillemotleft" unicode="&#xab;" horiz-adv-x="1172" 
d="M766 23q-23 0 -36 17l-62 62l-53 53q-40 36 -57 53t-31.5 40.5t-14.5 44.5q0 16 8 37q15 36 71.5 71t202.5 106l134 65q12 5 22 5q31 0 45 -29q5 -12 5 -22q0 -31 -29 -45q-58 -29 -131 -65q-130 -63 -176 -88t-51 -37q26 -21 69 -62q69 -65 122 -120q13 -14 13 -34
q0 -22 -16 -38q-16 -14 -35 -14zM457 38q-22 0 -38 16q-46 52 -114 115q-39 37 -56.5 55t-32 41.5t-14.5 44.5q0 17 7 34q15 37 68 69.5t190 99.5q11 5 17 8l133 65q12 5 22 5q30 0 45 -26q5 -10 5 -24q0 -31 -29 -46q-28 -14 -71 -35t-60 -30h-1l-1 -1h-1l-1 -1h-1l-1 -1
h-1l-1 -1h-1l-1 -1h-1l-1 -1h-1l-1 -1h-1l-2 -1q-181 -88 -201 -106q-5 -5 -6 -8q0 -2 7.5 -8.5t25 -23t34.5 -33.5q78 -73 121 -120q14 -14 14 -35t-16 -36q-16 -14 -34 -14z" />
    <glyph glyph-name="registered" unicode="&#xae;" horiz-adv-x="958" 
d="M765 1355q3 0 10 -0.5t11 -0.5q92 -9 143.5 -82t64.5 -194q3 -35 3 -73q0 -91 -17 -193q-27 -154 -79 -285q-50 -128 -116 -227t-153 -162t-178 -63q-15 0 -43 4q-95 14 -148.5 83t-68.5 180v3q-4 32 -4 77q0 88 19 182q27 151 81 273q85 207 212 342.5t263 135.5z
M765 1254q-101 0 -204.5 -118.5t-177.5 -297.5q-52 -131 -77 -254q-15 -95 -15 -159q0 -39 4 -68v-3q18 -160 131 -177q18 -2 27 -2q101 0 194 109t161 279q46 120 74 266q15 90 15 173q0 36 -3 67q-20 174 -117 184q-2 0 -6 0.5t-6 0.5zM670 1059q43 0 71.5 -22.5
t40.5 -61.5q9 -27 9 -61q0 -23 -4 -42q-15 -63 -39 -106q-55 -115 -162 -158l110 -100q18 -17 18 -39q0 -20 -13 -33q-15 -17 -36 -17q-19 0 -36 14l-122 111l-7 -24q-4 -19 -24 -96q-15 -32 -50 -32q-8 0 -17 3q-32 14 -32 48q0 7 4 19q6 14 21 79q1 2 8.5 35t13.5 51l-3 5
q-2 10 -2 13q0 18 17 35l2 3q8 34 45 148q35 102 74 156q54 72 113 72zM669 958q-7 0 -31 -31q-32 -44 -59 -129q-15 -38 -31 -94q67 24 112 108q18 39 26 77q4 16 4 32q0 15 -4 23q-3 14 -17 14z" />
    <glyph glyph-name="macron" unicode="&#xaf;" horiz-adv-x="937" 
d="M235 1103h487q22 0 36 -14t14 -36t-14 -36t-36 -14h-487q-21 0 -35.5 14t-14.5 36t14.5 36t35.5 14z" />
    <glyph glyph-name="degree" unicode="&#xb0;" horiz-adv-x="847" 
d="M590 1362h-2q-18 25 -44 39q-21 11 -51 11l-3 1q-43 -2 -84 -35q-35 -28 -59 -75q-6 -9 -21 -45q-16 -35 -16 -92t25 -91l2 -1q17 -26 44 -40q22 -12 51 -10l2 -1q42 2 85 35q35 28 59 75q6 9 21 45q16 35 16 92q0 54 -25 92zM441 922h-6q-51 -1 -100 23l-10 5
q-43 22 -73 64v4q-40 57 -43 138q-4 77 37 171q4 9 12 25q38 74 98 116q62 43 128 46h5q52 1 101 -23l10 -5q44 -23 72 -65l1 -3q38 -56 43 -138q3 -82 -37 -172q-6 -15 -13 -25q-37 -72 -97 -116q-60 -42 -128 -45z" />
    <glyph glyph-name="plusminus" unicode="&#xb1;" horiz-adv-x="1059" 
d="M543 747q22 0 36 -14t14 -36l-2 -321h253q20 0 35 -15.5t15 -35.5q0 -22 -15 -37.5t-35 -15.5h-256l-2 -321q0 -21 -15.5 -35.5t-36.5 -14.5q-19 0 -33.5 13.5t-14.5 32.5v4l2 321h-253q-21 0 -35.5 15.5t-14.5 37.5q0 21 14.5 36t35.5 15h253l5 321q0 22 14 36t36 14z
M295 -375h487q21 0 36.5 -14.5t15.5 -35.5t-15.5 -35.5t-36.5 -14.5h-487q-22 0 -36 14t-14 36t14 36t36 14z" />
    <glyph glyph-name="twosuperior" unicode="&#xb2;" horiz-adv-x="1274" 
d="M1155 2185q169 0 236 -126q10 -20 12 -27q14 -40 14 -86q0 -120 -81 -289.5t-215 -353.5q-188 -262 -420 -467h17q210 0 379 -81q29 -15 29 -46q0 -10 -5 -22q-15 -29 -47 -29q-10 0 -20 5q-152 72 -332 72q-87 0 -169 -16q-8 -5 -64 -41q-32 -16 -67 -31
q-84 -29 -115 -29q-94 0 -94 34q0 29 68 76q30 21 93 46q69 25 138 38q121 85 263 233.5t265 317.5q126 171 202.5 324.5t76.5 251.5q0 31 -9 57q-3 5 -7 15q-39 73 -151 73q-55 0 -131 -21q-187 -56 -351 -201q-164 -149 -174 -290q0 -2 -0.5 -8t-0.5 -8q0 -142 187 -233
q28 -13 28 -44q0 -13 -7 -23q-12 -29 -43 -29q-13 0 -23 5q-243 124 -243 324q0 15 1 23q7 92 62.5 184t145.5 173q83 77 187 135.5t205 87.5q84 26 160 26z" />
    <glyph glyph-name="threesuperior" unicode="&#xb3;" horiz-adv-x="1030" 
d="M1063 2175q123 0 180 -71q19 -25 24 -41q11 -28 11 -65q0 -133 -145 -333l-2 -2q-159 -217 -399 -412q-80 -66 -148 -111q146 -10 203 -57q52 -40 52 -98q0 -37 -19 -72v-5q-34 -72 -131 -141q-78 -59 -175 -96.5t-181 -37.5q-68 0 -114 26q-26 15 -26 43q0 15 7 26
q16 25 45 25q12 0 24 -6q28 -16 69 -16q63 0 142.5 33.5t148.5 83.5q76 56 101 105v3q6 12 6 24q0 14 -11 24q-52 37 -194 37q-72 0 -147 -8h-7q-39 0 -48 31q-4 8 -4 20q0 34 32 47q133 54 311 196q234 193 381 396l3 2q127 174 127 268q0 19 -5 32q-5 12 -10 14
q-31 38 -105 38q-130 0 -320 -100q-185 -94 -298 -216q-106 -109 -106 -199q0 -13 1 -19q15 -98 191 -158q34 -10 34 -46q0 -9 -3 -16q-4 -16 -18 -26t-30 -10q-6 0 -14 2q-237 82 -260 240q-2 11 -2 33q0 129 133 269q131 138 325 237q209 107 371 107z" />
    <glyph glyph-name="acute" unicode="&#xb4;" horiz-adv-x="673" 
d="M450 1644q24 0 39 -17q12 -15 12 -33q0 -24 -17 -39l-210 -175q-16 -11 -32 -11q-24 0 -40 18q-11 16 -11 32q0 23 18 40l210 173q13 12 31 12z" />
    <glyph glyph-name="periodcentered" unicode="&#xb7;" horiz-adv-x="496" 
d="M264 635q27 0 45 -24t18 -57q0 -2 -0.5 -6t-0.5 -6q-1 -39 -23 -66t-51 -27q-27 0 -45 23t-18 58q0 2 0.5 6t0.5 6q2 38 24 65.5t50 27.5z" />
    <glyph glyph-name="periodcentered" unicode="&#x2219;" horiz-adv-x="496" 
d="M264 635q27 0 45 -24t18 -57q0 -2 -0.5 -6t-0.5 -6q-1 -39 -23 -66t-51 -27q-27 0 -45 23t-18 58q0 2 0.5 6t0.5 6q2 38 24 65.5t50 27.5z" />
    <glyph glyph-name="cedilla" unicode="&#xb8;" horiz-adv-x="888" 
d="M616 -182q9 0 18 -3q32 -13 32 -47q0 -9 -3 -18l-117 -307q108 -20 150 -93q19 -34 19 -75q0 -44 -21 -86q-37 -78 -124 -122q-59 -26 -121 -26q-124 0 -240 98q-17 14 -17 36q0 19 13 33q13 18 37 18q18 0 32 -10q88 -74 174 -74q41 0 79 18q52 25 76 72q11 22 11 43
q0 15 -6 27q-26 45 -131 45q-12 0 -20 3q-32 11 -32 47q0 6 4 18l141 371q11 32 46 32z" />
    <glyph glyph-name="onesuperior" unicode="&#xb9;" horiz-adv-x="826" 
d="M825 2184q11 0 21 -3q29 -15 29 -47q0 -10 -5 -20q-70 -154 -206.5 -485t-232.5 -592q-33 -89 -70 -184t-55.5 -141t-18.5 -49q29 -14 29 -44q0 -10 -5 -23q-15 -29 -47 -29q-10 0 -20 5q-24 11 -24 66q0 117 115 435q96 259 248 628q-65 -65 -102 -74q-3 -1 -9 -1
q-18 0 -32.5 11.5t-18.5 30.5q-1 3 -1 9q0 18 11.5 32.5t29.5 18.5q35 8 114 113.5t133.5 195.5t70.5 120q14 27 43 27h3z" />
    <glyph glyph-name="ordmasculine" unicode="&#xba;" horiz-adv-x="999" 
d="M853 2084q3 0 11 -0.5t11 -0.5q83 -9 128 -77t53 -180q2 -18 2 -57q0 -105 -26 -233q-33 -163 -98 -321q-45 -113 -101 -211t-120.5 -175.5t-139 -122t-147.5 -44.5q-13 0 -41 4q-171 30 -191 254q-3 32 -3 66q0 98 25 214q31 147 100 310q67 157 151.5 284t186.5 208.5
t198 81.5h1zM851 1983q-108 0 -229.5 -147.5t-212.5 -364.5q-67 -161 -93 -292q-24 -102 -24 -191q0 -31 3 -58q11 -146 107 -163q9 -2 27 -2q73 0 151 69t142.5 176t118.5 243q61 149 93 305q23 117 23 216q0 31 -1 45q-12 153 -91 163q-3 0 -7 0.5t-7 0.5z" />
    <glyph glyph-name="guillemotright" unicode="&#xbb;" horiz-adv-x="1171" 
d="M426 591q21 0 36 -16t114 -115q42 -38 57.5 -54t31 -40t15.5 -46q0 -14 -8 -35q-15 -37 -72 -71.5t-203 -106.5l-133 -64q-9 -5 -22 -5q-33 0 -45 29q-5 9 -5 22q0 33 29 45q104 52 131 64q15 7 42 21q105 52 142.5 72.5t42.5 31.5q-27 22 -70 62q-93 90 -121 120
q-13 14 -13 35q0 22 15 37q16 14 36 14zM735 576q22 0 37 -16q51 -57 115 -115q41 -39 57 -55.5t30.5 -40.5t14.5 -45q0 -17 -7 -34q-15 -37 -68 -69.5t-190 -99.5l-6 -3l-5 -2.5t-6 -2.5l-133 -65q-12 -5 -22 -5q-31 0 -45 27q-5 12 -5 22q0 32 29 47q31 16 78 39t53 26h1
l1 1h1l1 1h1l1 1h1l1 1h1l1 1h1l1 1h1l1 1h1l1 1l2 1q181 88 201 106q5 4 6 7q0 2 -7.5 8.5t-25 23t-34.5 33.5q-55 50 -122 120q-14 14 -14 35q0 22 16 37q14 13 35 13z" />
    <glyph glyph-name="questiondown" unicode="&#xbf;" horiz-adv-x="2212" 
d="M725 -845q-279 0 -390 204q-38 70 -38 156q0 44 11 93.5t25.5 94.5t46.5 105.5t56 104t72 113.5t77.5 111.5t89.5 120.5t90.5 118t97.5 124q80 103 109 140t103.5 134.5t105.5 143t91.5 134.5t88.5 141.5t68 131t58 135.5t32 123t14 125q0 16 -2 48v4q0 20 13 34.5
t33 16.5h5q19 0 33 -13.5t16 -31.5t2 -55q0 -113 -45.5 -249t-93.5 -236.5t-167 -272t-173 -242.5t-204 -262q-5 -7 -8 -11q-80 -102 -120.5 -154t-109 -143t-105 -145.5t-83.5 -130.5t-70 -129t-40 -111.5t-17 -105.5q0 -61 27 -112q81 -151 304 -151q107 0 240 38
q165 49 333 145t307 222q141 127 227.5 267.5t96.5 274.5q1 9 1 28q0 273 -354 451q-29 14 -29 47q0 10 5 20q18 29 48 29q9 0 21 -5q410 -205 410 -542q0 -23 -1 -35q-11 -154 -106.5 -312t-251.5 -300q-146 -132 -324.5 -233.5t-353.5 -152.5q-151 -43 -272 -43z
M1591 2003q-26 0 -43 25t-17 61v5q4 37 24.5 63t47.5 26q26 0 43 -24.5t17 -59.5v-5q-2 -38 -23 -64.5t-49 -26.5z" />
    <glyph glyph-name="Agrave" unicode="&#xc0;" horiz-adv-x="2850" 
d="M2940 2878q28 0 51 -15q47 -34 47 -168q0 -113 -36 -308t-83.5 -388.5t-134 -491t-146 -492t-159.5 -516.5q324 26 517 32h4q20 0 33.5 -13.5t15.5 -34.5q0 -21 -14 -36t-34 -17q-259 -11 -553 -36q-153 -489 -234 -770.5t-93 -389.5q-3 -18 -17 -31t-32 -13q-2 0 -5 0.5
t-4 0.5q-18 2 -30.5 15.5t-12.5 32.5v7q19 182 318 1138q-577 -50 -1097 -134q-251 -442 -467 -826l-212 -377q-14 -119 -60 -245q-77 -210 -230 -387q-111 -123 -176 -123q-41 0 -41 55q0 7 2 25q3 35 55 108q82 121 352 595q3 32 3 62q0 374 -367 647q-49 35 -69 84
q-9 22 -9 46q0 90 140 165q136 75 402 142q293 71 615 122q820 1444 1255 2051q349 484 506 484zM2920 2783q-86 -1 -402 -449q-410 -567 -1213 -1971q516 77 1067 127q131 421 209 677.5t178 606.5t149 576.5t49 337.5q0 74 -23 90q-7 5 -14 5zM1114 230
q-310 -53 -524 -108q-264 -70 -380 -132q-88 -46 -88 -77q0 -3 2 -9q7 -16 36 -39q353 -263 402 -614l124 221q237 422 428 758zM162 -1631q-5 -10 -5 -12q-1 -5 -1 -9v-1zM2911 3584q17 0 31 -12l210 -173q18 -16 18 -40q0 -16 -11 -32q-17 -18 -40 -18q-16 0 -32 11
l-210 175q-17 15 -17 39q0 18 12 33q15 17 39 17z" />
    <glyph glyph-name="Aacute" unicode="&#xc1;" horiz-adv-x="2850" 
d="M2940 2878q28 0 51 -15q47 -34 47 -168q0 -113 -36 -308t-83.5 -388.5t-134 -491t-146 -492t-159.5 -516.5q324 26 517 32h4q20 0 33.5 -13.5t15.5 -34.5q0 -21 -14 -36t-34 -17q-259 -11 -553 -36q-153 -489 -234 -770.5t-93 -389.5q-3 -18 -17 -31t-32 -13q-2 0 -5 0.5
t-4 0.5q-18 2 -30.5 15.5t-12.5 32.5v7q19 182 318 1138q-577 -50 -1097 -134q-251 -442 -467 -826l-212 -377q-14 -119 -60 -245q-77 -210 -230 -387q-111 -123 -176 -123q-41 0 -41 55q0 7 2 25q3 35 55 108q82 121 352 595q3 32 3 62q0 374 -367 647q-49 35 -69 84
q-9 22 -9 46q0 90 140 165q136 75 402 142q293 71 615 122q820 1444 1255 2051q349 484 506 484zM2920 2783q-86 -1 -402 -449q-410 -567 -1213 -1971q516 77 1067 127q131 421 209 677.5t178 606.5t149 576.5t49 337.5q0 74 -23 90q-7 5 -14 5zM1114 230
q-310 -53 -524 -108q-264 -70 -380 -132q-88 -46 -88 -77q0 -3 2 -9q7 -16 36 -39q353 -263 402 -614l124 221q237 422 428 758zM162 -1631q-5 -10 -5 -12q-1 -5 -1 -9v-1zM3343 3584q24 0 39 -17q12 -15 12 -33q0 -24 -17 -39l-210 -175q-16 -11 -32 -11q-23 0 -40 18
q-11 16 -11 32q0 23 18 40l210 173q14 12 31 12z" />
    <glyph glyph-name="Acircumflex" unicode="&#xc2;" horiz-adv-x="2850" 
d="M2940 2878q28 0 51 -15q47 -34 47 -168q0 -113 -36 -308t-83.5 -388.5t-134 -491t-146 -492t-159.5 -516.5q324 26 517 32h4q20 0 33.5 -13.5t15.5 -34.5q0 -21 -14 -36t-34 -17q-259 -11 -553 -36q-153 -489 -234 -770.5t-93 -389.5q-3 -18 -17 -31t-32 -13q-2 0 -5 0.5
t-4 0.5q-18 2 -30.5 15.5t-12.5 32.5v7q19 182 318 1138q-577 -50 -1097 -134q-251 -442 -467 -826l-212 -377q-14 -119 -60 -245q-77 -210 -230 -387q-111 -123 -176 -123q-41 0 -41 55q0 7 2 25q3 35 55 108q82 121 352 595q3 32 3 62q0 374 -367 647q-49 35 -69 84
q-9 22 -9 46q0 90 140 165q136 75 402 142q293 71 615 122q820 1444 1255 2051q349 484 506 484zM2920 2783q-86 -1 -402 -449q-410 -567 -1213 -1971q516 77 1067 127q131 421 209 677.5t178 606.5t149 576.5t49 337.5q0 74 -23 90q-7 5 -14 5zM1114 230
q-310 -53 -524 -108q-264 -70 -380 -132q-88 -46 -88 -77q0 -3 2 -9q7 -16 36 -39q353 -263 402 -614l124 221q237 422 428 758zM162 -1631q-5 -10 -5 -12q-1 -5 -1 -9v-1zM3092 3672q40 0 69 -45.5t81 -170.5l43 -106q5 -10 5 -20q0 -33 -32 -44q-12 -5 -21 -5
q-30 0 -45 31l-43 105q-19 44 -33.5 84t-19 55t-7.5 15q-1 0 -7 -11t-21 -39.5t-32 -57.5q-41 -75 -102 -170q-15 -24 -44 -24q-15 0 -26 7q-23 14 -23 41q0 15 9 29q25 41 60.5 100.5t39.5 66.5q62 107 86 132q28 27 57 27h6z" />
    <glyph glyph-name="Atilde" unicode="&#xc3;" horiz-adv-x="2850" 
d="M2940 2878q28 0 51 -15q47 -34 47 -168q0 -113 -36 -308t-83.5 -388.5t-134 -491t-146 -492t-159.5 -516.5q324 26 517 32h4q20 0 33.5 -13.5t15.5 -34.5q0 -21 -14 -36t-34 -17q-259 -11 -553 -36q-153 -489 -234 -770.5t-93 -389.5q-3 -18 -17 -31t-32 -13q-2 0 -5 0.5
t-4 0.5q-18 2 -30.5 15.5t-12.5 32.5v7q19 182 318 1138q-577 -50 -1097 -134q-251 -442 -467 -826l-212 -377q-14 -119 -60 -245q-77 -210 -230 -387q-111 -123 -176 -123q-41 0 -41 55q0 7 2 25q3 35 55 108q82 121 352 595q3 32 3 62q0 374 -367 647q-49 35 -69 84
q-9 22 -9 46q0 90 140 165q136 75 402 142q293 71 615 122q820 1444 1255 2051q349 484 506 484zM2920 2783q-86 -1 -402 -449q-410 -567 -1213 -1971q516 77 1067 127q131 421 209 677.5t178 606.5t149 576.5t49 337.5q0 74 -23 90q-7 5 -14 5zM1114 230
q-310 -53 -524 -108q-264 -70 -380 -132q-88 -46 -88 -77q0 -3 2 -9q7 -16 36 -39q353 -263 402 -614l124 221q237 422 428 758zM162 -1631q-5 -10 -5 -12q-1 -5 -1 -9v-1zM2813 3581q21 0 35 -13q23 -23 76 -36q27 -6 66 -6q63 0 142 18q107 27 182 27q4 0 12 -0.5t11 -0.5
q96 -2 146 -50q13 -14 13 -34q0 -22 -16 -38q-16 -14 -35 -14q-21 0 -36 16q-14 16 -77 20h-14q-63 0 -165 -24q-87 -21 -159 -21q-44 0 -91 9q-76 15 -124 60q-17 15 -17 36q0 19 14 36q15 15 37 15z" />
    <glyph glyph-name="Adieresis" unicode="&#xc4;" horiz-adv-x="2850" 
d="M2940 2878q28 0 51 -15q47 -34 47 -168q0 -113 -36 -308t-83.5 -388.5t-134 -491t-146 -492t-159.5 -516.5q324 26 517 32h4q20 0 33.5 -13.5t15.5 -34.5q0 -21 -14 -36t-34 -17q-259 -11 -553 -36q-153 -489 -234 -770.5t-93 -389.5q-3 -18 -17 -31t-32 -13q-2 0 -5 0.5
t-4 0.5q-18 2 -30.5 15.5t-12.5 32.5v7q19 182 318 1138q-577 -50 -1097 -134q-251 -442 -467 -826l-212 -377q-14 -119 -60 -245q-77 -210 -230 -387q-111 -123 -176 -123q-41 0 -41 55q0 7 2 25q3 35 55 108q82 121 352 595q3 32 3 62q0 374 -367 647q-49 35 -69 84
q-9 22 -9 46q0 90 140 165q136 75 402 142q293 71 615 122q820 1444 1255 2051q349 484 506 484zM2920 2783q-86 -1 -402 -449q-410 -567 -1213 -1971q516 77 1067 127q131 421 209 677.5t178 606.5t149 576.5t49 337.5q0 74 -23 90q-7 5 -14 5zM1114 230
q-310 -53 -524 -108q-264 -70 -380 -132q-88 -46 -88 -77q0 -3 2 -9q7 -16 36 -39q353 -263 402 -614l124 221q237 422 428 758zM162 -1631q-5 -10 -5 -12q-1 -5 -1 -9v-1zM2996 3590q26 0 44.5 -23.5t18.5 -58.5q0 -2 -0.5 -6t-0.5 -6q-2 -38 -24 -65.5t-50 -27.5
q-26 0 -44.5 24t-18.5 58q0 1 0.5 5t0.5 6q1 39 23 66.5t51 27.5zM3228 3590q27 0 44.5 -25t17.5 -63v-6q-2 -38 -24 -65.5t-50 -27.5q-26 0 -44.5 24t-18.5 58q0 1 0.5 5t0.5 6q1 40 23 67t51 27z" />
    <glyph glyph-name="Aring" unicode="&#xc5;" horiz-adv-x="2850" 
d="M2940 2878q28 0 51 -15q47 -34 47 -168q0 -113 -36 -308t-83.5 -388.5t-134 -491t-146 -492t-159.5 -516.5q324 26 517 32h4q20 0 33.5 -13.5t15.5 -34.5q0 -21 -14 -36t-34 -17q-259 -11 -553 -36q-153 -489 -234 -770.5t-93 -389.5q-3 -18 -17 -31t-32 -13q-2 0 -5 0.5
t-4 0.5q-18 2 -30.5 15.5t-12.5 32.5v7q19 182 318 1138q-577 -50 -1097 -134q-251 -442 -467 -826l-212 -377q-14 -119 -60 -245q-77 -210 -230 -387q-111 -123 -176 -123q-41 0 -41 55q0 7 2 25q3 35 55 108q82 121 352 595q3 32 3 62q0 374 -367 647q-49 35 -69 84
q-9 22 -9 46q0 90 140 165q136 75 402 142q293 71 615 122q820 1444 1255 2051q349 484 506 484zM2920 2783q-86 -1 -402 -449q-410 -567 -1213 -1971q516 77 1067 127q131 421 209 677.5t178 606.5t149 576.5t49 337.5q0 74 -23 90q-7 5 -14 5zM1114 230
q-310 -53 -524 -108q-264 -70 -380 -132q-88 -46 -88 -77q0 -3 2 -9q7 -16 36 -39q353 -263 402 -614l124 221q237 422 428 758zM162 -1631q-5 -10 -5 -12q-1 -5 -1 -9v-1zM3314 3596h-2q-18 25 -44 39q-21 11 -51 11l-3 1q-43 -2 -84 -35q-35 -28 -59 -75q-6 -9 -21 -45
q-16 -35 -16 -92t25 -91l2 -1q17 -26 44 -40q22 -12 51 -10l2 -1q42 2 85 35q35 28 59 75q6 9 21 45q16 35 16 92q0 54 -25 92zM3165 3156h-6q-51 -1 -100 23l-10 5q-43 22 -73 64v4q-40 57 -43 138q-4 77 37 171q4 9 12 25q38 74 98 116q62 43 128 46h5q52 1 101 -23l10 -5
q44 -23 72 -65l1 -3q38 -56 43 -138q3 -82 -37 -172q-6 -15 -13 -25q-37 -72 -97 -116q-60 -42 -128 -45z" />
    <glyph glyph-name="AE" unicode="&#xc6;" horiz-adv-x="5415" 
d="M1114 230q-310 -53 -524 -108q-264 -70 -380 -132q-88 -46 -88 -77q0 -3 2 -9q7 -16 36 -39q353 -263 402 -614l124 221q237 422 428 758zM162 -1631q-5 -10 -5 -12q-1 -5 -1 -9v-1zM2528 994l48 156q102 336 189 642q90 322 139 542q53 238 53 354q0 70 -23 90
q-7 5 -14 5q-47 -3 -150 -121q-102 -115 -252 -328q-266 -374 -577 -888q-317 -524 -636 -1083q538 79 1038 124q-1 8 -1 23q0 148 100 338q33 62 86 146zM2415 289q-123 -398 -187 -619q-89 -304 -107 -436q-5 -20 -17 -31q-13 -13 -32 -13q-6 0 -9 1q-17 1 -30 16
q-13 13 -13 32v7q17 132 104 431q89 311 214 707q-542 -46 -1097 -134q-373 -659 -467 -826l-212 -377q-17 -131 -60 -245q-45 -120 -109 -221q-58 -93 -121 -166q-56 -62 -101 -92q-46 -31 -75 -31q-40 0 -41 55q0 7 2 25q1 30 55 108q92 137 352 595q3 32 3 62
q0 109 -34 218q-34 108 -116 219q-82 109 -217 210q-52 40 -69 84q-9 22 -9 46q0 91 140 165q146 78 402 142q274 67 615 122q332 585 658 1126q326 543 597 925q162 226 292 355q129 129 214 129q28 0 51 -15q47 -39 47 -168q0 -146 -50 -391q-52 -250 -133 -544
q-80 -289 -149 -519q87 108 178 206q291 319 651 613q356 292 703 492q344 198 588 231q29 4 61 4q89 0 157 -35q80 -42 131 -107q48 -61 71 -141q22 -78 22 -167q0 -85 -16 -169q100 75 203 94q3 1 10 1q19 0 33 -11q12 -11 17 -31q1 -3 1 -8q0 -19 -12 -32
q-12 -14 -32 -17q-79 -16 -160 -77q-57 -41 -101 -91q-63 -199 -155 -373q-62 -121 -117 -201q-57 -87 -84 -106q-22 -17 -40 -17q-21 0 -39 24q-11 16 -14 36q-1 5 -1 16q0 51 36 148t99 213q92 163 227 315q47 152 47 283q0 106 -39 192q-41 87 -133 137q-44 22 -112 22
q-24 0 -50 -3q-231 -30 -559 -222q-328 -191 -678 -479q-351 -286 -637 -598q-214 -233 -345 -437q-69 -226 -138 -447q297 25 517 32h4q21 0 34 -13t15 -35q0 -22 -14 -36q-14 -15 -34 -17q-217 -8 -534 -34q13 -30 35 -53q49 -52 126 -74q80 -23 176 -23q151 0 327 40
q185 42 353 98q190 63 321 116q163 66 234 98q76 33 91 41q12 5 22 5q25 0 43 -24q7 -13 7 -27q0 -27 -24 -43q-2 -1 -9 -6t-11 -7l-56 -40q-126 -89 -333 -258q-206 -167 -411 -374q-101 -104 -184 -208q-81 -102 -131 -197q-49 -94 -49 -170q0 -48 22 -85l7 -10
q15 -21 29 -33l7 -7q48 -36 116 -36q54 0 114 19q161 53 349 190q222 160 444 375q218 211 403 417q177 197 281 331q18 20 41 20q17 0 31 -12q18 -16 18 -38q0 -15 -11 -32q-106 -138 -285 -337q-181 -204 -411 -424q-232 -223 -451 -382q-206 -148 -381 -207
q-72 -22 -141 -22q-100 0 -179 58q-32 26 -58 60l-7 15l-2 2q-35 62 -35 133q0 95 52 203q54 111 140 222q90 117 199 228q254 255 505 451q-155 -59 -316 -109q-180 -55 -345 -88q-176 -36 -328 -36q-123 0 -222 30q-98 28 -160 98z" />
    <glyph glyph-name="Ccedilla" unicode="&#xc7;" 
d="M259 -1042q-122 95 -182 231q-63 142 -67 314q-1 14 -1 43q0 190 59 412q59 223 162 457q227 504 588 995q280 379 589 683q310 306 616 494q304 185 558 199h20q70 0 130 -20q128 -44 177 -184q19 -60 19 -145q0 -90 -26 -211q-13 -57 -36 -127q92 69 184 86q4 1 11 1
q16 0 30 -11q12 -11 17 -31q1 -3 1 -9q0 -16 -11 -30q-12 -14 -31 -18q-133 -33 -272 -187q-105 -254 -292 -582q-148 -260 -201 -312q-73 -79 -105 -79q-23 0 -23 42q0 37 20 109q19 72 86 212q71 148 183 328q107 175 241 327q70 171 100 305q24 107 24 185q0 67 -17 115
q-28 93 -112 120q-44 15 -97 15h-18q-239 -14 -527 -194q-292 -183 -588 -479q-297 -295 -568 -662q-356 -481 -577 -975q-104 -237 -157 -440q-57 -211 -57 -392q0 -25 1 -38q6 -149 59 -269q53 -119 157 -201q79 -58 186 -58q109 0 250 62q140 61 312 180q265 186 610 507
q348 322 768 757q16 16 36 16q18 0 35 -14q15 -16 15 -37q0 -20 -15 -35q-427 -444 -774 -765q-345 -319 -617 -513q-185 -128 -341 -195q-155 -66 -282 -66q-87 0 -163 32l-100 -262q112 -22 150 -93q19 -34 19 -75q0 -42 -21 -86q-38 -78 -124 -122q-57 -26 -121 -26
q-53 0 -116 23q-61 22 -124 75q-17 17 -17 36q0 17 13 33q17 18 37 18q18 0 32 -10q47 -40 92 -56q44 -18 82 -18q44 0 79 18q55 28 76 72q11 24 11 43q0 15 -6 27q-10 19 -42 33q-32 12 -89 12q-7 0 -10 1q-2 0 -10 2q-16 6 -23 19q-9 14 -9 28q0 10 4 18z" />
    <glyph glyph-name="Egrave" unicode="&#xc8;" 
d="M2555 2787q89 0 157 -35q224 -117 224 -415q0 -76 -16 -169q105 77 203 94q3 1 10 1q19 0 33 -11.5t17 -30.5q1 -3 1 -8q0 -18 -12.5 -32t-31.5 -17q-74 -14 -160 -77q-64 -48 -101 -91q-53 -174 -155 -373q-66 -128 -117 -201q-55 -86 -84 -106q-22 -17 -40 -17
q-21 0 -39 24q-11 16 -14 36q-1 5 -1 16q0 52 36.5 151.5t98.5 209.5q111 190 227 315q47 157 47 283q0 238 -172 329q-47 22 -112 22q-24 0 -50 -3q-216 -24 -549.5 -216.5t-687.5 -484.5q-354 -289 -643.5 -606t-424.5 -575q-89 -170 -89 -290q0 -10 2 -30
q26 -234 360 -234q139 0 326.5 40.5t354.5 97t318.5 116t236 97.5t90.5 42q9 5 22 5q27 0 43 -24q7 -11 7 -27q0 -29 -24 -43q-3 -2 -29 -20t-47 -33q-156 -112 -363 -283t-381 -349q-364 -377 -364 -575q0 -48 22 -85l7 -10q7 -11 36 -40q45 -36 116 -36q54 0 114 19
q140 41 349 190q154 110 330.5 269.5t328.5 319.5t270 295t199 239q15 20 41 20q18 0 31 -12q18 -13 18 -38q0 -18 -11 -32q-82 -105 -202.5 -243t-275 -301t-333.5 -325t-336 -274q-217 -156 -381 -207q-77 -22 -141 -22q-104 0 -179 58q-25 19 -58 60l-7 15l-2 2
q-35 60 -35 133q0 250 391 653q198 204 505 451q-616 -233 -989 -233q-424 0 -458 312q-2 14 -2 42q0 144 100 338q139 266 436 593t657 619q366 300 713 498.5t578 224.5q28 4 61 4zM2522 3584q18 0 31 -12l210 -173q18 -16 18 -40q0 -16 -11 -32q-16 -18 -40 -18
q-16 0 -32 11l-210 175q-17 15 -17 39q0 18 12 33q15 17 39 17z" />
    <glyph glyph-name="Eacute" unicode="&#xc9;" 
d="M2555 2787q89 0 157 -35q224 -117 224 -415q0 -76 -16 -169q105 77 203 94q3 1 10 1q19 0 33 -11.5t17 -30.5q1 -3 1 -8q0 -18 -12.5 -32t-31.5 -17q-74 -14 -160 -77q-64 -48 -101 -91q-53 -174 -155 -373q-66 -128 -117 -201q-55 -86 -84 -106q-22 -17 -40 -17
q-21 0 -39 24q-11 16 -14 36q-1 5 -1 16q0 52 36.5 151.5t98.5 209.5q111 190 227 315q47 157 47 283q0 238 -172 329q-47 22 -112 22q-24 0 -50 -3q-216 -24 -549.5 -216.5t-687.5 -484.5q-354 -289 -643.5 -606t-424.5 -575q-89 -170 -89 -290q0 -10 2 -30
q26 -234 360 -234q139 0 326.5 40.5t354.5 97t318.5 116t236 97.5t90.5 42q9 5 22 5q27 0 43 -24q7 -11 7 -27q0 -29 -24 -43q-3 -2 -29 -20t-47 -33q-156 -112 -363 -283t-381 -349q-364 -377 -364 -575q0 -48 22 -85l7 -10q7 -11 36 -40q45 -36 116 -36q54 0 114 19
q140 41 349 190q154 110 330.5 269.5t328.5 319.5t270 295t199 239q15 20 41 20q18 0 31 -12q18 -13 18 -38q0 -18 -11 -32q-82 -105 -202.5 -243t-275 -301t-333.5 -325t-336 -274q-217 -156 -381 -207q-77 -22 -141 -22q-104 0 -179 58q-25 19 -58 60l-7 15l-2 2
q-35 60 -35 133q0 250 391 653q198 204 505 451q-616 -233 -989 -233q-424 0 -458 312q-2 14 -2 42q0 144 100 338q139 266 436 593t657 619q366 300 713 498.5t578 224.5q28 4 61 4zM3039 3584q24 0 39 -17q12 -15 12 -33q0 -24 -17 -39l-210 -175q-16 -11 -32 -11
q-23 0 -40 18q-11 16 -11 32q0 23 18 40l210 173q14 12 31 12z" />
    <glyph glyph-name="Ecircumflex" unicode="&#xca;" 
d="M2555 2787q89 0 157 -35q224 -117 224 -415q0 -76 -16 -169q105 77 203 94q3 1 10 1q19 0 33 -11.5t17 -30.5q1 -3 1 -8q0 -18 -12.5 -32t-31.5 -17q-74 -14 -160 -77q-64 -48 -101 -91q-53 -174 -155 -373q-66 -128 -117 -201q-55 -86 -84 -106q-22 -17 -40 -17
q-21 0 -39 24q-11 16 -14 36q-1 5 -1 16q0 52 36.5 151.5t98.5 209.5q111 190 227 315q47 157 47 283q0 238 -172 329q-47 22 -112 22q-24 0 -50 -3q-216 -24 -549.5 -216.5t-687.5 -484.5q-354 -289 -643.5 -606t-424.5 -575q-89 -170 -89 -290q0 -10 2 -30
q26 -234 360 -234q139 0 326.5 40.5t354.5 97t318.5 116t236 97.5t90.5 42q9 5 22 5q27 0 43 -24q7 -11 7 -27q0 -29 -24 -43q-3 -2 -29 -20t-47 -33q-156 -112 -363 -283t-381 -349q-364 -377 -364 -575q0 -48 22 -85l7 -10q7 -11 36 -40q45 -36 116 -36q54 0 114 19
q140 41 349 190q154 110 330.5 269.5t328.5 319.5t270 295t199 239q15 20 41 20q18 0 31 -12q18 -13 18 -38q0 -18 -11 -32q-82 -105 -202.5 -243t-275 -301t-333.5 -325t-336 -274q-217 -156 -381 -207q-77 -22 -141 -22q-104 0 -179 58q-25 19 -58 60l-7 15l-2 2
q-35 60 -35 133q0 250 391 653q198 204 505 451q-616 -233 -989 -233q-424 0 -458 312q-2 14 -2 42q0 144 100 338q139 266 436 593t657 619q366 300 713 498.5t578 224.5q28 4 61 4zM2786 3672q40 0 69 -45.5t81 -170.5l43 -106q5 -10 5 -20q0 -33 -32 -44q-12 -5 -21 -5
q-30 0 -45 31l-43 105q-19 44 -33.5 84t-19 55t-7.5 15q-1 0 -7 -11t-21 -39.5t-32 -57.5q-41 -75 -102 -170q-15 -24 -44 -24q-15 0 -26 7q-23 14 -23 41q0 15 9 29q25 41 60.5 100.5t39.5 66.5q62 107 86 132q28 27 57 27h6z" />
    <glyph glyph-name="Edieresis" unicode="&#xcb;" 
d="M2555 2787q89 0 157 -35q224 -117 224 -415q0 -76 -16 -169q105 77 203 94q3 1 10 1q19 0 33 -11.5t17 -30.5q1 -3 1 -8q0 -18 -12.5 -32t-31.5 -17q-74 -14 -160 -77q-64 -48 -101 -91q-53 -174 -155 -373q-66 -128 -117 -201q-55 -86 -84 -106q-22 -17 -40 -17
q-21 0 -39 24q-11 16 -14 36q-1 5 -1 16q0 52 36.5 151.5t98.5 209.5q111 190 227 315q47 157 47 283q0 238 -172 329q-47 22 -112 22q-24 0 -50 -3q-216 -24 -549.5 -216.5t-687.5 -484.5q-354 -289 -643.5 -606t-424.5 -575q-89 -170 -89 -290q0 -10 2 -30
q26 -234 360 -234q139 0 326.5 40.5t354.5 97t318.5 116t236 97.5t90.5 42q9 5 22 5q27 0 43 -24q7 -11 7 -27q0 -29 -24 -43q-3 -2 -29 -20t-47 -33q-156 -112 -363 -283t-381 -349q-364 -377 -364 -575q0 -48 22 -85l7 -10q7 -11 36 -40q45 -36 116 -36q54 0 114 19
q140 41 349 190q154 110 330.5 269.5t328.5 319.5t270 295t199 239q15 20 41 20q18 0 31 -12q18 -13 18 -38q0 -18 -11 -32q-82 -105 -202.5 -243t-275 -301t-333.5 -325t-336 -274q-217 -156 -381 -207q-77 -22 -141 -22q-104 0 -179 58q-25 19 -58 60l-7 15l-2 2
q-35 60 -35 133q0 250 391 653q198 204 505 451q-616 -233 -989 -233q-424 0 -458 312q-2 14 -2 42q0 144 100 338q139 266 436 593t657 619q366 300 713 498.5t578 224.5q28 4 61 4zM2525 3641q26 0 44.5 -23.5t18.5 -58.5q0 -2 -0.5 -6t-0.5 -6q-2 -38 -24 -65.5
t-50 -27.5q-26 0 -44.5 24t-18.5 58q0 1 0.5 5t0.5 6q1 39 23 66.5t51 27.5zM2757 3641q27 0 44.5 -25t17.5 -63v-6q-2 -38 -24 -65.5t-50 -27.5q-26 0 -44.5 24t-18.5 58q0 1 0.5 5t0.5 6q1 40 23 67t51 27z" />
    <glyph glyph-name="Igrave" unicode="&#xcc;" horiz-adv-x="1784" 
d="M1626 2784q94 0 173 -30q245 -90 245 -526q0 -604 -492 -1957q-83 -230 -344 -905q-222 -580 -261 -689q-4 -15 -16.5 -24.5t-28.5 -9.5q-8 0 -17 3q-15 5 -24.5 18.5t-9.5 29.5q0 8 3 16q82 234 261 692q253 660 342 905q146 401 248 723t175.5 654.5t73.5 549.5
q0 356 -191 427q-67 24 -140 24q-120 0 -257 -61t-271.5 -169t-264.5 -252t-246 -313q-263 -388 -380 -778q-75 -248 -75 -456q0 -140 36 -260q62 -208 242 -335t488 -147q20 -2 34 -17t14 -35v-4q-2 -18 -16.5 -31.5t-33.5 -13.5h-5q-345 22 -547 167.5t-274 384.5
q-39 130 -39 288q0 221 78 488q120 404 394 807q254 369 558 602t568 234zM1545 3584q18 0 31 -12l210 -173q18 -16 18 -40q0 -16 -11 -32q-17 -18 -40 -18q-16 0 -32 11l-210 175q-17 15 -17 39q0 18 12 33q15 17 39 17z" />
    <glyph glyph-name="Iacute" unicode="&#xcd;" horiz-adv-x="1784" 
d="M1626 2784q94 0 173 -30q245 -90 245 -526q0 -604 -492 -1957q-83 -230 -344 -905q-222 -580 -261 -689q-4 -15 -16.5 -24.5t-28.5 -9.5q-8 0 -17 3q-15 5 -24.5 18.5t-9.5 29.5q0 8 3 16q82 234 261 692q253 660 342 905q146 401 248 723t175.5 654.5t73.5 549.5
q0 356 -191 427q-67 24 -140 24q-120 0 -257 -61t-271.5 -169t-264.5 -252t-246 -313q-263 -388 -380 -778q-75 -248 -75 -456q0 -140 36 -260q62 -208 242 -335t488 -147q20 -2 34 -17t14 -35v-4q-2 -18 -16.5 -31.5t-33.5 -13.5h-5q-345 22 -547 167.5t-274 384.5
q-39 130 -39 288q0 221 78 488q120 404 394 807q254 369 558 602t568 234zM2089 3584q24 0 39 -17q12 -15 12 -33q0 -24 -17 -39l-210 -175q-16 -11 -32 -11q-23 0 -40 18q-11 16 -11 32q0 23 18 40l210 173q14 12 31 12z" />
    <glyph glyph-name="Icircumflex" unicode="&#xce;" horiz-adv-x="1784" 
d="M1626 2784q94 0 173 -30q245 -90 245 -526q0 -604 -492 -1957q-83 -230 -344 -905q-222 -580 -261 -689q-4 -15 -16.5 -24.5t-28.5 -9.5q-8 0 -17 3q-15 5 -24.5 18.5t-9.5 29.5q0 8 3 16q82 234 261 692q253 660 342 905q146 401 248 723t175.5 654.5t73.5 549.5
q0 356 -191 427q-67 24 -140 24q-120 0 -257 -61t-271.5 -169t-264.5 -252t-246 -313q-263 -388 -380 -778q-75 -248 -75 -456q0 -140 36 -260q62 -208 242 -335t488 -147q20 -2 34 -17t14 -35v-4q-2 -18 -16.5 -31.5t-33.5 -13.5h-5q-345 22 -547 167.5t-274 384.5
q-39 130 -39 288q0 221 78 488q120 404 394 807q254 369 558 602t568 234zM1882 3672q40 0 69 -45.5t81 -170.5l43 -106q5 -10 5 -20q0 -33 -32 -44q-12 -5 -21 -5q-30 0 -45 31l-43 105q-19 44 -33.5 84t-19 55t-7.5 15q-1 0 -7 -11t-21 -39.5t-32 -57.5q-41 -75 -102 -170
q-15 -24 -44 -24q-15 0 -26 7q-23 14 -23 41q0 15 9 29q25 41 60.5 100.5t39.5 66.5q62 107 86 132q27 27 57 27h6z" />
    <glyph glyph-name="Idieresis" unicode="&#xcf;" horiz-adv-x="1784" 
d="M1626 2784q94 0 173 -30q245 -90 245 -526q0 -604 -492 -1957q-83 -230 -344 -905q-222 -580 -261 -689q-4 -15 -16.5 -24.5t-28.5 -9.5q-8 0 -17 3q-15 5 -24.5 18.5t-9.5 29.5q0 8 3 16q82 234 261 692q253 660 342 905q146 401 248 723t175.5 654.5t73.5 549.5
q0 356 -191 427q-67 24 -140 24q-120 0 -257 -61t-271.5 -169t-264.5 -252t-246 -313q-263 -388 -380 -778q-75 -248 -75 -456q0 -140 36 -260q62 -208 242 -335t488 -147q20 -2 34 -17t14 -35v-4q-2 -18 -16.5 -31.5t-33.5 -13.5h-5q-345 22 -547 167.5t-274 384.5
q-39 130 -39 288q0 221 78 488q120 404 394 807q254 369 558 602t568 234zM1836 3590q26 0 44.5 -23.5t18.5 -58.5q0 -2 -0.5 -6t-0.5 -6q-2 -38 -24 -65.5t-50 -27.5q-26 0 -44.5 24t-18.5 58q0 1 0.5 5t0.5 6q1 39 23 66.5t51 27.5zM2068 3590q27 0 44.5 -25t17.5 -63v-6
q-2 -38 -24 -65.5t-50 -27.5q-26 0 -44.5 24t-18.5 58q0 1 0.5 5t0.5 6q1 40 23 67t51 27z" />
    <glyph glyph-name="Eth" unicode="&#xd0;" horiz-adv-x="3935" 
d="M2893 204q-373 -107 -734 -240q-411 -152 -725 -331q-103 -280 -182 -550q-4 -17 -18 -27q-14 -11 -31 -11q-3 0 -13 2q-35 17 -35 49q0 5 2 15q57 198 139 435q-175 -121 -247 -240q-39 -74 -39 -135q0 -13 1 -19q5 -45 28 -79q26 -38 67 -60q68 -41 176 -41q30 0 61 3
q239 29 527 219q289 191 580 491q228 235 443 519zM1717 340q-113 -259 -229 -562q281 149 637 282q428 160 863 276q187 260 335 540q152 283 241 556q87 270 87 499q0 44 -5 96q-23 239 -170 386q-99 96 -240 139t-317 43q-245 0 -535 -75q-291 -76 -594 -207
q-301 -129 -593 -303q-303 -181 -557 -384q-258 -206 -433 -416q-123 -149 -194 -295q-70 -143 -70 -273q0 -89 37 -167q66 -147 278 -254q210 -107 592 -163q19 -3 33 -17q12 -13 12 -33q0 -5 -1 -8q-4 -19 -18 -31t-34 -12h-6q-410 60 -640 182q-231 122 -307 293
q-47 102 -47 209q0 147 77 309t212 325q179 215 445 429q259 209 571 395q443 263 912 427q468 163 860 167h6q191 0 352 -50q159 -49 269 -158q174 -174 200 -446q5 -58 5 -107q0 -242 -90 -525q-91 -283 -249 -579q-122 -230 -273 -453q623 155 952 165q19 0 35 -14
q15 -14 15 -36q0 -19 -14 -35q-15 -16 -36 -16q-353 -12 -1040 -192q-246 -342 -529 -634q-302 -310 -608 -511q-303 -200 -561 -228q-32 -4 -70 -4q-135 0 -227 54q-64 37 -100 91q-38 59 -46 125q-1 8 -1 25q0 46 13 94q14 50 41 97q105 175 389 345q126 336 255 639h-610
q-13 0 -24 14q-10 13 -10 36q0 22 10 36q11 14 24 14h653l30 69q166 375 285 615q120 246 130 265l1 1q20 27 47 27q10 0 23 -5q26 -18 26 -46q0 -11 -5 -24q-13 -21 -112 -224q-103 -208 -267 -571q-8 -18 -24 -53.5t-24 -53.5h513q14 0 25 -14q9 -15 9 -36q0 -22 -9 -36
q-11 -14 -25 -14h-556z" />
    <glyph glyph-name="Ntilde" unicode="&#xd1;" horiz-adv-x="2916" 
d="M1742 2756q148 -1 173 -237q5 -53 5 -105q0 -609 -531 -2388q195 434 411 855q710 1364 1210 1564q52 21 94 21q86 0 121 -91q18 -45 18 -119q0 -85 -21 -203.5t-68.5 -292.5t-86.5 -303t-112 -364q-64 -206 -102 -329.5t-95.5 -320.5t-91.5 -338t-69 -305t-51.5 -302.5
t-16.5 -254.5q0 -130 22 -228q1 -3 1 -10q0 -18 -11 -33t-28 -19q-3 -1 -10 -1q-18 0 -32.5 11t-17.5 28q-25 109 -25 251q0 121 16 263t52.5 311t69.5 308t92.5 343.5t95.5 322.5t103 334q97 309 147 477.5t95 361t45 290.5q0 53 -12 86q-9 23 -39 23q-17 0 -47 -11
q-465 -190 -1155 -1518q-381 -728 -816 -1796q-11 -31 -47 -31q-5 0 -15 2q-15 6 -25 20.5t-10 30.5q0 4 2 14l19 53q355 1103 543 1810q277 1041 277 1469q0 50 -5 102q-14 147 -76 147h-5q-87 -9 -224 -101.5t-295 -246.5t-320 -343.5t-313.5 -410t-260.5 -428.5
q-161 -306 -201 -540q-13 -72 -13 -144q0 -151 68 -246q125 -180 491 -180q87 0 166 8h4q21 0 35.5 -12.5t15.5 -33.5v-5q0 -18 -13.5 -33.5t-31.5 -16.5q-96 -8 -170 -8q-425 0 -581 224q-84 122 -84 302q0 77 15 161q39 245 210 569q112 216 270.5 445t328.5 424.5
t337.5 355t313.5 255t240 105.5q14 2 21 2zM2342 3581q21 0 35 -13q23 -23 76 -36q27 -6 66 -6q63 0 142 18q107 27 182 27q4 0 12 -0.5t11 -0.5q96 -2 146 -50q13 -14 13 -34q0 -22 -16 -38q-16 -14 -35 -14q-21 0 -36 16q-14 16 -77 20h-14q-63 0 -165 -24
q-87 -21 -159 -21q-44 0 -91 9q-76 15 -124 60q-17 15 -17 36q0 19 14 36q15 15 37 15z" />
    <glyph glyph-name="Ograve" unicode="&#xd2;" horiz-adv-x="3002" 
d="M2152 2634q214 -5 349 -101.5t196 -267.5q52 -146 52 -339q0 -129 -23 -279q-52 -336 -213 -749q-152 -383 -351 -732q324 92 593.5 202.5t401.5 203.5q12 9 27 9q24 0 42 -21q9 -13 9 -29q0 -26 -21 -44q-147 -103 -454.5 -226t-671.5 -220q-173 -288 -352.5 -512.5
t-355 -360.5t-309.5 -141h-16q-67 0 -120 22q-187 82 -210 396l-1 3q-5 58 -5 111q0 139 25 309q-63 3 -125 14q-380 58 -528 269q-67 99 -82 221q-9 62 -9 149q9 312 201 665.5t502 669.5q303 308 650.5 517t645.5 252q68 9 153 9zM2117 2532q-46 0 -104 -8
q-283 -39 -614.5 -240t-623.5 -500q-194 -198 -341 -408.5t-238 -435t-96 -421.5q0 -57 7 -132q14 -99 67 -176q125 -178 460 -228q64 -11 124 -14q3 19 7.5 41t10 48.5t8.5 42.5q81 394 232 804t270 591q16 21 43 21q15 0 29 -9q21 -14 21 -40q0 -16 -9 -30
q-114 -172 -260.5 -571t-227.5 -788q-3 -19 -10 -57.5t-11 -57.5q21 -1 64 -1q192 0 460 35q324 47 643 132q230 392 392 807q153 393 206 727q22 149 22 269q0 172 -44 298q-104 293 -454 300q-11 1 -33 1zM1954 7q-302 -74 -555 -110q-251 -35 -477 -35q-52 0 -78 1
q-23 -164 -23 -301q0 -62 4 -107q19 -258 148 -312q40 -15 84 -15h12q168 7 406 249t479 630zM2248 3584q18 0 31 -12l210 -173q18 -16 18 -40q0 -16 -11 -32q-16 -18 -40 -18q-16 0 -32 11l-210 175q-17 15 -17 39q0 18 12 33q15 17 39 17z" />
    <glyph glyph-name="Oacute" unicode="&#xd3;" horiz-adv-x="3002" 
d="M2152 2634q214 -5 349 -101.5t196 -267.5q52 -146 52 -339q0 -129 -23 -279q-52 -336 -213 -749q-152 -383 -351 -732q324 92 593.5 202.5t401.5 203.5q12 9 27 9q24 0 42 -21q9 -13 9 -29q0 -26 -21 -44q-147 -103 -454.5 -226t-671.5 -220q-173 -288 -352.5 -512.5
t-355 -360.5t-309.5 -141h-16q-67 0 -120 22q-187 82 -210 396l-1 3q-5 58 -5 111q0 139 25 309q-63 3 -125 14q-380 58 -528 269q-67 99 -82 221q-9 62 -9 149q9 312 201 665.5t502 669.5q303 308 650.5 517t645.5 252q68 9 153 9zM2117 2532q-46 0 -104 -8
q-283 -39 -614.5 -240t-623.5 -500q-194 -198 -341 -408.5t-238 -435t-96 -421.5q0 -57 7 -132q14 -99 67 -176q125 -178 460 -228q64 -11 124 -14q3 19 7.5 41t10 48.5t8.5 42.5q81 394 232 804t270 591q16 21 43 21q15 0 29 -9q21 -14 21 -40q0 -16 -9 -30
q-114 -172 -260.5 -571t-227.5 -788q-3 -19 -10 -57.5t-11 -57.5q21 -1 64 -1q192 0 460 35q324 47 643 132q230 392 392 807q153 393 206 727q22 149 22 269q0 172 -44 298q-104 293 -454 300q-11 1 -33 1zM1954 7q-302 -74 -555 -110q-251 -35 -477 -35q-52 0 -78 1
q-23 -164 -23 -301q0 -62 4 -107q19 -258 148 -312q40 -15 84 -15h12q168 7 406 249t479 630zM2680 3584q24 0 39 -17q12 -15 12 -33q0 -24 -17 -39l-210 -175q-16 -11 -32 -11q-24 0 -40 18q-11 16 -11 32q0 23 18 40l210 173q13 12 31 12z" />
    <glyph glyph-name="Ocircumflex" unicode="&#xd4;" horiz-adv-x="3002" 
d="M2152 2634q214 -5 349 -101.5t196 -267.5q52 -146 52 -339q0 -129 -23 -279q-52 -336 -213 -749q-152 -383 -351 -732q324 92 593.5 202.5t401.5 203.5q12 9 27 9q24 0 42 -21q9 -13 9 -29q0 -26 -21 -44q-147 -103 -454.5 -226t-671.5 -220q-173 -288 -352.5 -512.5
t-355 -360.5t-309.5 -141h-16q-67 0 -120 22q-187 82 -210 396l-1 3q-5 58 -5 111q0 139 25 309q-63 3 -125 14q-380 58 -528 269q-67 99 -82 221q-9 62 -9 149q9 312 201 665.5t502 669.5q303 308 650.5 517t645.5 252q68 9 153 9zM2117 2532q-46 0 -104 -8
q-283 -39 -614.5 -240t-623.5 -500q-194 -198 -341 -408.5t-238 -435t-96 -421.5q0 -57 7 -132q14 -99 67 -176q125 -178 460 -228q64 -11 124 -14q3 19 7.5 41t10 48.5t8.5 42.5q81 394 232 804t270 591q16 21 43 21q15 0 29 -9q21 -14 21 -40q0 -16 -9 -30
q-114 -172 -260.5 -571t-227.5 -788q-3 -19 -10 -57.5t-11 -57.5q21 -1 64 -1q192 0 460 35q324 47 643 132q230 392 392 807q153 393 206 727q22 149 22 269q0 172 -44 298q-104 293 -454 300q-11 1 -33 1zM1954 7q-302 -74 -555 -110q-251 -35 -477 -35q-52 0 -78 1
q-23 -164 -23 -301q0 -62 4 -107q19 -258 148 -312q40 -15 84 -15h12q168 7 406 249t479 630zM2404 3672q40 0 69 -45.5t81 -170.5l43 -106q5 -10 5 -20q0 -33 -32 -44q-12 -5 -21 -5q-30 0 -45 31l-43 105q-19 44 -33.5 84t-19 55t-7.5 15q-1 0 -7 -11t-21 -39.5t-32 -57.5
q-41 -75 -102 -170q-15 -24 -44 -24q-15 0 -26 7q-23 14 -23 41q0 15 9 29q25 41 60.5 100.5t39.5 66.5q62 107 86 132q28 27 57 27h6z" />
    <glyph glyph-name="Otilde" unicode="&#xd5;" horiz-adv-x="3002" 
d="M2152 2634q214 -5 349 -101.5t196 -267.5q52 -146 52 -339q0 -129 -23 -279q-52 -336 -213 -749q-152 -383 -351 -732q324 92 593.5 202.5t401.5 203.5q12 9 27 9q24 0 42 -21q9 -13 9 -29q0 -26 -21 -44q-147 -103 -454.5 -226t-671.5 -220q-173 -288 -352.5 -512.5
t-355 -360.5t-309.5 -141h-16q-67 0 -120 22q-187 82 -210 396l-1 3q-5 58 -5 111q0 139 25 309q-63 3 -125 14q-380 58 -528 269q-67 99 -82 221q-9 62 -9 149q9 312 201 665.5t502 669.5q303 308 650.5 517t645.5 252q68 9 153 9zM2117 2532q-46 0 -104 -8
q-283 -39 -614.5 -240t-623.5 -500q-194 -198 -341 -408.5t-238 -435t-96 -421.5q0 -57 7 -132q14 -99 67 -176q125 -178 460 -228q64 -11 124 -14q3 19 7.5 41t10 48.5t8.5 42.5q81 394 232 804t270 591q16 21 43 21q15 0 29 -9q21 -14 21 -40q0 -16 -9 -30
q-114 -172 -260.5 -571t-227.5 -788q-3 -19 -10 -57.5t-11 -57.5q21 -1 64 -1q192 0 460 35q324 47 643 132q230 392 392 807q153 393 206 727q22 149 22 269q0 172 -44 298q-104 293 -454 300q-11 1 -33 1zM1954 7q-302 -74 -555 -110q-251 -35 -477 -35q-52 0 -78 1
q-23 -164 -23 -301q0 -62 4 -107q19 -258 148 -312q40 -15 84 -15h12q168 7 406 249t479 630zM2189 3594q21 0 35 -13q23 -23 76 -36q27 -6 66 -6q63 0 142 18q107 27 182 27q4 0 12 -0.5t11 -0.5q96 -2 146 -50q13 -14 13 -34q0 -22 -16 -38q-16 -14 -35 -14q-21 0 -36 16
q-14 16 -77 20h-14q-63 0 -165 -24q-87 -21 -159 -21q-44 0 -91 9q-76 15 -124 60q-17 15 -17 36q0 19 14 36q15 15 37 15z" />
    <glyph glyph-name="Odieresis" unicode="&#xd6;" horiz-adv-x="3002" 
d="M2152 2634q214 -5 349 -101.5t196 -267.5q52 -146 52 -339q0 -129 -23 -279q-52 -336 -213 -749q-152 -383 -351 -732q324 92 593.5 202.5t401.5 203.5q12 9 27 9q24 0 42 -21q9 -13 9 -29q0 -26 -21 -44q-147 -103 -454.5 -226t-671.5 -220q-173 -288 -352.5 -512.5
t-355 -360.5t-309.5 -141h-16q-67 0 -120 22q-187 82 -210 396l-1 3q-5 58 -5 111q0 139 25 309q-63 3 -125 14q-380 58 -528 269q-67 99 -82 221q-9 62 -9 149q9 312 201 665.5t502 669.5q303 308 650.5 517t645.5 252q68 9 153 9zM2117 2532q-46 0 -104 -8
q-283 -39 -614.5 -240t-623.5 -500q-194 -198 -341 -408.5t-238 -435t-96 -421.5q0 -57 7 -132q14 -99 67 -176q125 -178 460 -228q64 -11 124 -14q3 19 7.5 41t10 48.5t8.5 42.5q81 394 232 804t270 591q16 21 43 21q15 0 29 -9q21 -14 21 -40q0 -16 -9 -30
q-114 -172 -260.5 -571t-227.5 -788q-3 -19 -10 -57.5t-11 -57.5q21 -1 64 -1q192 0 460 35q324 47 643 132q230 392 392 807q153 393 206 727q22 149 22 269q0 172 -44 298q-104 293 -454 300q-11 1 -33 1zM1954 7q-302 -74 -555 -110q-251 -35 -477 -35q-52 0 -78 1
q-23 -164 -23 -301q0 -62 4 -107q19 -258 148 -312q40 -15 84 -15h12q168 7 406 249t479 630zM2257 3590q26 0 44.5 -23.5t18.5 -58.5q0 -2 -0.5 -6t-0.5 -6q-2 -38 -24 -65.5t-50 -27.5q-26 0 -44.5 24t-18.5 58q0 1 0.5 5t0.5 6q1 39 23 66.5t51 27.5zM2489 3590
q27 0 44.5 -25t17.5 -63v-6q-2 -38 -24 -65.5t-50 -27.5q-26 0 -44.5 24t-18.5 58q0 1 0.5 5t0.5 6q1 40 23 67t51 27z" />
    <glyph glyph-name="multiply" unicode="&#xd7;" horiz-adv-x="1249" 
d="M1027 1385q13 0 22 -5q28 -14 28 -47q0 -12 -4 -20l-385 -789l194 -788q1 -3 1 -10q0 -17 -11 -32.5t-28 -20.5q-2 0 -5 -0.5t-4 -0.5q-19 0 -33.5 10.5t-17.5 29.5l-165 669l-332 -679q-14 -29 -45 -29q-9 0 -21 5q-29 12 -29 45q0 13 5 22l384 789l-194 789q-2 8 -2 12
q0 17 11 31t29 17q8 2 12 2q17 0 30 -10.5t18 -27.5l165 -672l332 681q12 29 45 29z" />
    <glyph glyph-name="Oslash" unicode="&#xd8;" horiz-adv-x="3002" 
d="M1099 -133q-102 -5 -177 -5q-53 0 -78 1q-23 -167 -23 -301q0 -62 4 -107q9 -118 43 -196zM1211 -125l-271 -713q14 -11 33 -19q37 -15 84 -15h12q118 8 264 122q148 117 306 311q158 193 315 446q-284 -70 -555 -110q-83 -12 -188 -22zM2150 2634l237 625q6 15 19 25
q14 9 28 9q10 0 17 -3q32 -18 32 -49q0 -9 -3 -18l-227 -598q150 -21 253 -95q132 -96 191 -265q52 -147 52 -339q0 -129 -23 -279q-58 -354 -213 -749q-149 -375 -351 -732q342 98 598 205q265 109 397 201q12 9 27 9q22 0 42 -21q9 -13 9 -29q0 -25 -21 -44
q-146 -102 -449 -223q-295 -120 -677 -223q-170 -282 -354 -512q-181 -225 -353 -360t-310 -142h-16q-67 0 -120 22q-11 5 -31 17l-295 -777q-17 -32 -48 -32q-11 0 -19 4q-15 7 -23 19q-9 14 -9 29q0 9 3 16l309 813q-22 28 -36 58q-50 101 -61 249l-1 3q-5 58 -5 111
q0 146 25 309q-61 3 -125 14q-176 25 -312 92q-137 66 -216 177q-65 94 -82 221q-9 74 -9 149q15 331 208 679q192 347 495 656q301 305 644 513q341 206 652 256q76 9 151 9zM1138 -29l973 2561q-44 0 -98 -8q-296 -45 -620 -244q-328 -200 -618 -496q-289 -293 -475 -625
q-186 -330 -200 -640q0 -73 7 -132q17 -105 67 -176q68 -95 186 -150q117 -56 274 -78q64 -11 124 -14q10 56 16 85q1 6 4.5 22t5.5 25q91 424 238 820q145 389 264 575q18 21 43 21q15 0 29 -9q21 -17 21 -40q0 -16 -9 -30q-114 -175 -255 -557q-140 -375 -233 -802
q-1 -10 -5 -29t-5 -28q-7 -35 -11 -58q21 -1 64 -1q96 0 213 8zM1251 -19q88 10 134 17q321 46 643 132q223 380 392 807q151 384 206 727q22 139 22 269q0 166 -44 298q-46 136 -158 216q-90 63 -230 80z" />
    <glyph glyph-name="Ugrave" unicode="&#xd9;" horiz-adv-x="3280" 
d="M3956 3023q12 0 20 -4q32 -14 32 -47q0 -9 -5 -21l-1438 -4027q-11 -32 -46 -32q-9 0 -18 3q-15 4 -24.5 18t-9.5 30q0 8 3 17l1081 3024q-281 -575 -540.5 -1038.5t-473.5 -779t-389 -522t-324 -324.5q-204 -162 -354 -162q-4 0 -10 0.5t-9 0.5q-160 12 -225 181
q-40 98 -40 245q0 236 100 506q406 1085 567 1732q103 427 103 629q0 203 -100 203q-8 0 -13 -1q-160 -23 -372 -155t-420 -326t-403.5 -436.5t-330.5 -480.5q-159 -281 -205 -509q-15 -75 -15 -143q0 -136 63 -227q121 -176 484 -176q7 0 21.5 0.5t22.5 0.5h3q20 0 34 -14
t16 -34q0 -22 -14.5 -37.5t-35.5 -15.5q-17 -1 -51 -1q-411 0 -564 219q-79 116 -79 282q0 77 17 165q45 243 215 540q140 247 344.5 498t422 452t440.5 337t393 159q19 3 36 3q185 0 185 -320q0 -232 -99 -636q-155 -630 -569 -1744q-96 -255 -96 -471q0 -122 33 -206
q43 -110 139 -118h10q120 0 294 140q138 109 296 292t362.5 483t428 689t496.5 934t564 1194q14 31 47 31zM2919 3584q17 0 31 -12l210 -173q18 -16 18 -40q0 -16 -11 -32q-17 -18 -40 -18q-16 0 -32 11l-210 175q-17 15 -17 39q0 18 12 33q15 17 39 17z" />
    <glyph glyph-name="Uacute" unicode="&#xda;" horiz-adv-x="3280" 
d="M3956 3023q12 0 20 -4q32 -14 32 -47q0 -9 -5 -21l-1438 -4027q-11 -32 -46 -32q-9 0 -18 3q-15 4 -24.5 18t-9.5 30q0 8 3 17l1081 3024q-281 -575 -540.5 -1038.5t-473.5 -779t-389 -522t-324 -324.5q-204 -162 -354 -162q-4 0 -10 0.5t-9 0.5q-160 12 -225 181
q-40 98 -40 245q0 236 100 506q406 1085 567 1732q103 427 103 629q0 203 -100 203q-8 0 -13 -1q-160 -23 -372 -155t-420 -326t-403.5 -436.5t-330.5 -480.5q-159 -281 -205 -509q-15 -75 -15 -143q0 -136 63 -227q121 -176 484 -176q7 0 21.5 0.5t22.5 0.5h3q20 0 34 -14
t16 -34q0 -22 -14.5 -37.5t-35.5 -15.5q-17 -1 -51 -1q-411 0 -564 219q-79 116 -79 282q0 77 17 165q45 243 215 540q140 247 344.5 498t422 452t440.5 337t393 159q19 3 36 3q185 0 185 -320q0 -232 -99 -636q-155 -630 -569 -1744q-96 -255 -96 -471q0 -122 33 -206
q43 -110 139 -118h10q120 0 294 140q138 109 296 292t362.5 483t428 689t496.5 934t564 1194q14 31 47 31zM3465 3584q24 0 39 -17q12 -15 12 -33q0 -24 -17 -39l-210 -175q-16 -11 -32 -11q-23 0 -40 18q-11 16 -11 32q0 23 18 40l210 173q14 12 31 12z" />
    <glyph glyph-name="Ucircumflex" unicode="&#xdb;" horiz-adv-x="3280" 
d="M3956 3023q12 0 20 -4q32 -14 32 -47q0 -9 -5 -21l-1438 -4027q-11 -32 -46 -32q-9 0 -18 3q-15 4 -24.5 18t-9.5 30q0 8 3 17l1081 3024q-281 -575 -540.5 -1038.5t-473.5 -779t-389 -522t-324 -324.5q-204 -162 -354 -162q-4 0 -10 0.5t-9 0.5q-160 12 -225 181
q-40 98 -40 245q0 236 100 506q406 1085 567 1732q103 427 103 629q0 203 -100 203q-8 0 -13 -1q-160 -23 -372 -155t-420 -326t-403.5 -436.5t-330.5 -480.5q-159 -281 -205 -509q-15 -75 -15 -143q0 -136 63 -227q121 -176 484 -176q7 0 21.5 0.5t22.5 0.5h3q20 0 34 -14
t16 -34q0 -22 -14.5 -37.5t-35.5 -15.5q-17 -1 -51 -1q-411 0 -564 219q-79 116 -79 282q0 77 17 165q45 243 215 540q140 247 344.5 498t422 452t440.5 337t393 159q19 3 36 3q185 0 185 -320q0 -232 -99 -636q-155 -630 -569 -1744q-96 -255 -96 -471q0 -122 33 -206
q43 -110 139 -118h10q120 0 294 140q138 109 296 292t362.5 483t428 689t496.5 934t564 1194q14 31 47 31zM3092 3672q40 0 69 -45.5t81 -170.5l43 -106q5 -10 5 -20q0 -33 -32 -44q-12 -5 -21 -5q-30 0 -45 31l-43 105q-19 44 -33.5 84t-19 55t-7.5 15q-1 0 -7 -11
t-21 -39.5t-32 -57.5q-41 -75 -102 -170q-15 -24 -44 -24q-15 0 -26 7q-23 14 -23 41q0 15 9 29q25 41 60.5 100.5t39.5 66.5q62 107 86 132q28 27 57 27h6z" />
    <glyph glyph-name="Udieresis" unicode="&#xdc;" horiz-adv-x="3280" 
d="M3956 3023q12 0 20 -4q32 -14 32 -47q0 -9 -5 -21l-1438 -4027q-11 -32 -46 -32q-9 0 -18 3q-15 4 -24.5 18t-9.5 30q0 8 3 17l1081 3024q-281 -575 -540.5 -1038.5t-473.5 -779t-389 -522t-324 -324.5q-204 -162 -354 -162q-4 0 -10 0.5t-9 0.5q-160 12 -225 181
q-40 98 -40 245q0 236 100 506q406 1085 567 1732q103 427 103 629q0 203 -100 203q-8 0 -13 -1q-160 -23 -372 -155t-420 -326t-403.5 -436.5t-330.5 -480.5q-159 -281 -205 -509q-15 -75 -15 -143q0 -136 63 -227q121 -176 484 -176q7 0 21.5 0.5t22.5 0.5h3q20 0 34 -14
t16 -34q0 -22 -14.5 -37.5t-35.5 -15.5q-17 -1 -51 -1q-411 0 -564 219q-79 116 -79 282q0 77 17 165q45 243 215 540q140 247 344.5 498t422 452t440.5 337t393 159q19 3 36 3q185 0 185 -320q0 -232 -99 -636q-155 -630 -569 -1744q-96 -255 -96 -471q0 -122 33 -206
q43 -110 139 -118h10q120 0 294 140q138 109 296 292t362.5 483t428 689t496.5 934t564 1194q14 31 47 31zM2996 3590q26 0 44.5 -23.5t18.5 -58.5q0 -2 -0.5 -6t-0.5 -6q-2 -38 -24 -65.5t-50 -27.5q-26 0 -44.5 24t-18.5 58q0 1 0.5 5t0.5 6q1 39 23 66.5t51 27.5z
M3228 3590q27 0 44.5 -25t17.5 -63v-6q-2 -38 -24 -65.5t-50 -27.5q-26 0 -44.5 24t-18.5 58q0 1 0.5 5t0.5 6q1 40 23 67t51 27z" />
    <glyph glyph-name="Yacute" unicode="&#xdd;" horiz-adv-x="3477" 
d="M3793 3023q12 0 21 -4q29 -14 29 -49q0 -6 -2 -16q-37 -118 -372.5 -960.5t-680.5 -1676.5q-108 -259 -344 -824q104 109 227 228q323 317 590.5 549.5t356.5 267.5q8 3 17 3q35 0 48 -32q3 -9 3 -18q0 -35 -32 -49q-80 -31 -337.5 -256t-575.5 -537q-214 -211 -409 -418
q-228 -526 -311 -674q-69 -126 -139 -200t-127 -96q-25 -11 -51 -11q-31 0 -54 16q-47 28 -50 89q-1 6 -1 17q0 131 135 317q171 239 512 598q184 428 449 1068q350 850 538 1324q-254 -502 -488.5 -908.5t-429 -687.5t-355.5 -467.5t-298 -295.5q-204 -162 -356 -162
q-3 0 -9.5 0.5t-9.5 0.5q-156 12 -225 181q-40 98 -40 243q0 239 102 508q5 15 34 89q53 136 82 211t104.5 278t124 347.5t115.5 357t107 372.5t69 328t29 286q0 142 -41 217q-33 56 -103 56q-80 0 -205 -71q-218 -122 -460.5 -372.5t-446.5 -558.5t-318 -598
q-110 -294 -110 -493v-19q8 -220 153 -317q117 -78 318 -78q121 0 273 28q2 0 4.5 0.5t3.5 0.5q19 0 33.5 -12t18.5 -30q1 -3 1 -9q0 -19 -12.5 -33.5t-29.5 -17.5q-155 -29 -288 -29q-238 0 -379 96q-185 128 -196 399v26q0 228 117 524q118 300 329 618.5t461 576.5
t477 387q154 87 262 87q122 0 186 -113q49 -86 49 -255q0 -126 -29 -300.5t-69 -339t-107 -380.5t-116.5 -362.5t-124.5 -350.5t-104.5 -280.5t-82.5 -212.5l-36 -89q-95 -256 -95 -471q0 -122 33 -206q46 -111 139 -118h10q122 0 296 140q137 109 295 292t362 483
t427.5 689t497 934t565.5 1194q11 31 46 31zM2121 -999q-206 -231 -306 -370q-115 -163 -115 -258v-8l3 -12q0 -1 2 -1q1 0 5.5 1.5t6.5 1.5q96 40 215 250q62 109 189 396zM3057 3584q24 0 39 -17q12 -15 12 -33q0 -24 -17 -39l-210 -175q-16 -11 -32 -11q-23 0 -40 18
q-11 16 -11 32q0 23 18 40l210 173q14 12 31 12z" />
    <glyph glyph-name="Thorn" unicode="&#xde;" horiz-adv-x="933" 
d="M342 960q0 -13 -1.5 -51.5t-2.5 -62.5q-8 -188 -18 -428q-1 -22 -3 -57.5t-3 -62t-2 -48.5q37 -15 80 -11q2 0 26 3q71 15 122 67t79 125q29 77 38 158q10 96 -8 189q-14 70 -45 125q-3 4 -8 12.5t-7 12.5q-25 37 -62 59q-34 19 -76 16q-1 -1 -3.5 -1.5t-3.5 -0.5l-6 -1
q-52 -10 -96 -43zM243 1010q16 385 16 450q0 23 -1 28v3q0 13 13 22t32 10q1 0 2 1h2q20 0 35 -9q15 -10 16 -23q1 -5 1 -28q0 -35 -15 -383q26 11 63 20l1 1q4 0 10 2q5 0 11 2q84 11 148 -22q64 -35 104 -100q14 -22 20 -34q33 -64 48 -148q19 -102 8 -218
q-9 -106 -46 -197t-102 -158q-65 -65 -161 -88q-19 -4 -40 -6q-52 -4 -99 5q-1 -59 -21 -358q-3 -63 -3 -65q0 -14 -15 -23t-35 -9q-22 0 -35 10q-15 11 -15 24l1 7q0 6 0.5 21t0.5 32q19 315 24 405z" />
    <glyph glyph-name="germandbls" unicode="&#xdf;" horiz-adv-x="3580" 
d="M3085 3025q63 0 125 -15q96 -25 145 -100q44 -71 44 -175q0 -110 -49 -255q-95 -277 -334 -604q-130 -178 -291.5 -355t-371.5 -363.5t-444 -356t-518 -331.5t-585 -291q182 22 334 22q346 0 523 -115q170 -112 170 -314q0 -60 -15 -125q-17 -67 -50 -146
q264 -16 480 -163q22 -13 22 -41q0 -15 -8 -29q-16 -22 -43 -22q-15 0 -29 8q-213 144 -475 149q-69 -120 -176 -235q-146 -159 -315.5 -259t-306.5 -100q-67 0 -118 25l-5 3q-67 35 -67 109q0 9 2 27q12 77 98 171q88 91 206 163q297 183 623 196q50 103 64 168
q12 50 12 97q0 150 -126 234q-150 99 -467 99q-200 0 -457 -39q-143 -310 -198 -480q-6 -15 -20.5 -25t-30.5 -10q-4 0 -14 2q-15 5 -24.5 18.5t-9.5 29.5q0 8 3 17q51 164 174 426q-159 -29 -308 -65q-2 0 -5 -0.5t-4 -0.5q-40 0 -50 37q-3 8 -3 16q0 16 10 29t26 18
q209 64 423 151q238 484 560.5 1007.5t658.5 931.5q159 193 311.5 346t307 270.5t306.5 181t288 63.5h2zM3079 2924q-451 0 -1132 -822q-315 -384 -618.5 -870t-536.5 -947q292 126 567.5 284t502 322.5t430 346t360.5 353.5t283 345q230 318 320 578q43 125 43 219
q0 75 -29 121q-23 42 -83 58q-53 12 -107 12zM1594 -602q-264 -26 -507 -175q-109 -69 -186 -149q-60 -63 -74 -117q0 -22 15 -31h2q34 -17 82 -17q111 0 260 92.5t279 235.5q60 64 129 161z" />
    <glyph glyph-name="agrave" unicode="&#xe0;" horiz-adv-x="1190" 
d="M755 907q15 0 28 -9q22 -14 22 -42q0 -14 -8 -25q-221 -462 -361 -850q-93 -262 -117 -393q-12 -79 -12 -109q0 -37 12 -43q1 0 3 -0.5t3 -0.5q73 0 314 253q129 138 287 331.5t253 320.5t113 157q16 24 46 24q15 0 26 -7q21 -17 21 -45q0 -14 -7 -27
q-27 -40 -118 -161.5t-254 -322t-295 -339.5q-267 -283 -393 -283q-8 0 -20 2q-15 4 -17 5q-71 28 -71 150q0 47 11 111q35 179 122 413q67 186 141 360q-337 -464 -421 -489q-17 -7 -35 -7q-25 0 -46 16q-43 29 -43 111q0 62 22 144q46 174 152 358t228 263q56 38 130 38
q71 0 168 -35l72 108q17 23 44 23zM471 709q-46 0 -75 -20q-72 -46 -143 -146.5t-119.5 -208.5t-74.5 -209q-19 -71 -19 -117v-22q55 32 212.5 243t327.5 460q-64 20 -109 20zM541 1600q17 0 31 -12l210 -173q18 -17 18 -40q0 -16 -11 -32q-17 -18 -40 -18q-16 0 -32 11
l-210 175q-17 15 -17 39q0 18 12 33q15 17 39 17z" />
    <glyph glyph-name="aacute" unicode="&#xe1;" horiz-adv-x="1190" 
d="M755 907q15 0 28 -9q22 -14 22 -42q0 -14 -8 -25q-221 -462 -361 -850q-93 -262 -117 -393q-12 -79 -12 -109q0 -37 12 -43q1 0 3 -0.5t3 -0.5q73 0 314 253q129 138 287 331.5t253 320.5t113 157q16 24 46 24q15 0 26 -7q21 -17 21 -45q0 -14 -7 -27
q-27 -40 -118 -161.5t-254 -322t-295 -339.5q-267 -283 -393 -283q-8 0 -20 2q-15 4 -17 5q-71 28 -71 150q0 47 11 111q35 179 122 413q67 186 141 360q-337 -464 -421 -489q-17 -7 -35 -7q-25 0 -46 16q-43 29 -43 111q0 62 22 144q46 174 152 358t228 263q56 38 130 38
q71 0 168 -35l72 108q17 23 44 23zM471 709q-46 0 -75 -20q-72 -46 -143 -146.5t-119.5 -208.5t-74.5 -209q-19 -71 -19 -117v-22q55 32 212.5 243t327.5 460q-64 20 -109 20zM924 1600q24 0 39 -17q12 -15 12 -33q0 -24 -17 -39l-210 -175q-16 -11 -32 -11q-24 0 -40 18
q-11 16 -11 32q0 23 18 40l210 173q13 12 31 12z" />
    <glyph glyph-name="acircumflex" unicode="&#xe2;" horiz-adv-x="1190" 
d="M755 907q15 0 28 -9q22 -14 22 -42q0 -14 -8 -25q-221 -462 -361 -850q-93 -262 -117 -393q-12 -79 -12 -109q0 -37 12 -43q1 0 3 -0.5t3 -0.5q73 0 314 253q129 138 287 331.5t253 320.5t113 157q16 24 46 24q15 0 26 -7q21 -17 21 -45q0 -14 -7 -27
q-27 -40 -118 -161.5t-254 -322t-295 -339.5q-267 -283 -393 -283q-8 0 -20 2q-15 4 -17 5q-71 28 -71 150q0 47 11 111q35 179 122 413q67 186 141 360q-337 -464 -421 -489q-17 -7 -35 -7q-25 0 -46 16q-43 29 -43 111q0 62 22 144q46 174 152 358t228 263q56 38 130 38
q71 0 168 -35l72 108q17 23 44 23zM471 709q-46 0 -75 -20q-72 -46 -143 -146.5t-119.5 -208.5t-74.5 -209q-19 -71 -19 -117v-22q55 32 212.5 243t327.5 460q-64 20 -109 20zM685 1713q40 0 69 -45.5t81 -170.5l43 -106q5 -10 5 -20q0 -33 -32 -44q-12 -5 -21 -5
q-30 0 -45 31l-43 105q-19 44 -33.5 84t-19 55t-7.5 15q-1 0 -7 -11t-21 -39.5t-32 -57.5q-41 -75 -102 -170q-15 -24 -44 -24q-15 0 -26 7q-23 14 -23 41q0 16 9 29q25 41 60.5 100.5t39.5 66.5q62 107 86 132q28 27 57 27h6z" />
    <glyph glyph-name="atilde" unicode="&#xe3;" horiz-adv-x="1190" 
d="M755 907q15 0 28 -9q22 -14 22 -42q0 -14 -8 -25q-221 -462 -361 -850q-93 -262 -117 -393q-12 -79 -12 -109q0 -37 12 -43q1 0 3 -0.5t3 -0.5q73 0 314 253q129 138 287 331.5t253 320.5t113 157q16 24 46 24q15 0 26 -7q21 -17 21 -45q0 -14 -7 -27
q-27 -40 -118 -161.5t-254 -322t-295 -339.5q-267 -283 -393 -283q-8 0 -20 2q-15 4 -17 5q-71 28 -71 150q0 47 11 111q35 179 122 413q67 186 141 360q-337 -464 -421 -489q-17 -7 -35 -7q-25 0 -46 16q-43 29 -43 111q0 62 22 144q46 174 152 358t228 263q56 38 130 38
q71 0 168 -35l72 108q17 23 44 23zM471 709q-46 0 -75 -20q-72 -46 -143 -146.5t-119.5 -208.5t-74.5 -209q-19 -71 -19 -117v-22q55 32 212.5 243t327.5 460q-64 20 -109 20zM328 1581q21 0 35 -13q23 -23 76 -36q27 -6 66 -6q63 0 142 18q107 27 182 27q4 0 12 -0.5
t11 -0.5q96 -2 146 -50q13 -14 13 -34q0 -22 -16 -38q-16 -14 -35 -14q-21 0 -36 16q-14 16 -77 20h-14q-63 0 -165 -24q-87 -21 -159 -21q-44 0 -91 9q-76 15 -124 60q-17 15 -17 36q0 19 14 36q15 15 37 15z" />
    <glyph glyph-name="adieresis" unicode="&#xe4;" horiz-adv-x="1190" 
d="M755 907q15 0 28 -9q22 -14 22 -42q0 -14 -8 -25q-221 -462 -361 -850q-93 -262 -117 -393q-12 -79 -12 -109q0 -37 12 -43q1 0 3 -0.5t3 -0.5q73 0 314 253q129 138 287 331.5t253 320.5t113 157q16 24 46 24q15 0 26 -7q21 -17 21 -45q0 -14 -7 -27
q-27 -40 -118 -161.5t-254 -322t-295 -339.5q-267 -283 -393 -283q-8 0 -20 2q-15 4 -17 5q-71 28 -71 150q0 47 11 111q35 179 122 413q67 186 141 360q-337 -464 -421 -489q-17 -7 -35 -7q-25 0 -46 16q-43 29 -43 111q0 62 22 144q46 174 152 358t228 263q56 38 130 38
q71 0 168 -35l72 108q17 23 44 23zM471 709q-46 0 -75 -20q-72 -46 -143 -146.5t-119.5 -208.5t-74.5 -209q-19 -71 -19 -117v-22q55 32 212.5 243t327.5 460q-64 20 -109 20zM601 1590q26 0 44.5 -23.5t18.5 -58.5q0 -2 -0.5 -6t-0.5 -6q-2 -38 -24 -65.5t-50 -27.5
q-26 0 -44.5 24t-18.5 58q0 1 0.5 5t0.5 6q1 39 23 66.5t51 27.5zM833 1590q27 0 44.5 -25t17.5 -63v-6q-2 -38 -24 -65.5t-50 -27.5q-26 0 -44.5 24t-18.5 58q0 1 0.5 5t0.5 6q1 40 23 67t51 27z" />
    <glyph glyph-name="aring" unicode="&#xe5;" horiz-adv-x="1190" 
d="M755 907q15 0 28 -9q22 -14 22 -42q0 -14 -8 -25q-221 -462 -361 -850q-93 -262 -117 -393q-12 -79 -12 -109q0 -37 12 -43q1 0 3 -0.5t3 -0.5q73 0 314 253q129 138 287 331.5t253 320.5t113 157q16 24 46 24q15 0 26 -7q21 -17 21 -45q0 -14 -7 -27
q-27 -40 -118 -161.5t-254 -322t-295 -339.5q-267 -283 -393 -283q-8 0 -20 2q-15 4 -17 5q-71 28 -71 150q0 47 11 111q35 179 122 413q67 186 141 360q-337 -464 -421 -489q-17 -7 -35 -7q-25 0 -46 16q-43 29 -43 111q0 62 22 144q46 174 152 358t228 263q56 38 130 38
q71 0 168 -35l72 108q17 23 44 23zM471 709q-46 0 -75 -20q-72 -46 -143 -146.5t-119.5 -208.5t-74.5 -209q-19 -71 -19 -117v-22q55 32 212.5 243t327.5 460q-64 20 -109 20zM766 1697h-2q-18 25 -44 39q-21 11 -51 11l-3 1q-43 -2 -84 -35q-35 -28 -59 -75q-6 -9 -21 -45
q-16 -35 -16 -92t25 -91l2 -1q17 -26 44 -40q22 -12 51 -10l2 -1q42 2 85 35q35 28 59 75q6 9 21 45q16 35 16 92q0 55 -25 92zM617 1257h-6q-51 -1 -100 23l-10 5q-43 22 -73 64v4q-40 57 -43 138q-4 77 37 171q4 9 12 25q38 74 98 116q62 43 128 46h5q52 1 101 -23l10 -5
q44 -23 72 -65l1 -3q38 -56 43 -138q3 -82 -37 -172q-6 -15 -13 -25q-37 -72 -97 -116q-60 -42 -128 -45z" />
    <glyph glyph-name="ae" unicode="&#xe6;" horiz-adv-x="2455" 
d="M1304 762q-55 -1 -132 -46q-112 -70 -215 -190q-20 -22 -33 -43q148 53 240 102q95 52 140 92q34 35 45 60q2 6 2 7q0 3 -2 5q0 3 -3 4l-9 3q-15 6 -33 6zM717 709q-41 1 -75 -20q-117 -83 -207 -247q-90 -163 -130 -317q-19 -69 -19 -117v-22q45 29 139 149
q91 114 204 272q85 119 197 282q-56 19 -109 20zM983 699q67 59 139 103q100 61 187 61q31 0 64 -11q37 -15 60 -45q18 -25 18 -59q0 -22 -9 -47q-14 -44 -71 -98q-61 -58 -191 -123q-130 -64 -342 -132q-25 -42 -34 -74q-27 -70 -27 -129q0 -50 22 -87q15 -26 44 -38
t70 -12q93 0 231 49q149 54 296 122q147 69 313 150q7 4 14 7q16 8 23 11q259 132 434 196q8 3 16 3q32 0 48 -34q2 -10 2 -15q0 -33 -35 -50q-165 -61 -442 -202q-174 -86 -324 -155q-165 -76 -315 -126q-152 -51 -265 -51q-69 0 -117 22q-51 22 -79 70q-36 66 -36 143
t32 162q4 8 5 13l1 2q3 23 15 52q-132 -184 -246 -323q-120 -144 -175 -166q-17 -7 -35 -7q-27 0 -46 16q-43 34 -43 111q0 62 22 144q44 168 145 347q102 181 235 274q32 21 64 30q35 8 66 8q47 0 88 -10q35 -9 80 -25l72 108q20 23 44 23q15 0 28 -9q22 -18 22 -42
q0 -12 -8 -25q-17 -36 -60 -132z" />
    <glyph glyph-name="ccedilla" unicode="&#xe7;" horiz-adv-x="1181" 
d="M78 -14q-21 6 -36 16q-47 25 -73 85q-16 38 -16 81q0 24 4 44q35 172 194 345q158 170 330 247q72 29 131 29q12 0 34 -2q25 -4 50 -19q30 -19 38 -58q2 -12 2 -19q0 -23 -12 -48q-14 -35 -57 -75q-17 -14 -36 -14q-24 0 -40 19q-15 17 -15 36q0 21 17 41l29 29h-10
q-41 0 -88 -19q-149 -69 -292 -221q-137 -154 -167 -288q-3 -13 -3 -26q0 -21 8 -39q11 -26 34 -36q24 -11 59 -11q52 0 130 23q75 22 166 60q199 88 390 188l28 14q125 64 240 120q112 54 210 88q9 4 19 4q34 0 50 -37q3 -9 3 -18q0 -35 -36 -52q-171 -64 -384 -176
q-34 -16 -51 -25q-220 -116 -426 -207q-103 -42 -186 -65q-74 -21 -135 -24l-103 -270q112 -22 150 -93q19 -34 19 -75q0 -42 -21 -86q-38 -78 -124 -122q-57 -26 -121 -26q-53 0 -116 23q-61 22 -124 75q-17 17 -17 36q0 17 13 33q17 18 37 18q18 0 32 -10q47 -40 92 -56
q43 -18 82 -18q44 0 79 18q55 28 76 72q11 24 11 43q0 15 -6 27q-10 19 -42 33q-32 12 -89 12q-7 0 -10 1q-2 0 -10 2q-16 6 -23 19q-9 14 -9 28q0 10 4 18z" />
    <glyph glyph-name="egrave" unicode="&#xe8;" horiz-adv-x="1377" 
d="M601 863q37 0 64 -11q34 -12 60 -45q18 -28 18 -59q0 -23 -9 -47q-14 -44 -71 -98q-146 -134 -533 -255q-23 -37 -34 -74q-27 -73 -27 -129q0 -50 22 -87q29 -50 114 -50q66 0 159.5 26t230 85t217.5 97.5t247 119.5q346 170 457 207q7 3 16 3q16 0 29.5 -9.5t18.5 -24.5
q2 -10 2 -15q0 -17 -9.5 -31t-25.5 -19q-143 -51 -442 -202q-166 -81 -251.5 -121t-225 -99t-243 -85.5t-184.5 -26.5q-142 0 -196 92q-36 62 -36 143q0 78 32 162q27 66 40 89q5 19 17 29q41 75 115 163q115 139 241 211q104 61 187 61zM596 762q-57 -2 -132 -46
q-114 -70 -215 -190q-21 -25 -33 -43q263 92 380 194q34 35 45 60q2 3 2 7t-2 5q0 4 -12 7q-15 6 -33 6zM448 1600q18 0 31 -12l210 -173q18 -17 18 -40q0 -16 -11 -32q-16 -18 -40 -18q-16 0 -32 11l-210 175q-17 15 -17 39q0 18 12 33q15 17 39 17z" />
    <glyph glyph-name="eacute" unicode="&#xe9;" horiz-adv-x="1377" 
d="M601 863q37 0 64 -11q34 -12 60 -45q18 -28 18 -59q0 -23 -9 -47q-14 -44 -71 -98q-146 -134 -533 -255q-23 -37 -34 -74q-27 -73 -27 -129q0 -50 22 -87q29 -50 114 -50q66 0 159.5 26t230 85t217.5 97.5t247 119.5q346 170 457 207q7 3 16 3q16 0 29.5 -9.5t18.5 -24.5
q2 -10 2 -15q0 -17 -9.5 -31t-25.5 -19q-143 -51 -442 -202q-166 -81 -251.5 -121t-225 -99t-243 -85.5t-184.5 -26.5q-142 0 -196 92q-36 62 -36 143q0 78 32 162q27 66 40 89q5 19 17 29q41 75 115 163q115 139 241 211q104 61 187 61zM596 762q-57 -2 -132 -46
q-114 -70 -215 -190q-21 -25 -33 -43q263 92 380 194q34 35 45 60q2 3 2 7t-2 5q0 4 -12 7q-15 6 -33 6zM906 1600q24 0 39 -17q12 -15 12 -33q0 -24 -17 -39l-210 -175q-16 -11 -32 -11q-24 0 -40 18q-11 16 -11 32q0 23 18 40l210 173q13 12 31 12z" />
    <glyph glyph-name="ecircumflex" unicode="&#xea;" horiz-adv-x="1377" 
d="M601 863q37 0 64 -11q34 -12 60 -45q18 -28 18 -59q0 -23 -9 -47q-14 -44 -71 -98q-146 -134 -533 -255q-23 -37 -34 -74q-27 -73 -27 -129q0 -50 22 -87q29 -50 114 -50q66 0 159.5 26t230 85t217.5 97.5t247 119.5q346 170 457 207q7 3 16 3q16 0 29.5 -9.5t18.5 -24.5
q2 -10 2 -15q0 -17 -9.5 -31t-25.5 -19q-143 -51 -442 -202q-166 -81 -251.5 -121t-225 -99t-243 -85.5t-184.5 -26.5q-142 0 -196 92q-36 62 -36 143q0 78 32 162q27 66 40 89q5 19 17 29q41 75 115 163q115 139 241 211q104 61 187 61zM596 762q-57 -2 -132 -46
q-114 -70 -215 -190q-21 -25 -33 -43q263 92 380 194q34 35 45 60q2 3 2 7t-2 5q0 4 -12 7q-15 6 -33 6zM633 1723q40 0 69 -45.5t81 -170.5l43 -106q5 -10 5 -20q0 -33 -32 -44q-12 -5 -21 -5q-30 0 -45 31l-43 105q-19 44 -33.5 84t-19 55t-7.5 15q-1 0 -7 -11t-21 -39.5
t-32 -57.5q-41 -75 -102 -170q-15 -24 -44 -24q-15 0 -26 7q-23 14 -23 41q0 16 9 29q25 41 60.5 100.5t39.5 66.5q62 107 86 132q28 27 57 27h6z" />
    <glyph glyph-name="edieresis" unicode="&#xeb;" horiz-adv-x="1377" 
d="M601 863q37 0 64 -11q34 -12 60 -45q18 -28 18 -59q0 -23 -9 -47q-14 -44 -71 -98q-146 -134 -533 -255q-23 -37 -34 -74q-27 -73 -27 -129q0 -50 22 -87q29 -50 114 -50q66 0 159.5 26t230 85t217.5 97.5t247 119.5q346 170 457 207q7 3 16 3q16 0 29.5 -9.5t18.5 -24.5
q2 -10 2 -15q0 -17 -9.5 -31t-25.5 -19q-143 -51 -442 -202q-166 -81 -251.5 -121t-225 -99t-243 -85.5t-184.5 -26.5q-142 0 -196 92q-36 62 -36 143q0 78 32 162q27 66 40 89q5 19 17 29q41 75 115 163q115 139 241 211q104 61 187 61zM596 762q-57 -2 -132 -46
q-114 -70 -215 -190q-21 -25 -33 -43q263 92 380 194q34 35 45 60q2 3 2 7t-2 5q0 4 -12 7q-15 6 -33 6zM601 1590q26 0 44.5 -23.5t18.5 -58.5q0 -2 -0.5 -6t-0.5 -6q-2 -38 -24 -65.5t-50 -27.5q-26 0 -44.5 24t-18.5 58q0 1 0.5 5t0.5 6q1 39 23 66.5t51 27.5zM833 1590
q27 0 44.5 -25t17.5 -63v-6q-2 -38 -24 -65.5t-50 -27.5q-26 0 -44.5 24t-18.5 58q0 1 0.5 5t0.5 6q1 40 23 67t51 27z" />
    <glyph glyph-name="igrave" unicode="&#xec;" horiz-adv-x="1149" 
d="M589 1430q25 0 47 -14.5t22 -32.5q0 -17 -23 -31q-30 -18 -65.5 -58.5t-56.5 -70.5t-21 -32q-12 -23 -32 -23q-14 0 -25 12t-11 30q0 8 3 17q2 6 5.5 15.5t16.5 37t27 51t36 49.5t45 41q13 9 32 9zM211 649q15 0 32 -10q24 -18 24 -47q0 -16 -9 -30q-71 -102 -93 -190
q-9 -34 -9 -66q0 -31 11 -61q29 -70 135 -70q145 0 484 147q29 12 165 72q210 97 315 134q9 3 19 3q39 0 53 -36q3 -9 3 -17q0 -17 -10 -32t-26 -21q-104 -38 -311 -132q-111 -51 -165 -72q-362 -155 -532 -155q-173 0 -230 136q-21 45 -21 103q0 48 13 96q29 110 108 223
q15 25 44 25zM481 1992q17 0 31 -12l210 -173q18 -17 18 -40q0 -16 -11 -32q-17 -18 -40 -18q-16 0 -32 11l-210 175q-17 15 -17 39q0 18 12 33q15 17 39 17z" />
    <glyph glyph-name="iacute" unicode="&#xed;" horiz-adv-x="1149" 
d="M589 1430q25 0 47 -14.5t22 -32.5q0 -17 -23 -31q-30 -18 -65.5 -58.5t-56.5 -70.5t-21 -32q-12 -23 -32 -23q-14 0 -25 12t-11 30q0 8 3 17q2 6 5.5 15.5t16.5 37t27 51t36 49.5t45 41q13 9 32 9zM211 649q15 0 32 -10q24 -18 24 -47q0 -16 -9 -30q-71 -102 -93 -190
q-9 -34 -9 -66q0 -31 11 -61q29 -70 135 -70q145 0 484 147q29 12 165 72q210 97 315 134q9 3 19 3q39 0 53 -36q3 -9 3 -17q0 -17 -10 -32t-26 -21q-104 -38 -311 -132q-111 -51 -165 -72q-362 -155 -532 -155q-173 0 -230 136q-21 45 -21 103q0 48 13 96q29 110 108 223
q15 25 44 25zM970 1997q24 0 39 -17q12 -15 12 -33q0 -24 -17 -39l-210 -175q-16 -11 -32 -11q-24 0 -40 18q-11 16 -11 32q0 24 18 40l210 173q13 12 31 12z" />
    <glyph glyph-name="icircumflex" unicode="&#xee;" horiz-adv-x="1149" 
d="M589 1430q25 0 47 -14.5t22 -32.5q0 -17 -23 -31q-30 -18 -65.5 -58.5t-56.5 -70.5t-21 -32q-12 -23 -32 -23q-14 0 -25 12t-11 30q0 8 3 17q2 6 5.5 15.5t16.5 37t27 51t36 49.5t45 41q13 9 32 9zM211 649q15 0 32 -10q24 -18 24 -47q0 -16 -9 -30q-71 -102 -93 -190
q-9 -34 -9 -66q0 -31 11 -61q29 -70 135 -70q145 0 484 147q29 12 165 72q210 97 315 134q9 3 19 3q39 0 53 -36q3 -9 3 -17q0 -17 -10 -32t-26 -21q-104 -38 -311 -132q-111 -51 -165 -72q-362 -155 -532 -155q-173 0 -230 136q-21 45 -21 103q0 48 13 96q29 110 108 223
q15 25 44 25zM748 2258q40 0 69 -45.5t81 -170.5l43 -106q5 -10 5 -20q0 -33 -32 -44q-12 -5 -21 -5q-30 0 -45 31l-43 105q-19 44 -33.5 84t-19 55t-7.5 15q-1 0 -7 -11t-21 -39.5t-32 -57.5q-41 -75 -102 -170q-15 -24 -44 -24q-15 0 -26 7q-23 14 -23 41q0 15 9 29
q25 41 60.5 100.5t39.5 66.5q62 107 86 132q28 27 57 27h6z" />
    <glyph glyph-name="idieresis" unicode="&#xef;" horiz-adv-x="1149" 
d="M589 1430q25 0 47 -14.5t22 -32.5q0 -17 -23 -31q-30 -18 -65.5 -58.5t-56.5 -70.5t-21 -32q-12 -23 -32 -23q-14 0 -25 12t-11 30q0 8 3 17q2 6 5.5 15.5t16.5 37t27 51t36 49.5t45 41q13 9 32 9zM211 649q15 0 32 -10q24 -18 24 -47q0 -16 -9 -30q-71 -102 -93 -190
q-9 -34 -9 -66q0 -31 11 -61q29 -70 135 -70q145 0 484 147q29 12 165 72q210 97 315 134q9 3 19 3q39 0 53 -36q3 -9 3 -17q0 -17 -10 -32t-26 -21q-104 -38 -311 -132q-111 -51 -165 -72q-362 -155 -532 -155q-173 0 -230 136q-21 45 -21 103q0 48 13 96q29 110 108 223
q15 25 44 25zM626 2051q26 0 44.5 -23.5t18.5 -58.5q0 -2 -0.5 -6t-0.5 -6q-2 -38 -24 -65.5t-50 -27.5q-26 0 -44.5 24t-18.5 58q0 1 0.5 5t0.5 6q1 39 23 66.5t51 27.5zM858 2051q27 0 44.5 -25t17.5 -63v-6q-2 -38 -24 -65.5t-50 -27.5q-26 0 -44.5 24t-18.5 58
q0 1 0.5 5t0.5 6q1 40 23 67t51 27z" />
    <glyph glyph-name="eth" unicode="&#xf0;" horiz-adv-x="1997" 
d="M1771 2330q11 0 23 -5q30 -17 30 -51q0 -12 -6 -24v-2q-15 -33 -69 -153.5t-164 -374t-216 -508.5l327 46h4q20 0 35 -12t19 -31v-7q0 -19 -12.5 -33t-30.5 -18l-387 -52q-154 -374 -283.5 -717.5t-254 -714t-196 -680.5t-71.5 -503q0 -218 94 -274q27 -17 27 -48
q0 -15 -8 -29q-16 -25 -45 -25q-15 0 -29 9q-123 73 -123 349q0 208 67.5 522.5t185.5 679.5t243 706.5t274 709.5l-5 -2q-124 -218 -239 -403q16 -16 16 -40q0 -20 -11 -34q-19 -21 -43 -21q-11 0 -19 4q-329 -509 -471 -556q-19 -6 -36 -6q-33 0 -59 20q-46 28 -57 101
q-6 30 -6 68q0 29 3 61q14 123 76 248.5t161 200.5q77 53 173 53q22 0 44 -3q72 -8 140 -41q100 158 196 331l-415 -55q-3 -1 -8 -1q-18 0 -32 12.5t-17 31.5v5q0 19 12.5 34t30.5 16l491 67q139 246 286 524.5t225.5 434t78.5 158.5q15 32 51 32zM691 674q-67 0 -110 -32
q-82 -60 -133 -164.5t-63 -209.5q-1 -14 -1 -41q0 -34 4 -55q3 -27 12 -31l-1 1q0 1 1 1q119 38 415 504q-47 18 -95 26q-10 1 -29 1z" />
    <glyph glyph-name="ntilde" unicode="&#xf1;" horiz-adv-x="1165" 
d="M249 822q9 0 17 -3q32 -13 32 -47q0 -9 -3 -18q-79 -226 -93 -266q215 316 379 316q30 0 60 -12q84 -33 84 -192q0 -52 -12 -168q-10 -120 -10 -170q0 -87 24 -115q12 -14 36 -14q111 0 500 347q14 14 33 14q22 0 38 -16q12 -15 12 -35q0 -22 -16 -37
q-407 -366 -583 -366q-61 0 -96 40q-48 56 -48 192q0 54 10 170q12 124 12 172q0 76 -22 85q-13 6 -30 6q-23 0 -49 -11.5t-54.5 -37.5t-54 -51t-57.5 -69.5t-54.5 -74.5t-55.5 -84t-49.5 -80t-47 -81t-38.5 -69t-33 -60q-17 -29 -34 -63q-14 -23 -44 -23q-11 0 -16 2
q-15 4 -25 18t-10 30q0 4 2 14l42 126q42 126 104 307t103 292q12 32 47 32zM288 1581q21 0 35 -13q23 -23 76 -36q27 -6 66 -6q63 0 142 18q107 27 182 27q4 0 12 -0.5t11 -0.5q96 -2 146 -50q13 -14 13 -34q0 -22 -16 -38q-16 -14 -35 -14q-21 0 -36 16q-14 16 -77 20h-14
q-63 0 -165 -24q-87 -21 -159 -21q-44 0 -91 9q-76 15 -124 60q-17 15 -17 36q0 19 14 36q15 15 37 15z" />
    <glyph glyph-name="ograve" unicode="&#xf2;" horiz-adv-x="1204" 
d="M374 726q13 0 20 -1l7 -2q31 -6 41 -12q60 -25 86 -99q15 -38 15 -91q0 -23 -3 -48q3 -3 6 -7.5t6 -9.5t5 -7q116 -54 263 -54q231 0 506 133q10 5 20 5q32 0 47 -29q5 -12 5 -22q0 -32 -29 -47q-294 -141 -545 -141q-136 0 -255 42q-12 -72 -61.5 -158.5t-118.5 -162.5
q-69 -79 -143 -127.5t-133 -48.5q-10 0 -15 1q-122 13 -122 195q0 30 5 78l2 34q33 209 134 379q120 200 257 200zM378 625q-85 0 -173 -152q-44 -75 -76.5 -167.5t-44.5 -175.5l-3 -26q-6 -46 -6 -79q0 -82 32 -85h5q73 0 203 142q46 51 103 139q-3 2 -7 3t-5 2
q-30 14 -30 47q0 11 4 20q32 65 45 118q-8 6 -15 11.5t-9.5 7.5t-3.5 2q-15 18 -15 38v6q3 19 16.5 31.5t32.5 12.5q6 0 9 -1h2q0 39 -10 60q-10 30 -31 41q-2 0 -6.5 1t-7.5 1l-2 2q-2 1 -7 1zM266 1600q18 0 31 -12l210 -173q18 -17 18 -40q0 -16 -11 -32q-17 -18 -40 -18
q-16 0 -32 11l-210 175q-17 15 -17 39q0 18 12 33q15 17 39 17z" />
    <glyph glyph-name="oacute" unicode="&#xf3;" horiz-adv-x="1204" 
d="M374 726q13 0 20 -1l7 -2q31 -6 41 -12q60 -25 86 -99q15 -38 15 -91q0 -23 -3 -48q3 -3 6 -7.5t6 -9.5t5 -7q116 -54 263 -54q231 0 506 133q10 5 20 5q32 0 47 -29q5 -12 5 -22q0 -32 -29 -47q-294 -141 -545 -141q-136 0 -255 42q-12 -72 -61.5 -158.5t-118.5 -162.5
q-69 -79 -143 -127.5t-133 -48.5q-10 0 -15 1q-122 13 -122 195q0 30 5 78l2 34q33 209 134 379q120 200 257 200zM378 625q-85 0 -173 -152q-44 -75 -76.5 -167.5t-44.5 -175.5l-3 -26q-6 -46 -6 -79q0 -82 32 -85h5q73 0 203 142q46 51 103 139q-3 2 -7 3t-5 2
q-30 14 -30 47q0 11 4 20q32 65 45 118q-8 6 -15 11.5t-9.5 7.5t-3.5 2q-15 18 -15 38v6q3 19 16.5 31.5t32.5 12.5q6 0 9 -1h2q0 39 -10 60q-10 30 -31 41q-2 0 -6.5 1t-7.5 1l-2 2q-2 1 -7 1zM758 1600q24 0 39 -17q12 -15 12 -33q0 -24 -17 -39l-210 -175
q-16 -11 -32 -11q-24 0 -40 18q-11 16 -11 32q0 23 18 40l210 173q13 12 31 12z" />
    <glyph glyph-name="ocircumflex" unicode="&#xf4;" horiz-adv-x="1204" 
d="M374 726q13 0 20 -1l7 -2q31 -6 41 -12q60 -25 86 -99q15 -38 15 -91q0 -23 -3 -48q3 -3 6 -7.5t6 -9.5t5 -7q116 -54 263 -54q231 0 506 133q10 5 20 5q32 0 47 -29q5 -12 5 -22q0 -32 -29 -47q-294 -141 -545 -141q-136 0 -255 42q-12 -72 -61.5 -158.5t-118.5 -162.5
q-69 -79 -143 -127.5t-133 -48.5q-10 0 -15 1q-122 13 -122 195q0 30 5 78l2 34q33 209 134 379q120 200 257 200zM378 625q-85 0 -173 -152q-44 -75 -76.5 -167.5t-44.5 -175.5l-3 -26q-6 -46 -6 -79q0 -82 32 -85h5q73 0 203 142q46 51 103 139q-3 2 -7 3t-5 2
q-30 14 -30 47q0 11 4 20q32 65 45 118q-8 6 -15 11.5t-9.5 7.5t-3.5 2q-15 18 -15 38v6q3 19 16.5 31.5t32.5 12.5q6 0 9 -1h2q0 39 -10 60q-10 30 -31 41q-2 0 -6.5 1t-7.5 1l-2 2q-2 1 -7 1zM544 1786q40 0 69 -45.5t81 -170.5l43 -106q5 -10 5 -20q0 -33 -32 -44
q-12 -5 -21 -5q-30 0 -45 31l-43 105q-19 44 -33.5 84t-19 55t-7.5 15q-1 0 -7 -11t-21 -39.5t-32 -57.5q-41 -75 -102 -170q-15 -24 -44 -24q-15 0 -26 7q-23 14 -23 41q0 15 9 29q25 41 60.5 100.5t39.5 66.5q62 107 86 132q27 27 57 27h6z" />
    <glyph glyph-name="otilde" unicode="&#xf5;" horiz-adv-x="1204" 
d="M374 726q13 0 20 -1l7 -2q31 -6 41 -12q60 -25 86 -99q15 -38 15 -91q0 -23 -3 -48q3 -3 6 -7.5t6 -9.5t5 -7q116 -54 263 -54q231 0 506 133q10 5 20 5q32 0 47 -29q5 -12 5 -22q0 -32 -29 -47q-294 -141 -545 -141q-136 0 -255 42q-12 -72 -61.5 -158.5t-118.5 -162.5
q-69 -79 -143 -127.5t-133 -48.5q-10 0 -15 1q-122 13 -122 195q0 30 5 78l2 34q33 209 134 379q120 200 257 200zM378 625q-85 0 -173 -152q-44 -75 -76.5 -167.5t-44.5 -175.5l-3 -26q-6 -46 -6 -79q0 -82 32 -85h5q73 0 203 142q46 51 103 139q-3 2 -7 3t-5 2
q-30 14 -30 47q0 11 4 20q32 65 45 118q-8 6 -15 11.5t-9.5 7.5t-3.5 2q-15 18 -15 38v6q3 19 16.5 31.5t32.5 12.5q6 0 9 -1h2q0 39 -10 60q-10 30 -31 41q-2 0 -6.5 1t-7.5 1l-2 2q-2 1 -7 1zM188 1581q21 0 35 -13q23 -23 76 -36q27 -6 66 -6q63 0 142 18q107 27 182 27
q4 0 12 -0.5t11 -0.5q96 -2 146 -50q13 -14 13 -34q0 -22 -16 -38q-16 -14 -35 -14q-21 0 -36 16q-14 16 -77 20h-14q-63 0 -165 -24q-87 -21 -159 -21q-44 0 -91 9q-76 15 -124 60q-17 15 -17 36q0 19 14 36q15 15 37 15z" />
    <glyph glyph-name="odieresis" unicode="&#xf6;" horiz-adv-x="1204" 
d="M374 726q13 0 20 -1l7 -2q31 -6 41 -12q60 -25 86 -99q15 -38 15 -91q0 -23 -3 -48q3 -3 6 -7.5t6 -9.5t5 -7q116 -54 263 -54q231 0 506 133q10 5 20 5q32 0 47 -29q5 -12 5 -22q0 -32 -29 -47q-294 -141 -545 -141q-136 0 -255 42q-12 -72 -61.5 -158.5t-118.5 -162.5
q-69 -79 -143 -127.5t-133 -48.5q-10 0 -15 1q-122 13 -122 195q0 30 5 78l2 34q33 209 134 379q120 200 257 200zM378 625q-85 0 -173 -152q-44 -75 -76.5 -167.5t-44.5 -175.5l-3 -26q-6 -46 -6 -79q0 -82 32 -85h5q73 0 203 142q46 51 103 139q-3 2 -7 3t-5 2
q-30 14 -30 47q0 11 4 20q32 65 45 118q-8 6 -15 11.5t-9.5 7.5t-3.5 2q-15 18 -15 38v6q3 19 16.5 31.5t32.5 12.5q6 0 9 -1h2q0 39 -10 60q-10 30 -31 41q-2 0 -6.5 1t-7.5 1l-2 2q-2 1 -7 1zM389 1590q26 0 44.5 -23.5t18.5 -58.5q0 -2 -0.5 -6t-0.5 -6q-2 -38 -24 -65.5
t-50 -27.5q-26 0 -44.5 24t-18.5 58q0 1 0.5 5t0.5 6q1 39 23 66.5t51 27.5zM621 1590q27 0 44.5 -25t17.5 -63v-6q-2 -38 -24 -65.5t-50 -27.5q-26 0 -44.5 24t-18.5 58q0 1 0.5 5t0.5 6q1 40 23 67t51 27z" />
    <glyph glyph-name="divide" unicode="&#xf7;" horiz-adv-x="940" 
d="M442 178q27 0 45 -24t18 -57q0 -2 -0.5 -6t-0.5 -6q-1 -39 -23 -66t-51 -27q-27 0 -45 23t-18 58q0 2 0.5 6t0.5 6q2 38 24 65.5t50 27.5zM235 376h490q20 0 35 -15.5t15 -35.5q0 -22 -15 -37.5t-35 -15.5h-490q-20 0 -35 15.5t-15 37.5q0 20 15 35.5t35 15.5zM513 636
q27 0 45 -24t18 -57q0 -2 -0.5 -6t-0.5 -6q-1 -39 -23 -66t-51 -27q-27 0 -45 23t-18 58q0 2 0.5 6t0.5 6q2 38 24 65.5t50 27.5z" />
    <glyph glyph-name="oslash" unicode="&#xf8;" horiz-adv-x="1204" 
d="M389 442l-166 -447q43 33 92 87q60 69 103 139q-3 1 -7 3q-1 0 -2.5 0.5t-2.5 1.5q-30 16 -30 47q0 11 4 20q32 65 45 118q-4 3 -10.5 8.5t-8.5 6.5q-8 6 -9 6zM61 -151q-30 12 -51 42q-34 46 -34 144q0 30 5 78l2 34q32 197 134 379q53 89 118 144q65 56 139 56h13
l511 1373q6 15 19 25q13 9 28 9q9 0 17 -3q32 -18 32 -49q0 -9 -3 -18l-511 -1376q32 -27 48 -75q15 -38 15 -91q0 -23 -3 -48q6 -6 12 -16q4 -6 5 -8q40 -19 109 -37q66 -17 154 -17q97 0 223 30q121 27 283 103q12 5 20 5q29 0 47 -29q5 -12 5 -22q0 -29 -29 -47
q-165 -77 -302 -109q-139 -32 -243 -32q-79 0 -142 12q-62 12 -113 30q-13 -74 -63 -160q-50 -87 -117 -161q-67 -77 -141 -126q-41 -28 -79 -40l-348 -939q-17 -32 -48 -32q-11 0 -19 4q-15 7 -23 19q-9 13 -9 29q0 8 3 16zM348 620q-29 -9 -59 -37q-46 -45 -84 -110
q-92 -164 -121 -343l-3 -26q-6 -46 -6 -79q0 -45 9 -64q5 -10 12 -17zM436 567l-18 -49q8 2 13 2q6 0 9 -1h2q0 29 -6 48z" />
    <glyph glyph-name="ugrave" unicode="&#xf9;" horiz-adv-x="922" 
d="M774 828q18 0 33 -12q18 -15 18 -38q0 -8 -3 -17l-5 -12q-2 -4 -15.5 -41.5t-19.5 -55.5t-21 -61t-24 -69.5t-23 -69.5t-22.5 -72t-19 -66.5t-16 -64.5t-9.5 -53t-4 -44q0 -31 11 -39q2 -2 7 -2q56 0 364 389q14 19 39 19q18 0 32 -12q18 -15 18 -38q0 -18 -10 -32
q-328 -418 -467 -418q-27 0 -45 15q-36 28 -36 115q0 123 77 375q-131 -174 -160 -214q-38 -52 -54.5 -75t-48.5 -65.5t-48 -61.5t-42 -48.5t-43 -42.5t-38.5 -28.5t-40 -21t-37.5 -5.5q-23 0 -40 7q-71 24 -79 125q0 3 -0.5 9.5t-0.5 10.5q0 62 22 153q54 212 189 470
q14 27 46 27q11 0 23 -5q27 -17 27 -47q0 -10 -5 -23q-130 -242 -182 -446q-19 -81 -19 -129v-13q5 -33 12 -36h7q33 0 92.5 70t177.5 233q207 285 344 444q18 16 39 16zM413 1600q17 0 31 -12l210 -173q18 -17 18 -40q0 -16 -11 -32q-17 -18 -40 -18q-16 0 -32 11l-210 175
q-17 15 -17 39q0 18 12 33q15 17 39 17z" />
    <glyph glyph-name="uacute" unicode="&#xfa;" horiz-adv-x="922" 
d="M774 828q18 0 33 -12q18 -15 18 -38q0 -8 -3 -17l-5 -12q-2 -4 -15.5 -41.5t-19.5 -55.5t-21 -61t-24 -69.5t-23 -69.5t-22.5 -72t-19 -66.5t-16 -64.5t-9.5 -53t-4 -44q0 -31 11 -39q2 -2 7 -2q56 0 364 389q14 19 39 19q18 0 32 -12q18 -15 18 -38q0 -18 -10 -32
q-328 -418 -467 -418q-27 0 -45 15q-36 28 -36 115q0 123 77 375q-131 -174 -160 -214q-38 -52 -54.5 -75t-48.5 -65.5t-48 -61.5t-42 -48.5t-43 -42.5t-38.5 -28.5t-40 -21t-37.5 -5.5q-23 0 -40 7q-71 24 -79 125q0 3 -0.5 9.5t-0.5 10.5q0 62 22 153q54 212 189 470
q14 27 46 27q11 0 23 -5q27 -17 27 -47q0 -10 -5 -23q-130 -242 -182 -446q-19 -81 -19 -129v-13q5 -33 12 -36h7q33 0 92.5 70t177.5 233q207 285 344 444q18 16 39 16zM816 1600q24 0 39 -17q12 -15 12 -33q0 -24 -17 -39l-210 -175q-16 -11 -32 -11q-24 0 -40 18
q-11 16 -11 32q0 23 18 40l210 173q13 12 31 12z" />
    <glyph glyph-name="ucircumflex" unicode="&#xfb;" horiz-adv-x="922" 
d="M774 828q18 0 33 -12q18 -15 18 -38q0 -8 -3 -17l-5 -12q-2 -4 -15.5 -41.5t-19.5 -55.5t-21 -61t-24 -69.5t-23 -69.5t-22.5 -72t-19 -66.5t-16 -64.5t-9.5 -53t-4 -44q0 -31 11 -39q2 -2 7 -2q56 0 364 389q14 19 39 19q18 0 32 -12q18 -15 18 -38q0 -18 -10 -32
q-328 -418 -467 -418q-27 0 -45 15q-36 28 -36 115q0 123 77 375q-131 -174 -160 -214q-38 -52 -54.5 -75t-48.5 -65.5t-48 -61.5t-42 -48.5t-43 -42.5t-38.5 -28.5t-40 -21t-37.5 -5.5q-23 0 -40 7q-71 24 -79 125q0 3 -0.5 9.5t-0.5 10.5q0 62 22 153q54 212 189 470
q14 27 46 27q11 0 23 -5q27 -17 27 -47q0 -10 -5 -23q-130 -242 -182 -446q-19 -81 -19 -129v-13q5 -33 12 -36h7q33 0 92.5 70t177.5 233q207 285 344 444q18 16 39 16zM633 1748q40 0 69 -45.5t81 -170.5l43 -106q5 -10 5 -20q0 -33 -32 -44q-12 -5 -21 -5q-30 0 -45 31
l-43 105q-19 44 -33.5 84t-19 55t-7.5 15q-1 0 -7 -11t-21 -39.5t-32 -57.5q-41 -75 -102 -170q-15 -24 -44 -24q-15 0 -26 7q-23 14 -23 41q0 15 9 29q25 41 60.5 100.5t39.5 66.5q62 107 86 132q28 27 57 27h6z" />
    <glyph glyph-name="udieresis" unicode="&#xfc;" horiz-adv-x="922" 
d="M774 828q18 0 33 -12q18 -15 18 -38q0 -8 -3 -17l-5 -12q-2 -4 -15.5 -41.5t-19.5 -55.5t-21 -61t-24 -69.5t-23 -69.5t-22.5 -72t-19 -66.5t-16 -64.5t-9.5 -53t-4 -44q0 -31 11 -39q2 -2 7 -2q56 0 364 389q14 19 39 19q18 0 32 -12q18 -15 18 -38q0 -18 -10 -32
q-328 -418 -467 -418q-27 0 -45 15q-36 28 -36 115q0 123 77 375q-131 -174 -160 -214q-38 -52 -54.5 -75t-48.5 -65.5t-48 -61.5t-42 -48.5t-43 -42.5t-38.5 -28.5t-40 -21t-37.5 -5.5q-23 0 -40 7q-71 24 -79 125q0 3 -0.5 9.5t-0.5 10.5q0 62 22 153q54 212 189 470
q14 27 46 27q11 0 23 -5q27 -17 27 -47q0 -10 -5 -23q-130 -242 -182 -446q-19 -81 -19 -129v-13q5 -33 12 -36h7q33 0 92.5 70t177.5 233q207 285 344 444q18 16 39 16zM536 1590q26 0 44.5 -23.5t18.5 -58.5q0 -2 -0.5 -6t-0.5 -6q-2 -38 -24 -65.5t-50 -27.5
q-26 0 -44.5 24t-18.5 58q0 1 0.5 5t0.5 6q1 39 23 66.5t51 27.5zM768 1590q27 0 44.5 -25t17.5 -63v-6q-2 -38 -24 -65.5t-50 -27.5q-26 0 -44.5 24t-18.5 58q0 1 0.5 5t0.5 6q1 40 23 67t51 27z" />
    <glyph glyph-name="yacute" unicode="&#xfd;" horiz-adv-x="856" 
d="M288 815q13 0 25 -6q26 -15 26 -44q0 -14 -7 -25q-143 -263 -186 -420q-28 -88 -28 -140q0 -32 11 -43q2 -2 6 -2q42 0 266 245q158 167 287 336l24 26q16 19 38 19q18 0 31 -12q20 -14 20 -38q0 -10 -5 -22q-129 -318 -316 -849q-70 -197 -90 -255q254 127 568 127
q307 0 660 -122q35 -12 35 -49q0 -11 -2 -16q-5 -15 -18.5 -24.5t-28.5 -9.5q-8 0 -17 3q-340 117 -627 117q-356 0 -625 -175q-86 -221 -118 -297q-138 -331 -243 -413q-53 -41 -90 -41q-32 0 -49.5 29.5t-17.5 83.5q0 39 11 96q17 94 74.5 208.5t152.5 221.5
q96 108 196 177q26 70 74 204.5t60 167.5q100 286 203 564q-69 -79 -112 -125q-247 -269 -364 -269q-32 0 -52 20q-39 37 -39 121q0 72 27 164q52 182 196 440q15 27 44 27zM177 -693q-8 -8 -46 -51q-83 -94 -135.5 -195.5t-69.5 -185.5q-3 -13 -6.5 -30.5t-5.5 -26.5
t-2 -10q84 64 212 372q17 35 53 127zM902 1600q24 0 39 -17q12 -15 12 -33q0 -24 -17 -39l-210 -175q-16 -11 -32 -11q-24 0 -40 18q-11 16 -11 32q0 23 18 40l210 173q13 12 31 12z" />
    <glyph glyph-name="thorn" unicode="&#xfe;" horiz-adv-x="933" 
d="M342 960q0 -13 -1.5 -51.5t-2.5 -62.5q-8 -188 -18 -428q-1 -22 -3 -57.5t-3 -62t-2 -48.5q37 -15 80 -11q2 0 26 3q71 15 122 67t79 125q29 77 38 158q10 96 -8 189q-14 70 -45 125q-3 4 -8 12.5t-7 12.5q-25 37 -62 59q-34 19 -76 16q-1 -1 -3.5 -1.5t-3.5 -0.5l-6 -1
q-52 -10 -96 -43zM243 1010q16 385 16 450q0 23 -1 28v3q0 13 13 22t32 10q1 0 2 1h2q20 0 35 -9q15 -10 16 -23q1 -5 1 -28q0 -35 -15 -383q26 11 63 20l1 1q4 0 10 2q5 0 11 2q84 11 148 -22q64 -35 104 -100q14 -22 20 -34q33 -64 48 -148q19 -102 8 -218
q-9 -106 -46 -197t-102 -158q-65 -65 -161 -88q-19 -4 -40 -6q-52 -4 -99 5q-1 -59 -21 -358q-3 -63 -3 -65q0 -14 -15 -23t-35 -9q-22 0 -35 10q-15 11 -15 24l1 7q0 6 0.5 21t0.5 32q19 315 24 405z" />
    <glyph glyph-name="ydieresis" unicode="&#xff;" horiz-adv-x="856" 
d="M288 815q13 0 25 -6q26 -15 26 -44q0 -14 -7 -25q-143 -263 -186 -420q-28 -88 -28 -140q0 -32 11 -43q2 -2 6 -2q42 0 266 245q158 167 287 336l24 26q16 19 38 19q18 0 31 -12q20 -14 20 -38q0 -10 -5 -22q-129 -318 -316 -849q-70 -197 -90 -255q254 127 568 127
q307 0 660 -122q35 -12 35 -49q0 -11 -2 -16q-5 -15 -18.5 -24.5t-28.5 -9.5q-8 0 -17 3q-340 117 -627 117q-356 0 -625 -175q-86 -221 -118 -297q-138 -331 -243 -413q-53 -41 -90 -41q-32 0 -49.5 29.5t-17.5 83.5q0 39 11 96q17 94 74.5 208.5t152.5 221.5
q96 108 196 177q26 70 74 204.5t60 167.5q100 286 203 564q-69 -79 -112 -125q-247 -269 -364 -269q-32 0 -52 20q-39 37 -39 121q0 72 27 164q52 182 196 440q15 27 44 27zM177 -693q-8 -8 -46 -51q-83 -94 -135.5 -195.5t-69.5 -185.5q-3 -13 -6.5 -30.5t-5.5 -26.5
t-2 -10q84 64 212 372q17 35 53 127zM571 1590q26 0 44.5 -23.5t18.5 -58.5q0 -2 -0.5 -6t-0.5 -6q-2 -38 -24 -65.5t-50 -27.5q-26 0 -44.5 24t-18.5 58q0 1 0.5 5t0.5 6q1 39 23 66.5t51 27.5zM803 1590q27 0 44.5 -25t17.5 -63v-6q-2 -38 -24 -65.5t-50 -27.5
q-26 0 -44.5 24t-18.5 58q0 1 0.5 5t0.5 6q1 40 23 67t51 27z" />
    <glyph glyph-name="Amacron" unicode="&#x100;" horiz-adv-x="2850" 
d="M2940 2878q28 0 51 -15q47 -34 47 -168q0 -113 -36 -308t-83.5 -388.5t-134 -491t-146 -492t-159.5 -516.5q324 26 517 32h4q20 0 33.5 -13.5t15.5 -34.5q0 -21 -14 -36t-34 -17q-259 -11 -553 -36q-153 -489 -234 -770.5t-93 -389.5q-3 -18 -17 -31t-32 -13q-2 0 -5 0.5
t-4 0.5q-18 2 -30.5 15.5t-12.5 32.5v7q19 182 318 1138q-577 -50 -1097 -134q-251 -442 -467 -826l-212 -377q-14 -119 -60 -245q-77 -210 -230 -387q-111 -123 -176 -123q-41 0 -41 55q0 7 2 25q3 35 55 108q82 121 352 595q3 32 3 62q0 374 -367 647q-49 35 -69 84
q-9 22 -9 46q0 90 140 165q136 75 402 142q293 71 615 122q820 1444 1255 2051q349 484 506 484zM2920 2783q-86 -1 -402 -449q-410 -567 -1213 -1971q516 77 1067 127q131 421 209 677.5t178 606.5t149 576.5t49 337.5q0 74 -23 90q-7 5 -14 5zM1114 230
q-310 -53 -524 -108q-264 -70 -380 -132q-88 -46 -88 -77q0 -3 2 -9q7 -16 36 -39q353 -263 402 -614l124 221q237 422 428 758zM162 -1631q-5 -10 -5 -12q-1 -5 -1 -9v-1zM2906 3584h487q22 0 36 -14t14 -36t-14 -36t-36 -14h-487q-21 0 -35.5 14t-14.5 36t14.5 36t35.5 14
z" />
    <glyph glyph-name="amacron" unicode="&#x101;" horiz-adv-x="1190" 
d="M755 907q15 0 28 -9q22 -14 22 -42q0 -14 -8 -25q-221 -462 -361 -850q-93 -262 -117 -393q-12 -79 -12 -109q0 -37 12 -43q1 0 3 -0.5t3 -0.5q73 0 314 253q129 138 287 331.5t253 320.5t113 157q16 24 46 24q15 0 26 -7q21 -17 21 -45q0 -14 -7 -27
q-27 -40 -118 -161.5t-254 -322t-295 -339.5q-267 -283 -393 -283q-8 0 -20 2q-15 4 -17 5q-71 28 -71 150q0 47 11 111q35 179 122 413q67 186 141 360q-337 -464 -421 -489q-17 -7 -35 -7q-25 0 -46 16q-43 29 -43 111q0 62 22 144q46 174 152 358t228 263q56 38 130 38
q71 0 168 -35l72 108q17 23 44 23zM471 709q-46 0 -75 -20q-72 -46 -143 -146.5t-119.5 -208.5t-74.5 -209q-19 -71 -19 -117v-22q55 32 212.5 243t327.5 460q-64 20 -109 20zM427 1542h487q22 0 36 -14t14 -36t-14 -36t-36 -14h-487q-21 0 -35.5 14t-14.5 36t14.5 36
t35.5 14z" />
    <glyph glyph-name="Abreve" unicode="&#x102;" horiz-adv-x="2850" 
d="M2940 2878q28 0 51 -15q47 -34 47 -168q0 -113 -36 -308t-83.5 -388.5t-134 -491t-146 -492t-159.5 -516.5q324 26 517 32h4q20 0 33.5 -13.5t15.5 -34.5q0 -21 -14 -36t-34 -17q-259 -11 -553 -36q-153 -489 -234 -770.5t-93 -389.5q-3 -18 -17 -31t-32 -13q-2 0 -5 0.5
t-4 0.5q-18 2 -30.5 15.5t-12.5 32.5v7q19 182 318 1138q-577 -50 -1097 -134q-251 -442 -467 -826l-212 -377q-14 -119 -60 -245q-77 -210 -230 -387q-111 -123 -176 -123q-41 0 -41 55q0 7 2 25q3 35 55 108q82 121 352 595q3 32 3 62q0 374 -367 647q-49 35 -69 84
q-9 22 -9 46q0 90 140 165q136 75 402 142q293 71 615 122q820 1444 1255 2051q349 484 506 484zM2920 2783q-86 -1 -402 -449q-410 -567 -1213 -1971q516 77 1067 127q131 421 209 677.5t178 606.5t149 576.5t49 337.5q0 74 -23 90q-7 5 -14 5zM1114 230
q-310 -53 -524 -108q-264 -70 -380 -132q-88 -46 -88 -77q0 -3 2 -9q7 -16 36 -39q353 -263 402 -614l124 221q237 422 428 758zM162 -1631q-5 -10 -5 -12q-1 -5 -1 -9v-1zM2943 3721q21 -1 35.5 -16.5t14.5 -35.5v-16q0 -131 79 -178h3q24 -15 50 -15q31 0 57 15h2
q40 21 66 71.5t28 124.5q1 22 16 36t36 14q22 -2 36 -16t14 -36q-4 -104 -44.5 -176.5t-103.5 -106.5l-2 -3q-51 -24 -92 -24q-3 0 -7 0.5t-6 0.5q-52 0 -101 26l-4 2q-58 34 -93 100t-35 159q0 4 0.5 12t0.5 12q0 21 15 35.5t35 14.5z" />
    <glyph glyph-name="abreve" unicode="&#x103;" horiz-adv-x="1190" 
d="M755 907q15 0 28 -9q22 -14 22 -42q0 -14 -8 -25q-221 -462 -361 -850q-93 -262 -117 -393q-12 -79 -12 -109q0 -37 12 -43q1 0 3 -0.5t3 -0.5q73 0 314 253q129 138 287 331.5t253 320.5t113 157q16 24 46 24q15 0 26 -7q21 -17 21 -45q0 -14 -7 -27
q-27 -40 -118 -161.5t-254 -322t-295 -339.5q-267 -283 -393 -283q-8 0 -20 2q-15 4 -17 5q-71 28 -71 150q0 47 11 111q35 179 122 413q67 186 141 360q-337 -464 -421 -489q-17 -7 -35 -7q-25 0 -46 16q-43 29 -43 111q0 62 22 144q46 174 152 358t228 263q56 38 130 38
q71 0 168 -35l72 108q17 23 44 23zM471 709q-46 0 -75 -20q-72 -46 -143 -146.5t-119.5 -208.5t-74.5 -209q-19 -71 -19 -117v-22q55 32 212.5 243t327.5 460q-64 20 -109 20zM405 1653q21 -1 35.5 -16.5t14.5 -35.5v-16q0 -131 79 -178h3q24 -15 50 -15q31 0 57 15h2
q40 21 66 71.5t28 124.5q1 22 16 36t36 14q22 -2 36 -16t14 -36q-4 -104 -44.5 -176.5t-103.5 -106.5l-2 -3q-51 -24 -92 -24q-3 0 -7 0.5t-6 0.5q-52 0 -101 26l-4 2q-58 34 -93 100t-35 159q0 4 0.5 12t0.5 12q0 21 15 35.5t35 14.5z" />
    <glyph glyph-name="Aogonek" unicode="&#x104;" horiz-adv-x="2850" 
d="M2920 2783q-86 -1 -402 -449q-410 -567 -1213 -1971q516 77 1067 127q131 421 209 677.5t178 606.5t149 576.5t49 337.5q0 74 -23 90q-7 5 -14 5zM1114 230q-310 -53 -524 -108q-264 -70 -380 -132q-88 -46 -88 -77q0 -3 2 -9q7 -16 36 -39q353 -263 402 -614l124 221
q237 422 428 758zM162 -1631q-5 -10 -5 -12q-1 -5 -1 -9v-1zM2022 -737q20 131 102 414q89 311 214 707q-542 -46 -1097 -134q-373 -659 -467 -826l-212 -377q-17 -131 -60 -245q-45 -120 -109 -221q-58 -93 -121 -166q-56 -62 -101 -92q-46 -31 -75 -31q-40 0 -41 55
q0 7 2 25q1 30 55 108q92 137 352 595q3 32 3 62q0 109 -34 218q-34 108 -116 219q-82 109 -217 210q-52 40 -69 84q-9 22 -9 46q0 91 140 165q146 78 402 142q274 67 615 122q332 585 658 1126q326 543 597 925q162 226 292 355q129 129 214 129q28 0 51 -15
q47 -39 47 -168q0 -146 -50 -391q-52 -250 -133 -544q-83 -300 -180 -624q-63 -209 -196 -637q297 25 517 32h4q21 0 34 -13t15 -35q0 -22 -14 -36q-14 -15 -34 -17q-250 -11 -553 -36q-121 -383 -220 -724q-85 -293 -104 -416v-4q0 -9 -3 -18q-5 -18 -17 -29l-4 -4
q-27 -43 -27 -91q0 -35 14 -69q14 -33 41 -56q40 -38 103 -38q20 0 36 -14q14 -14 14 -36q0 -19 -14 -35q-15 -16 -36 -16q-50 0 -95 17q-44 17 -75 46q-43 40 -67 91q-24 52 -24 110q0 81 52 155z" />
    <glyph glyph-name="aogonek" unicode="&#x105;" horiz-adv-x="1190" 
d="M471 709q-46 0 -75 -20q-72 -46 -143 -146.5t-119.5 -208.5t-74.5 -209q-19 -71 -19 -117v-22q55 32 212.5 243t327.5 460q-64 20 -109 20zM242 -627q-9 11 -15 25q-17 39 -17 95q0 47 11 111q34 175 122 413q65 181 141 360q-132 -184 -246 -323q-120 -144 -175 -166
q-17 -7 -35 -7q-27 0 -46 16q-43 34 -43 111q0 62 22 144q44 168 145 347q102 181 235 274q32 21 64 30q35 8 66 8q47 0 88 -10q35 -9 80 -25l72 108q20 23 44 23q15 0 28 -9q22 -18 22 -42q0 -12 -8 -25q-29 -58 -149 -326q-103 -229 -212 -524q-82 -227 -117 -393
q-12 -71 -12 -109q0 -35 12 -43q2 -1 6 -1q39 0 125 71q82 69 189 182q147 158 291 336q151 188 245 312q99 131 117 161q20 24 46 24q13 0 26 -7q21 -20 21 -45q0 -14 -7 -27q-21 -32 -120 -164q-111 -146 -250 -318q-141 -174 -297 -341q-118 -126 -220 -204
q-89 -68 -152 -77q-38 -52 -38 -108q0 -35 14 -69q14 -33 41 -56q40 -38 103 -38q20 0 36 -14q14 -14 14 -36q0 -19 -14 -35q-15 -16 -36 -16q-50 0 -95 17q-44 17 -75 46q-43 40 -67 91q-24 52 -24 110q0 72 44 143z" />
    <glyph glyph-name="Cacute" unicode="&#x106;" 
d="M2601 2786q70 0 130 -20q130 -43 177 -184q19 -61 19 -145q0 -95 -26 -211q-16 -66 -36 -127q103 74 184 86q4 1 11 1q17 0 30.5 -11.5t16.5 -30.5q1 -3 1 -9q0 -18 -11.5 -31.5t-30.5 -16.5q-123 -24 -272 -187q-117 -278 -292 -582q-141 -247 -201 -312
q-73 -79 -105 -79q-23 0 -23 42q0 37 20 109q19 74 86 212q80 165 192.5 343.5t231.5 311.5q64 155 100 305q24 107 24 185q0 66 -17 115q-27 91 -112 120q-44 15 -97 15h-18q-171 -6 -385 -114t-434.5 -291t-441.5 -420.5t-422 -509.5q-369 -500 -577 -975
q-214 -485 -214 -832q0 -6 0.5 -18.5t0.5 -19.5q13 -314 216 -470q79 -58 186 -58q213 0 562 242q256 180 593 491.5t785 772.5q15 16 36 16t35 -14q15 -15 15 -37q0 -23 -15 -35q-446 -461 -787.5 -777t-603.5 -501q-376 -261 -623 -261q-137 0 -243 79q-245 183 -256 550
q-1 14 -1 43q0 368 221 869q217 489 588 995q207 281 437 526t460.5 433.5t456.5 299.5t409 117h20zM3159 3584q24 0 39 -17q12 -15 12 -33q0 -24 -17 -39l-210 -175q-16 -11 -32 -11q-23 0 -40 18q-11 16 -11 32q0 23 18 40l210 173q14 12 31 12z" />
    <glyph glyph-name="cacute" unicode="&#x107;" horiz-adv-x="1181" 
d="M612 833q12 0 34 -2q25 -4 50 -19q29 -17 38 -58q2 -6 2 -19q0 -23 -12 -48q-14 -35 -57 -75q-16 -14 -36 -14q-25 0 -40 19q-15 15 -15 36q0 22 17 41l29 29h-10q-37 0 -88 -19q-147 -65 -292 -221q-146 -163 -167 -288q-3 -13 -3 -26q0 -21 8 -39q19 -47 93 -47
q98 0 296 83q122 51 418 202q322 164 450 208q8 4 19 4q16 0 30 -10t20 -27q3 -9 3 -18q0 -39 -36 -52q-25 -9 -51.5 -19t-61.5 -25.5t-55.5 -25t-67 -32.5t-61.5 -30t-71.5 -35.5t-66.5 -33.5q-257 -134 -426 -207q-218 -90 -345 -90q-141 0 -188 112q-16 36 -16 81
q0 14 4 44q12 79 64 169.5t130 175.5q165 178 330 247q70 29 131 29zM924 1600q24 0 39 -17q12 -15 12 -33q0 -24 -17 -39l-210 -175q-16 -11 -32 -11q-24 0 -40 18q-11 16 -11 32q0 23 18 40l210 173q13 12 31 12z" />
    <glyph glyph-name="Ccircumflex" unicode="&#x108;" 
d="M2601 2786q70 0 130 -20q130 -43 177 -184q19 -61 19 -145q0 -95 -26 -211q-16 -66 -36 -127q103 74 184 86q4 1 11 1q17 0 30.5 -11.5t16.5 -30.5q1 -3 1 -9q0 -18 -11.5 -31.5t-30.5 -16.5q-123 -24 -272 -187q-117 -278 -292 -582q-141 -247 -201 -312
q-73 -79 -105 -79q-23 0 -23 42q0 37 20 109q19 74 86 212q80 165 192.5 343.5t231.5 311.5q64 155 100 305q24 107 24 185q0 66 -17 115q-27 91 -112 120q-44 15 -97 15h-18q-171 -6 -385 -114t-434.5 -291t-441.5 -420.5t-422 -509.5q-369 -500 -577 -975
q-214 -485 -214 -832q0 -6 0.5 -18.5t0.5 -19.5q13 -314 216 -470q79 -58 186 -58q213 0 562 242q256 180 593 491.5t785 772.5q15 16 36 16t35 -14q15 -15 15 -37q0 -23 -15 -35q-446 -461 -787.5 -777t-603.5 -501q-376 -261 -623 -261q-137 0 -243 79q-245 183 -256 550
q-1 14 -1 43q0 368 221 869q217 489 588 995q207 281 437 526t460.5 433.5t456.5 299.5t409 117h20zM2812 3672q40 0 69 -45.5t81 -170.5l43 -106q5 -10 5 -20q0 -33 -32 -44q-12 -5 -21 -5q-30 0 -45 31l-43 105q-19 44 -33.5 84t-19 55t-7.5 15q-1 0 -7 -11t-21 -39.5
t-32 -57.5q-41 -75 -102 -170q-15 -24 -44 -24q-15 0 -26 7q-23 14 -23 41q0 15 9 29q25 41 60.5 100.5t39.5 66.5q62 107 86 132q28 27 57 27h6z" />
    <glyph glyph-name="ccircumflex" unicode="&#x109;" horiz-adv-x="1181" 
d="M612 833q12 0 34 -2q25 -4 50 -19q29 -17 38 -58q2 -6 2 -19q0 -23 -12 -48q-14 -35 -57 -75q-16 -14 -36 -14q-25 0 -40 19q-15 15 -15 36q0 22 17 41l29 29h-10q-37 0 -88 -19q-147 -65 -292 -221q-146 -163 -167 -288q-3 -13 -3 -26q0 -21 8 -39q19 -47 93 -47
q98 0 296 83q122 51 418 202q322 164 450 208q8 4 19 4q16 0 30 -10t20 -27q3 -9 3 -18q0 -39 -36 -52q-25 -9 -51.5 -19t-61.5 -25.5t-55.5 -25t-67 -32.5t-61.5 -30t-71.5 -35.5t-66.5 -33.5q-257 -134 -426 -207q-218 -90 -345 -90q-141 0 -188 112q-16 36 -16 81
q0 14 4 44q12 79 64 169.5t130 175.5q165 178 330 247q70 29 131 29zM556 1735q40 0 69 -45.5t81 -170.5l43 -106q5 -10 5 -20q0 -33 -32 -44q-12 -5 -21 -5q-30 0 -45 31l-43 105q-19 44 -33.5 84t-19 55t-7.5 15q-1 0 -7 -11t-21 -39.5t-32 -57.5q-41 -75 -102 -170
q-15 -24 -44 -24q-15 0 -26 7q-23 14 -23 41q0 16 9 29q25 41 60.5 100.5t39.5 66.5q62 107 86 132q27 27 57 27h6z" />
    <glyph glyph-name="Ccaron" unicode="&#x10c;" 
d="M2601 2786q70 0 130 -20q130 -43 177 -184q19 -61 19 -145q0 -95 -26 -211q-16 -66 -36 -127q103 74 184 86q4 1 11 1q17 0 30.5 -11.5t16.5 -30.5q1 -3 1 -9q0 -18 -11.5 -31.5t-30.5 -16.5q-123 -24 -272 -187q-117 -278 -292 -582q-141 -247 -201 -312
q-73 -79 -105 -79q-23 0 -23 42q0 37 20 109q19 74 86 212q80 165 192.5 343.5t231.5 311.5q64 155 100 305q24 107 24 185q0 66 -17 115q-27 91 -112 120q-44 15 -97 15h-18q-171 -6 -385 -114t-434.5 -291t-441.5 -420.5t-422 -509.5q-369 -500 -577 -975
q-214 -485 -214 -832q0 -6 0.5 -18.5t0.5 -19.5q13 -314 216 -470q79 -58 186 -58q213 0 562 242q256 180 593 491.5t785 772.5q15 16 36 16t35 -14q15 -15 15 -37q0 -23 -15 -35q-446 -461 -787.5 -777t-603.5 -501q-376 -261 -623 -261q-137 0 -243 79q-245 183 -256 550
q-1 14 -1 43q0 368 221 869q217 489 588 995q207 281 437 526t460.5 433.5t456.5 299.5t409 117h20zM2827 3269q-40 0 -69 45.5t-81 170.5l-43 106q-4 8 -4 20q0 33 31 44q12 5 21 5q30 0 45 -31l43 -105q19 -44 33.5 -84t19 -55t7.5 -15q1 0 7 11t21 39.5t32 57.5
q41 75 102 170q15 24 44 24q15 0 26 -7q24 -14 24 -41q0 -16 -10 -29q-25 -41 -60.5 -100.5t-39.5 -66.5q-62 -107 -86 -132q-28 -27 -57 -27h-6z" />
    <glyph glyph-name="ccaron" unicode="&#x10d;" horiz-adv-x="1181" 
d="M612 833q12 0 34 -2q25 -4 50 -19q29 -17 38 -58q2 -6 2 -19q0 -23 -12 -48q-14 -35 -57 -75q-16 -14 -36 -14q-25 0 -40 19q-15 15 -15 36q0 22 17 41l29 29h-10q-37 0 -88 -19q-147 -65 -292 -221q-146 -163 -167 -288q-3 -13 -3 -26q0 -21 8 -39q19 -47 93 -47
q98 0 296 83q122 51 418 202q322 164 450 208q8 4 19 4q16 0 30 -10t20 -27q3 -9 3 -18q0 -39 -36 -52q-25 -9 -51.5 -19t-61.5 -25.5t-55.5 -25t-67 -32.5t-61.5 -30t-71.5 -35.5t-66.5 -33.5q-257 -134 -426 -207q-218 -90 -345 -90q-141 0 -188 112q-16 36 -16 81
q0 14 4 44q12 79 64 169.5t130 175.5q165 178 330 247q70 29 131 29zM636 1269q-40 0 -69 45.5t-81 170.5l-43 106q-4 8 -4 20q0 33 31 44q12 5 21 5q30 0 45 -31l43 -105q19 -44 33.5 -84t19 -55t7.5 -15q1 0 7 11t21 39.5t32 57.5q41 75 102 170q15 24 44 24q15 0 26 -7
q24 -14 24 -41q0 -16 -10 -29q-25 -41 -60.5 -100.5t-39.5 -66.5q-62 -107 -86 -132q-28 -27 -57 -27h-6z" />
    </font>
</defs>
</svg>
