<?xml version="1.0" encoding="utf-8"?>
<!-- Generator: Adobe Illustrator 21.0.0, SVG Export Plug-In . SVG Version: 6.00 Build 0)  -->
<svg version="1.1" id="Layer_1" xmlns="http://www.w3.org/2000/svg" xmlns:xlink="http://www.w3.org/1999/xlink" x="0px" y="0px"
	 viewBox="0 0 841.9 595.3" style="enable-background:new 0 0 841.9 595.3;" xml:space="preserve">
<style type="text/css">
	.st0{clip-path:url(#SVGID_2_);fill:none;stroke:#000000;}
</style>
<g>
	<defs>
		<rect id="SVGID_1_" width="841.9" height="595.3"/>
	</defs>
	<clipPath id="SVGID_2_">
		<use xlink:href="#SVGID_1_"  style="overflow:visible;"/>
	</clipPath>
	<path class="st0" d="M288.2,61.6c-7.6-7.6-39.5-16.7-15.2,9.1c24.3,25.8-10.6,9.1-19.7-6.1c-9.1-15.2-18.1-1.5-34.9,6.1
		c-16.8,7.6-2.3-15.5-2.3-15.5H80.7v64.4c0,0,2.5-7.9,13.2,22.5c10.6,30.4-16.7-16.7-4.6,15.2c12.2,31.9-8.6-10.7-8.6-10.7v49.7
		c0,0-2.4,14.8,5.6,23.4c8,8.6-7.6,13.7-34.9,41.1c-27.3,27.4,29.4-19.5,29.4-19.5v68.2c0,0,14.5,10.2,7.7,23.3
		c-6.7,13.1-16.5-24.3-15.8-10.1c0.6,14.2,8.1,38.6,8.1,38.6v112.1h49.1c0,0,21.8-81.9,8.1,32.2c-13.7,114,5.3-12.2,16.3-30.4
		c11-18.2,11-13.7,12.5-9.1c1.5,4.6,6.6,7.3,6.6,7.3h72.8c0,0,32.3,1.8-0.8-13.4c-33.1-15.2-34.8-19.2,10.1-15.7
		s49.5,18.7,31.3,15.7c-18.2-3-26.5,18.2,1.5,12.2s37,1.3,37,1.3h102.6c0,0,50.3-41.7,6.3,16.5c10.6-14,18.3,11.9,12.2,8.1
		c12.2,7.6-6.1-30.4,3-16.7c9.1,13.7,1.5-26.3,10.6-11.6c9.1,14.7,17,3.8,17,3.8h311.5V162.5c0,0-9.5,11.6-17.1,1
		c-7.6-10.6,0.6,47.1-28.9,0c-29.5-47.1-7.6,60.8-19.7,3c-12.2-57.8,34.9,3,62.3-28.9c27.3-31.9,3.4-11.2,3.4-11.2V55.2h-170
		c0,0,25.3,39.8-44.6,27.6c-69.9-12.2,4.6,24.3-28.9,15.2c-33.4-9.1,13.7-13.6-33.4-42.6c-47.1-28.9-18.8-0.3-18.8-0.3H287
		C287,55.2,295.8,69.2,288.2,61.6z"/>
</g>
</svg>
