<?xml version="1.0" encoding="UTF-8"?>
<svg width="679px" height="408px" viewBox="0 0 679 408" version="1.1" xmlns="http://www.w3.org/2000/svg" xmlns:xlink="http://www.w3.org/1999/xlink">
    <title>LOGO</title>
    <g id="Page-1" stroke="none" stroke-width="1" fill="none" fill-rule="evenodd">
        <g id="Desktop-HD" transform="translate(-367.000000, -224.000000)" fill="#000000" fill-rule="nonzero">
            <g id="Group" transform="translate(294.000000, 224.000000)">
                <g id="LOGO" transform="translate(73.000000, 0.000000)">
                    <path d="M652.396004,304.557562 C640.703801,304.557562 632.400643,296.261851 632.400643,284.580135 C632.400643,272.559819 640.703801,264.264108 652.396004,264.264108 C664.088206,264.264108 672.391364,272.559819 672.391364,284.580135 C672.391364,296.261851 664.088206,304.557562 652.396004,304.557562 M652.396004,310.65237 C667.985607,310.65237 679,299.817156 679,284.580135 C679,269.173815 667.985607,258.1693 652.396004,258.1693 C636.806401,258.1693 625.792007,269.173815 625.792007,284.580135 C625.961459,299.817156 636.806401,310.65237 652.396004,310.65237 M589.359783,293.891648 C580.548268,293.891648 574.447989,287.62754 574.447989,279.331828 C574.447989,270.358916 580.71772,264.264108 589.359783,264.264108 C598.001845,264.264108 604.102125,270.528217 604.102125,279.331828 C604.102125,287.96614 598.001845,293.891648 589.359783,293.891648 M612.574735,408 L619.183371,408 L619.183371,320.302483 C619.183371,308.790068 616.472136,302.69526 606.982812,302.69526 C595.29061,302.69526 577.498129,319.455982 570.889493,312.006772 C568.178257,309.128668 569.872779,304.726862 575.634154,298.970655 L577.837033,296.769752 C581.564981,298.801354 585.29293,299.986456 589.529235,299.986456 C602.068698,299.986456 610.880213,291.352144 610.880213,279.331828 C610.880213,269.512415 612.405283,264.941309 621.047346,264.941309 L621.047346,259.015801 C614.099805,259.015801 609.016239,261.216704 606.474456,265.78781 C602.577055,260.708804 596.307323,258 589.529235,258 C576.989772,258 568.178257,266.803612 568.008805,279.331828 C568.008805,284.749436 569.872779,289.320542 572.922919,292.706546 L568.686614,297.277652 C562.416882,304.049661 561.400169,311.498871 565.29757,316.069977 C570.211684,321.995485 578.006485,320.471783 586.309643,316.747178 C593.76554,313.869074 600.713081,309.128668 606.135551,309.128668 C610.880213,309.128668 612.574735,312.853273 612.574735,319.286682 L612.574735,408 L612.574735,408 Z" id="Shape"></path>
                    <path d="M540.047045,72.7459165 L546,72.7459165 L546,67.0072595 L540.557298,67.0072595 C533.073583,67.0072595 529.161641,62.2813067 529.161641,53.8421053 L529.161641,0 L522.528347,0 L522.528347,53.6733212 C522.528347,65.8257713 528.821472,72.7459165 540.047045,72.7459165 M469.121834,43.8838475 C470.312425,34.0943739 476.605549,27.3430127 486.640531,27.3430127 C496.505428,27.3430127 503.648975,34.0943739 503.47889,43.8838475 L469.121834,43.8838475 Z M487.661037,73.5898367 C496.335344,73.5898367 504.669481,69.2014519 508.921592,62.4500907 L504.159228,57.7241379 C501.267793,63.6315789 494.804584,67.5136116 487.831122,67.5136116 C477.455971,67.5136116 469.972256,60.0871143 469.121834,49.6225045 L510.282268,49.6225045 C511.472859,31.9001815 501.267793,21.2667877 486.470446,21.2667877 C472.523522,21.2667877 462.318456,32.2377495 462.318456,47.5970962 C462.148372,62.7876588 472.863691,73.5898367 487.661037,73.5898367 M428.641737,67.8511797 C418.096502,67.8511797 410.782871,59.4119782 410.782871,47.5970962 C410.782871,35.7822142 418.266586,27.3430127 428.641737,27.3430127 C439.016888,27.3430127 446.500603,35.7822142 446.500603,47.5970962 C446.500603,59.4119782 439.016888,67.8511797 428.641737,67.8511797 M405,93 L411.463209,93 L411.463209,64.137931 C415.545235,70.0453721 422.008444,73.9274047 429.322075,73.9274047 C442.92883,73.9274047 453.133896,62.9564428 453.133896,47.5970962 C453.133896,32.2377495 442.758745,21.2667877 429.322075,21.2667877 C421.838359,21.2667877 415.545235,25.1488203 411.463209,31.0562613 L410.612786,22.1107078 L405,22.1107078 L405,93 Z" id="Shape"></path>
                    <path d="M383.95,73 L389.2,73 L389.2,25.2309711 L383.95,25.2309711 L383.95,73 Z M386.5,18.2362205 C388.9,18.2362205 391,16.0183727 391,13.1181102 C391,10.3884514 389.05,8 386.5,8 C384.1,8 382,10.2178478 382,13.1181102 C382.15,15.847769 384.1,18.2362205 386.5,18.2362205" id="Shape"></path>
                    <path d="M99.0786207,261.184211 C92.2924138,261.184211 87.542069,256.907895 87.542069,251.434211 C87.542069,240.828947 97.5517241,237.578947 116.383448,235.526316 L116.383448,244.078947 C116.383448,253.486842 108.918621,261.184211 99.0786207,261.184211 M0,215 L0,220.815789 L116.213793,220.815789 L116.213793,230.052632 C95.5158621,231.934211 80.9255172,237.407895 80.9255172,251.434211 C80.9255172,260.157895 87.3724138,267 98.7393103,267 C106.543448,267 113.668966,262.381579 116.213793,257.934211 L117.401379,266.315789 L123,266.315789 L123,215 L0,215 Z" id="Shape"></path>
                    <path d="M165.233918,215 C157.046784,215 150.497076,219.833333 147.385965,226.166667 L146.403509,215 L141,215 L141,267 L147.385965,267 L147.385965,238.166667 C147.385965,228.833333 155.573099,221 164.906433,221 L169,221 L169,215 L165.233918,215 Z" id="Path"></path>
                    <path d="M202.089552,267 C210.671642,267 217.537313,263.645161 222,258.109677 L217.19403,253.412903 C213.932836,258.109677 208.783582,260.96129 201.91791,260.96129 C190.246269,260.96129 182.69403,252.741935 182.69403,241.167742 C182.69403,229.258065 190.246269,221.03871 201.91791,221.03871 C208.440299,221.03871 213.589552,223.722581 216.850746,228.251613 L221.485075,223.554839 C217.022388,218.187097 210.328358,215 201.91791,215 C186.470149,215 176,225.903226 176,241.167742 C176.171642,256.264516 186.641791,267 202.089552,267" id="Path"></path>
                    <path d="M362.242397,82.8448567 C357.467414,78.6079258 350.98708,77.0826307 343.824606,79.7942664 L364.288818,56.4064081 L359.172765,52 L310.911331,107.080101 L315.856849,111.486509 L333.93357,90.8102867 C340.754974,83.0143339 350.30494,80.6416526 357.467414,86.9123103 C363.265608,91.9966273 363.606678,100.470489 356.955809,108.096965 L234,248.593592 L238.945518,253 L362.071862,112.333895 C371.451293,101.65683 371.110222,90.6408094 362.242397,82.8448567" id="Path"></path>
                    <path d="M569.379032,67.8718331 C562.443548,67.8718331 557.58871,63.6244411 557.58871,58.1877794 C557.58871,47.6542474 567.818548,44.4262295 587.064516,42.3874814 L587.064516,50.8822653 C587.237903,60.2265276 579.435484,67.8718331 569.379032,67.8718331 M553.080645,22 L553.080645,27.7764531 L587.064516,27.7764531 L587.064516,36.9508197 C565.91129,38.8196721 551,44.2563338 551,58.1877794 C551,66.852459 557.58871,73.6482861 569.205645,73.6482861 C577.181452,73.6482861 584.46371,69.0611028 587.064516,64.6438152 L588.278226,250 L594,250 L594,22 L553.080645,22 Z" id="Shape"></path>
                </g>
            </g>
        </g>
    </g>
</svg>